<svg xmlns="http://www.w3.org/2000/svg" xmlns:xlink="http://www.w3.org/1999/xlink" viewBox="0 0 142.05 204.84"><defs><style>.cls-1{isolation:isolate;}.cls-2{opacity:0.85;}.cls-3{fill:url(#linear-gradient);}.cls-4{mix-blend-mode:multiply;}.cls-5{fill:#c6c6c6;}.cls-6{opacity:0.83;mix-blend-mode:overlay;}.cls-7{fill:url(#linear-gradient-2);}.cls-8{fill:url(#linear-gradient-3);}.cls-9{fill:url(#linear-gradient-4);}.cls-10{fill:url(#linear-gradient-5);}</style><linearGradient id="linear-gradient" x1="-300.18" y1="312.61" x2="-300.18" y2="86.59" gradientTransform="matrix(0.54, 0.84, -0.84, 0.54, 402.56, 252.82)" gradientUnits="userSpaceOnUse"><stop offset="0" stop-color="#3f404d"/><stop offset="0.37" stop-color="#556c7a"/><stop offset="1" stop-color="#6d9598"/></linearGradient><linearGradient id="linear-gradient-2" x1="75.73" y1="118.57" x2="75.73" y2="41.01" gradientUnits="userSpaceOnUse"><stop offset="0" stop-color="#fff" stop-opacity="0"/><stop offset="1" stop-color="#fff"/></linearGradient><linearGradient id="linear-gradient-3" x1="119.53" y1="90.12" x2="119.53" y2="45.25" xlink:href="#linear-gradient-2"/><linearGradient id="linear-gradient-4" x1="91.43" y1="157.9" x2="91.43" y2="93.49" xlink:href="#linear-gradient-2"/><linearGradient id="linear-gradient-5" x1="27.53" y1="181.38" x2="27.53" y2="120.03" xlink:href="#linear-gradient-2"/></defs><title>Asset 5</title><g class="cls-1"><g id="Layer_2" data-name="Layer 2"><g id="PRINT"><g class="cls-2"><path class="cls-3" d="M0,204.84C18.79,166,9.9,137.34,34.75,92.51,72.46,24.47,137,0,137,0s21.47,92-23.93,144.29S0,204.84,0,204.84Z"/><g class="cls-4"><path class="cls-5" d="M124.46,19.28c-2.74,5.87-4.61,12.15-7.11,18.13-2.79,6.68-6.3,13-9.45,19.56-6,12.42-12.33,24.72-19.27,36.64a519.5,519.5,0,0,1-48.39,69.11c-4.93,6-10.19,11.67-15.56,17.24-2.69,2.79-5.44,5.51-8.13,8.28s-5.65,5.06-7.45,8.31a1.49,1.49,0,0,0,2,2c5.88-2.57,11-8.71,15.54-13.12,5-4.8,9.76-9.77,14.52-14.78,9.73-10.23,19.3-20.7,27.75-32a357.29,357.29,0,0,0,42.43-73c3-7.12,5.67-14.33,8-21.71,2.51-7.81,5.94-15.56,7.58-23.62.29-1.43-1.81-2.55-2.51-1.06Z"/><path class="cls-5" d="M133.15,75.87c-15,13-29.52,26.3-43.91,39.95L67.73,136.24C60.6,143,52.93,149.5,46.45,156.9a1.44,1.44,0,0,0,2,2c7.72-6.11,14.59-13.43,21.71-20.22s14.33-13.63,21.48-20.45C106,104.6,120,90.77,133.76,76.48c.39-.4-.2-1-.61-.61Z"/><path class="cls-5" d="M118.73,114.21c-14.69,16-31.8,29.73-49.86,41.72Q55.8,164.6,42.31,172.62c-4.62,2.76-9.26,5.46-13.93,8.14-4.43,2.55-9.57,4.72-13.13,8.46a1.45,1.45,0,0,0,1.4,2.41c5.05-1.13,9.56-4.45,14-7q7-4,13.94-8.12c9.49-5.63,18.84-11.46,27.85-17.84,17.62-12.48,33.89-26.44,47.41-43.35.62-.78-.42-1.89-1.12-1.12Z"/><path class="cls-5" d="M101.23,36.14C92.3,49.79,88.73,67.51,86.38,83.39c-1.34,9-2.79,17.88-6.67,26.22-3.21,6.9-8.43,13.07-10.88,20.26-.41,1.2,1.16,1.9,2,1.16,5.52-5,9.46-12.64,12.61-19.24C87.14,104,89,95.9,90.34,87.43a253.65,253.65,0,0,1,5-25.35c2.25-8.48,5.66-16.6,8-25a1.16,1.16,0,0,0-2.12-.89Z"/><path class="cls-5" d="M61.72,66.81C51.14,85.08,50,105.92,47.88,126.42c-2.12,20.3-7.22,38.69-20.35,54.7-.78.95.27,2.74,1.45,1.87C43.87,172,48.64,151.73,51,134.31c3.08-22.29,2.07-46,12.05-66.7.44-.91-.85-1.7-1.37-.8Z"/></g><g class="cls-6"><path class="cls-7" d="M85.27,39.87A389.85,389.85,0,0,0,70.75,78.34c-2.15,6.71-4.08,13.47-5.9,20.28-1.74,6.52-3.77,13-3.73,19.81,0,3.2,4.79,4.83,6.33,1.71,3-6.09,4.18-12.66,5.86-19.19s3.45-13,5.25-19.46C82.23,68.26,86.22,55.09,90.23,42c.88-2.87-3.7-5-5-2.09Z"/></g><g class="cls-6"><path class="cls-8" d="M130.53,44.2c-4.11,7.83-8.55,15.58-13.3,23C112.68,74.37,106.85,81,103.8,89c-.87,2.25,2.21,4.59,4.17,3.2,7.18-5.08,11.81-13.38,16.07-21a155.39,155.39,0,0,0,11.23-25c1-2.77-3.38-4.59-4.74-2Z"/></g><g class="cls-6"><path class="cls-9" d="M123.91,91.54c-11.31,11.12-23,22-34.87,32.47s-24.51,20.11-35.19,31.83a2.17,2.17,0,0,0,2.61,3.4c14.31-7.1,26.41-17.67,38.2-28.31a422.59,422.59,0,0,0,34.05-34.59c2.87-3.25-1.65-7.89-4.8-4.8Z"/></g><g class="cls-6"><path class="cls-10" d="M31.87,119.77c-1.83,10.41-4.13,20.73-6.21,31.1-1.95,9.69-5.34,20.42-4.83,30.36.11,2.23,3.19,3.32,4.36,1.18,4.78-8.66,5.9-20,7.15-29.67a284.81,284.81,0,0,0,1.95-32.65c0-1.35-2.18-1.72-2.42-.32Z"/></g></g></g></g></g></svg>
