<svg xmlns="http://www.w3.org/2000/svg" xmlns:xlink="http://www.w3.org/1999/xlink" viewBox="0 0 252.39 558.13"><defs><style>.cls-1{isolation:isolate;}.cls-2{fill:url(#linear-gradient);}.cls-3{fill:url(#linear-gradient-2);}.cls-4{fill:url(#linear-gradient-3);}.cls-5{fill:url(#linear-gradient-4);}.cls-103,.cls-111,.cls-6,.cls-92,.cls-95{mix-blend-mode:multiply;}.cls-7{fill:#c6c6c6;}.cls-8{fill:url(#linear-gradient-5);}.cls-9{opacity:0.3;mix-blend-mode:overlay;}.cls-10{fill:url(#linear-gradient-6);}.cls-11{fill:url(#linear-gradient-7);}.cls-12{fill:url(#linear-gradient-8);}.cls-13{fill:url(#linear-gradient-9);}.cls-14{fill:url(#linear-gradient-10);}.cls-15{fill:url(#linear-gradient-11);}.cls-16{fill:url(#linear-gradient-12);}.cls-17{fill:url(#linear-gradient-13);}.cls-18{fill:url(#linear-gradient-14);}.cls-19{fill:url(#linear-gradient-15);}.cls-20{fill:url(#linear-gradient-16);}.cls-21{fill:url(#linear-gradient-17);}.cls-22{fill:url(#linear-gradient-18);}.cls-23{fill:url(#linear-gradient-19);}.cls-24{fill:url(#linear-gradient-20);}.cls-25{fill:url(#linear-gradient-21);}.cls-26{fill:url(#linear-gradient-22);}.cls-27{fill:url(#linear-gradient-23);}.cls-28{fill:url(#linear-gradient-24);}.cls-29{fill:url(#linear-gradient-25);}.cls-30{fill:url(#linear-gradient-26);}.cls-31{fill:url(#linear-gradient-27);}.cls-32{fill:url(#linear-gradient-28);}.cls-33{fill:url(#linear-gradient-29);}.cls-34{fill:url(#linear-gradient-30);}.cls-35{fill:url(#linear-gradient-31);}.cls-36{fill:url(#linear-gradient-32);}.cls-37{fill:url(#linear-gradient-33);}.cls-38{fill:url(#linear-gradient-34);}.cls-39{fill:url(#linear-gradient-35);}.cls-40{fill:url(#linear-gradient-36);}.cls-41{fill:url(#linear-gradient-37);}.cls-42{fill:url(#linear-gradient-38);}.cls-43{fill:url(#linear-gradient-39);}.cls-44{fill:url(#linear-gradient-40);}.cls-45{fill:url(#linear-gradient-41);}.cls-46{fill:url(#linear-gradient-42);}.cls-47{fill:url(#linear-gradient-43);}.cls-48{fill:url(#linear-gradient-44);}.cls-49{fill:url(#linear-gradient-45);}.cls-50{fill:#a59b96;}.cls-51{fill:url(#radial-gradient);}.cls-52{fill:url(#radial-gradient-2);}.cls-53{fill:url(#radial-gradient-3);}.cls-54{fill:url(#radial-gradient-4);}.cls-55{fill:url(#radial-gradient-5);}.cls-56{fill:url(#radial-gradient-6);}.cls-57{fill:url(#radial-gradient-7);}.cls-58{fill:url(#radial-gradient-8);}.cls-59{fill:url(#radial-gradient-9);}.cls-60{fill:url(#radial-gradient-10);}.cls-61{fill:url(#radial-gradient-11);}.cls-62{fill:url(#radial-gradient-12);}.cls-63{fill:url(#radial-gradient-13);}.cls-64{fill:url(#radial-gradient-14);}.cls-65{fill:url(#radial-gradient-15);}.cls-66{opacity:0.5;}.cls-67{fill:url(#linear-gradient-46);}.cls-68{fill:url(#linear-gradient-47);}.cls-69{fill:url(#linear-gradient-48);}.cls-70{fill:url(#linear-gradient-49);}.cls-71{fill:url(#linear-gradient-50);}.cls-72{fill:url(#linear-gradient-51);}.cls-73{fill:url(#linear-gradient-52);}.cls-74{fill:url(#linear-gradient-53);}.cls-75{fill:url(#linear-gradient-54);}.cls-76{fill:url(#radial-gradient-16);}.cls-77{fill:url(#radial-gradient-17);}.cls-78{fill:url(#radial-gradient-18);}.cls-79{fill:url(#radial-gradient-19);}.cls-80{fill:url(#radial-gradient-20);}.cls-81{fill:url(#radial-gradient-21);}.cls-82{fill:url(#radial-gradient-22);}.cls-83{fill:url(#radial-gradient-23);}.cls-84{fill:url(#radial-gradient-24);}.cls-85{fill:url(#radial-gradient-25);}.cls-86{fill:url(#radial-gradient-26);}.cls-87{fill:url(#radial-gradient-27);}.cls-88{fill:url(#radial-gradient-28);}.cls-89{fill:url(#radial-gradient-29);}.cls-90{fill:url(#radial-gradient-30);}.cls-91{fill:url(#linear-gradient-55);}.cls-92{fill:url(#linear-gradient-56);}.cls-93{fill:url(#linear-gradient-57);}.cls-94{fill:url(#linear-gradient-58);}.cls-95{fill:url(#linear-gradient-59);}.cls-96{fill:url(#linear-gradient-60);}.cls-97{fill:url(#linear-gradient-61);}.cls-98{fill:url(#linear-gradient-62);}.cls-99{fill:url(#linear-gradient-63);}.cls-100{fill:url(#linear-gradient-64);}.cls-101{fill:url(#linear-gradient-65);}.cls-102{fill:url(#linear-gradient-66);}.cls-103{fill:url(#linear-gradient-67);}.cls-104{fill:url(#linear-gradient-68);}.cls-105{fill:url(#linear-gradient-69);}.cls-106{fill:url(#linear-gradient-70);}.cls-107{fill:url(#linear-gradient-71);}.cls-108{fill:url(#linear-gradient-72);}.cls-109{fill:url(#linear-gradient-73);}.cls-110{fill:url(#linear-gradient-74);}.cls-111{fill:url(#linear-gradient-75);}.cls-112{fill:#fff;}</style><linearGradient id="linear-gradient" x1="172.29" y1="137.36" x2="232.75" y2="137.36" gradientUnits="userSpaceOnUse"><stop offset="0" stop-color="#91a1b8"/><stop offset="1" stop-color="#3f404d"/></linearGradient><linearGradient id="linear-gradient-2" x1="132.72" y1="155.47" x2="191.31" y2="155.47" gradientUnits="userSpaceOnUse"><stop offset="0" stop-color="#3f404d"/><stop offset="1" stop-color="#91a1b8"/></linearGradient><linearGradient id="linear-gradient-3" x1="143.6" y1="225.07" x2="174.48" y2="225.07" xlink:href="#linear-gradient"/><linearGradient id="linear-gradient-4" x1="372.05" y1="1682.01" x2="372.05" y2="1565.22" gradientTransform="translate(566.88 1774.33) rotate(179.5)" gradientUnits="userSpaceOnUse"><stop offset="0" stop-color="#3f404d"/><stop offset="0.37" stop-color="#556c7a"/><stop offset="1" stop-color="#6d9598"/></linearGradient><linearGradient id="linear-gradient-5" x1="340.51" y1="1545.93" x2="310.75" y2="1435.44" gradientTransform="matrix(-1, 0.05, -0.05, -1, 594.59, 1769.01)" gradientUnits="userSpaceOnUse"><stop offset="0" stop-color="#3f404d"/><stop offset="0.35" stop-color="#556c7a"/><stop offset="0.84" stop-color="#6d9598"/></linearGradient><linearGradient id="linear-gradient-6" x1="199.47" y1="345.04" x2="199.47" y2="317.38" gradientUnits="userSpaceOnUse"><stop offset="0" stop-color="#fff" stop-opacity="0"/><stop offset="1" stop-color="#fff"/></linearGradient><linearGradient id="linear-gradient-7" x1="406.42" y1="1539.28" x2="436.02" y2="1452.05" gradientTransform="translate(566.88 1774.33) rotate(179.5)" xlink:href="#linear-gradient-5"/><linearGradient id="linear-gradient-8" x1="149.49" y1="295.34" x2="149.49" y2="258.71" xlink:href="#linear-gradient-6"/><linearGradient id="linear-gradient-9" x1="140.05" y1="300.81" x2="140.05" y2="275.99" xlink:href="#linear-gradient-6"/><linearGradient id="linear-gradient-10" x1="120.39" y1="300.48" x2="120.39" y2="281.67" xlink:href="#linear-gradient-6"/><linearGradient id="linear-gradient-11" x1="124.25" y1="278.82" x2="124.25" y2="253.22" xlink:href="#linear-gradient-6"/><linearGradient id="linear-gradient-12" x1="409.86" y1="1570.18" x2="471.61" y2="1570.18" xlink:href="#linear-gradient-4"/><linearGradient id="linear-gradient-13" x1="181.95" y1="327.03" x2="181.95" y2="284.56" xlink:href="#linear-gradient-6"/><linearGradient id="linear-gradient-14" x1="200.24" y1="320.26" x2="200.24" y2="273.63" xlink:href="#linear-gradient-6"/><linearGradient id="linear-gradient-15" x1="205.14" y1="336.12" x2="205.14" y2="308.96" xlink:href="#linear-gradient-6"/><linearGradient id="linear-gradient-16" x1="195" y1="285.59" x2="195" y2="244.51" xlink:href="#linear-gradient-6"/><linearGradient id="linear-gradient-17" x1="164.62" y1="178.87" x2="164.62" y2="150.04" xlink:href="#linear-gradient-6"/><linearGradient id="linear-gradient-18" x1="160.66" y1="191.31" x2="160.66" y2="172.12" xlink:href="#linear-gradient-6"/><linearGradient id="linear-gradient-19" x1="181.83" y1="200.5" x2="181.83" y2="150.26" xlink:href="#linear-gradient-6"/><linearGradient id="linear-gradient-20" x1="207.41" y1="154.4" x2="207.41" y2="115.53" xlink:href="#linear-gradient-6"/><linearGradient id="linear-gradient-21" x1="183.24" y1="138.72" x2="183.24" y2="106.99" xlink:href="#linear-gradient-6"/><linearGradient id="linear-gradient-22" x1="115.79" y1="238.55" x2="115.79" y2="204.15" xlink:href="#linear-gradient-6"/><linearGradient id="linear-gradient-23" x1="133.84" y1="220.09" x2="133.84" y2="183.18" xlink:href="#linear-gradient-6"/><linearGradient id="linear-gradient-24" x1="118.14" y1="206.97" x2="118.14" y2="178.08" xlink:href="#linear-gradient-6"/><linearGradient id="linear-gradient-25" x1="1041.58" y1="587.2" x2="1041.58" y2="540.84" gradientTransform="matrix(-0.61, -0.79, 0.79, -0.61, 340.36, 1277.07)" xlink:href="#linear-gradient-4"/><linearGradient id="linear-gradient-26" x1="145.33" y1="142.69" x2="145.33" y2="76.45" xlink:href="#linear-gradient-6"/><linearGradient id="linear-gradient-27" x1="132.92" y1="122.22" x2="132.92" y2="78.46" xlink:href="#linear-gradient-6"/><linearGradient id="linear-gradient-28" x1="89.43" y1="53.87" x2="204.8" y2="53.87" xlink:href="#linear-gradient-2"/><linearGradient id="linear-gradient-29" x1="85.06" y1="56.23" x2="156.18" y2="56.23" xlink:href="#linear-gradient-2"/><linearGradient id="linear-gradient-30" x1="112.73" y1="80.2" x2="149.58" y2="80.2" xlink:href="#linear-gradient-2"/><linearGradient id="linear-gradient-31" x1="1063.49" y1="530.78" x2="1063.49" y2="434.88" gradientTransform="matrix(-0.61, -0.79, 0.79, -0.61, 340.36, 1277.07)" xlink:href="#linear-gradient-4"/><linearGradient id="linear-gradient-32" x1="68.28" y1="170.15" x2="68.28" y2="136.54" xlink:href="#linear-gradient-6"/><linearGradient id="linear-gradient-33" x1="50.21" y1="170.07" x2="50.21" y2="150.16" xlink:href="#linear-gradient-6"/><linearGradient id="linear-gradient-34" x1="59.87" y1="149.45" x2="59.87" y2="119.57" xlink:href="#linear-gradient-6"/><linearGradient id="linear-gradient-35" x1="85.68" y1="134.69" x2="85.68" y2="108.44" xlink:href="#linear-gradient-6"/><linearGradient id="linear-gradient-36" x1="1007.75" y1="539.11" x2="1007.75" y2="456.56" gradientTransform="matrix(-0.61, -0.79, 0.79, -0.61, 340.36, 1277.07)" xlink:href="#linear-gradient-4"/><linearGradient id="linear-gradient-37" x1="106.19" y1="208.66" x2="106.19" y2="174.99" xlink:href="#linear-gradient-6"/><linearGradient id="linear-gradient-38" x1="116.3" y1="230.03" x2="116.3" y2="188.32" xlink:href="#linear-gradient-6"/><linearGradient id="linear-gradient-39" x1="118.9" y1="204.92" x2="118.9" y2="159.65" xlink:href="#linear-gradient-6"/><linearGradient id="linear-gradient-40" x1="109.13" y1="162.65" x2="109.13" y2="126.58" xlink:href="#linear-gradient-6"/><linearGradient id="linear-gradient-41" x1="1094.57" y1="368.56" x2="1094.57" y2="316.64" gradientTransform="translate(257.85 1168.53) rotate(-114.84)" xlink:href="#linear-gradient-4"/><linearGradient id="linear-gradient-42" x1="104.22" y1="49.86" x2="104.22" y2="29.48" xlink:href="#linear-gradient-6"/><linearGradient id="linear-gradient-43" x1="1062.71" y1="299.38" x2="1062.71" y2="196.54" gradientTransform="matrix(-0.41, -0.91, 0.91, -0.41, 259.51, 1167.63)" xlink:href="#linear-gradient-4"/><linearGradient id="linear-gradient-44" x1="26.1" y1="121.31" x2="26.1" y2="105.85" xlink:href="#linear-gradient-6"/><linearGradient id="linear-gradient-45" x1="54.56" y1="93.57" x2="54.56" y2="76.14" xlink:href="#linear-gradient-6"/><radialGradient id="radial-gradient" cx="-661.9" cy="-27.04" r="3.49" gradientTransform="matrix(-0.02, 1, 1.26, 0.02, 91.34, 763.15)" gradientUnits="userSpaceOnUse"><stop offset="0" stop-color="#f7e3c8"/><stop offset="0.31" stop-color="#e4cfa9"/><stop offset="0.43" stop-color="#ddc28c"/><stop offset="0.5" stop-color="#d8b978"/><stop offset="0.61" stop-color="#d6b676"/><stop offset="0.68" stop-color="#cfad6f"/><stop offset="0.75" stop-color="#c49d64"/><stop offset="0.81" stop-color="#b68955"/><stop offset="0.88" stop-color="#dabc7f"/></radialGradient><radialGradient id="radial-gradient-2" cx="-1022.65" cy="561.93" r="3.49" gradientTransform="matrix(0.65, 0.76, 0.95, -0.82, 222.58, 1334.36)" xlink:href="#radial-gradient"/><radialGradient id="radial-gradient-3" cx="-922.87" cy="271.55" r="3.49" gradientTransform="matrix(0.38, 0.92, 1.16, -0.48, 112.41, 1095.83)" xlink:href="#radial-gradient"/><radialGradient id="radial-gradient-4" cx="-531.67" cy="1388.89" r="3.49" gradientTransform="matrix(0.98, -0.22, -0.27, -1.23, 981.3, 1699.78)" xlink:href="#radial-gradient"/><radialGradient id="radial-gradient-5" cx="-631.93" cy="1551.57" r="3.49" gradientTransform="matrix(1, -0.09, -0.09, -0.91, 858.1, 1480.99)" xlink:href="#radial-gradient"/><radialGradient id="radial-gradient-6" cx="902.84" cy="1264.56" r="2.65" gradientTransform="matrix(-0.04, -1, -1.26, 0.06, 1727.13, 958.22)" xlink:href="#radial-gradient"/><radialGradient id="radial-gradient-7" cx="-805.05" cy="806.53" r="2.65" gradientTransform="matrix(1.06, 0.44, 0.92, -2.21, 197.69, 2271.87)" xlink:href="#radial-gradient"/><radialGradient id="radial-gradient-8" cx="-830.45" cy="492.01" r="2.65" gradientTransform="matrix(0.56, 1.01, 2.09, -1.16, -509.87, 1538.3)" xlink:href="#radial-gradient"/><radialGradient id="radial-gradient-9" cx="-1013.63" cy="625.11" r="2.65" gradientTransform="matrix(0.71, 0.71, 1.4, -1.4, -78.57, 1721.57)" xlink:href="#radial-gradient"/><radialGradient id="radial-gradient-10" cx="1178.43" cy="903.85" r="2.14" gradientTransform="matrix(-0.5, -0.87, -1.09, 0.63, 1669.96, 573.48)" xlink:href="#radial-gradient"/><radialGradient id="radial-gradient-11" cx="1181.95" cy="928.64" r="2.14" gradientTransform="matrix(-0.5, -0.87, -1.09, 0.63, 1669.96, 573.48)" xlink:href="#radial-gradient"/><radialGradient id="radial-gradient-12" cx="451.9" cy="-192.98" r="2.14" gradientTransform="matrix(-0.87, 0.5, 0.63, 1.09, 591.41, 123.31)" xlink:href="#radial-gradient"/><radialGradient id="radial-gradient-13" cx="506.03" cy="-179.51" r="2.14" gradientTransform="matrix(-0.9, 0.43, 0.54, 1.13, 663.03, 105.49)" xlink:href="#radial-gradient"/><radialGradient id="radial-gradient-14" cx="832.67" cy="262.25" r="2.14" gradientTransform="matrix(-0.99, 0.11, 0.24, 2.18, 868.42, -532.74)" xlink:href="#radial-gradient"/><radialGradient id="radial-gradient-15" cx="868.91" cy="267.32" r="2.14" gradientTransform="matrix(-0.99, 0.11, 0.24, 2.18, 868.42, -532.74)" xlink:href="#radial-gradient"/><linearGradient id="linear-gradient-46" x1="-337.69" y1="1487.99" x2="-297.1" y2="1520.55" gradientTransform="matrix(0.62, -0.78, -0.78, -0.62, 1496.89, 1087.27)" xlink:href="#linear-gradient-4"/><linearGradient id="linear-gradient-47" x1="129.55" y1="408.91" x2="129.55" y2="382" xlink:href="#linear-gradient-6"/><linearGradient id="linear-gradient-48" x1="127.23" y1="412.64" x2="127.23" y2="400.54" xlink:href="#linear-gradient-6"/><linearGradient id="linear-gradient-49" x1="118.68" y1="396.52" x2="118.68" y2="379.23" xlink:href="#linear-gradient-6"/><linearGradient id="linear-gradient-50" x1="-502.47" y1="903.27" x2="-502.47" y2="786.76" gradientTransform="matrix(0.99, -0.12, -0.12, -0.99, 754.38, 1275.96)" xlink:href="#linear-gradient-4"/><linearGradient id="linear-gradient-51" x1="144.83" y1="525.14" x2="144.83" y2="490.23" xlink:href="#linear-gradient-6"/><linearGradient id="linear-gradient-52" x1="154.19" y1="541.66" x2="154.19" y2="516.49" xlink:href="#linear-gradient-6"/><linearGradient id="linear-gradient-53" x1="168.33" y1="523.07" x2="168.33" y2="474" xlink:href="#linear-gradient-6"/><linearGradient id="linear-gradient-54" x1="157.32" y1="477.64" x2="157.32" y2="453.18" xlink:href="#linear-gradient-6"/><radialGradient id="radial-gradient-16" cx="-339.69" cy="634.67" r="3.78" gradientTransform="matrix(0.57, 0.82, 1.03, -0.72, -296.97, 806.78)" xlink:href="#radial-gradient"/><radialGradient id="radial-gradient-17" cx="-228.61" cy="888.65" r="3.78" gradientTransform="matrix(0.97, 0.23, 0.29, -1.22, 143.45, 1195.11)" xlink:href="#radial-gradient"/><radialGradient id="radial-gradient-18" cx="-294.62" cy="776.63" r="3.78" gradientTransform="matrix(0.85, 0.53, 0.66, -1.07, -85.73, 1065.16)" xlink:href="#radial-gradient"/><radialGradient id="radial-gradient-19" cx="203.19" cy="985.15" r="3.78" gradientTransform="matrix(0.67, -0.75, -0.94, -0.84, 973.15, 1047.49)" xlink:href="#radial-gradient"/><radialGradient id="radial-gradient-20" cx="160.73" cy="1096.15" r="3.78" gradientTransform="matrix(0.75, -0.66, -0.6, -0.69, 745.2, 941.27)" xlink:href="#radial-gradient"/><radialGradient id="radial-gradient-21" cx="528.55" cy="617.16" r="2.87" gradientTransform="matrix(-0.62, -0.79, -0.99, 0.78, 1143.96, 9.47)" xlink:href="#radial-gradient"/><radialGradient id="radial-gradient-22" cx="-26.99" cy="809.44" r="2.87" gradientTransform="matrix(1.12, -0.26, -0.54, -2.33, 670.78, 1970.05)" xlink:href="#radial-gradient"/><radialGradient id="radial-gradient-23" cx="-224.71" cy="725.62" r="2.87" gradientTransform="matrix(1.04, 0.49, 1.02, -2.16, -332.52, 1787.77)" xlink:href="#radial-gradient"/><radialGradient id="radial-gradient-24" cx="-188.28" cy="800.75" r="2.87" gradientTransform="matrix(0.99, 0.16, 0.32, -1.95, 123.69, 1684.39)" xlink:href="#radial-gradient"/><radialGradient id="radial-gradient-25" cx="472.63" cy="466.14" r="2.32" gradientTransform="matrix(-0.91, -0.41, -0.52, 1.15, 873.24, -269.24)" xlink:href="#radial-gradient"/><radialGradient id="radial-gradient-26" cx="476.44" cy="493" r="2.32" gradientTransform="matrix(-0.91, -0.41, -0.52, 1.15, 873.24, -269.24)" xlink:href="#radial-gradient"/><radialGradient id="radial-gradient-27" cx="-97.47" cy="368.78" r="2.32" gradientTransform="matrix(-0.41, 0.91, 1.15, 0.52, -265.5, -3.76)" xlink:href="#radial-gradient"/><radialGradient id="radial-gradient-28" cx="-97.77" cy="347.27" r="2.32" gradientTransform="matrix(-0.48, 0.88, 1.1, 0.6, -217.37, -59.77)" xlink:href="#radial-gradient"/><radialGradient id="radial-gradient-29" cx="44.16" cy="457.06" r="2.32" gradientTransform="matrix(-0.74, 0.67, 1.47, 1.63, -424.19, -697.58)" xlink:href="#radial-gradient"/><radialGradient id="radial-gradient-30" cx="83.43" cy="462.55" r="2.32" gradientTransform="matrix(-0.74, 0.67, 1.47, 1.63, -424.19, -697.58)" xlink:href="#radial-gradient"/><linearGradient id="linear-gradient-55" x1="913.99" y1="341.59" x2="918.07" y2="295.57" gradientTransform="translate(-602.12 915.98) rotate(-50.11)" gradientUnits="userSpaceOnUse"><stop offset="0" stop-color="#f7e3c8"/><stop offset="0.31" stop-color="#e4cfa9"/><stop offset="0.43" stop-color="#ddc28c"/><stop offset="0.5" stop-color="#d8b978"/><stop offset="0.61" stop-color="#d6b676"/><stop offset="0.68" stop-color="#cfad6f"/><stop offset="0.75" stop-color="#c49d64"/><stop offset="0.81" stop-color="#b68955"/></linearGradient><linearGradient id="linear-gradient-56" x1="900.48" y1="314.71" x2="932.04" y2="314.71" xlink:href="#linear-gradient-55"/><linearGradient id="linear-gradient-57" x1="911.41" y1="325.13" x2="920.01" y2="325.13" xlink:href="#linear-gradient-55"/><linearGradient id="linear-gradient-58" x1="972.11" y1="293.41" x2="916.06" y2="293.41" xlink:href="#linear-gradient-55"/><linearGradient id="linear-gradient-59" x1="899.52" y1="282.97" x2="956.8" y2="282.97" xlink:href="#linear-gradient-55"/><linearGradient id="linear-gradient-60" x1="900.21" y1="234.71" x2="926.56" y2="284.08" xlink:href="#linear-gradient-55"/><linearGradient id="linear-gradient-61" x1="914.94" y1="291.22" x2="949.7" y2="291.22" xlink:href="#linear-gradient-55"/><linearGradient id="linear-gradient-62" x1="924.17" y1="305.93" x2="946.48" y2="305.93" xlink:href="#linear-gradient-55"/><linearGradient id="linear-gradient-63" x1="904.28" y1="272.32" x2="921.05" y2="272.32" xlink:href="#linear-gradient-55"/><linearGradient id="linear-gradient-64" x1="905.42" y1="266.11" x2="909.04" y2="266.11" xlink:href="#linear-gradient-55"/><linearGradient id="linear-gradient-65" x1="891.7" y1="264.03" x2="902.87" y2="264.03" xlink:href="#linear-gradient-55"/><linearGradient id="linear-gradient-66" x1="846.79" y1="287.49" x2="901.73" y2="267.81" xlink:href="#linear-gradient-55"/><linearGradient id="linear-gradient-67" x1="846.08" y1="287.1" x2="905.91" y2="287.1" xlink:href="#linear-gradient-55"/><linearGradient id="linear-gradient-68" x1="842.59" y1="323.17" x2="906" y2="323.17" xlink:href="#linear-gradient-55"/><linearGradient id="linear-gradient-69" x1="862.31" y1="280.35" x2="885.57" y2="280.35" xlink:href="#linear-gradient-55"/><linearGradient id="linear-gradient-70" x1="875.02" y1="267.95" x2="885.91" y2="267.95" xlink:href="#linear-gradient-55"/><linearGradient id="linear-gradient-71" x1="863.59" y1="308.48" x2="896.71" y2="308.48" xlink:href="#linear-gradient-55"/><linearGradient id="linear-gradient-72" x1="873.35" y1="317.08" x2="889.98" y2="317.08" xlink:href="#linear-gradient-55"/><linearGradient id="linear-gradient-73" x1="878.47" y1="324.26" x2="898.29" y2="324.26" xlink:href="#linear-gradient-55"/><linearGradient id="linear-gradient-74" x1="912.19" y1="330.04" x2="915.03" y2="330.04" xlink:href="#linear-gradient-55"/><linearGradient id="linear-gradient-75" x1="878.19" y1="250.03" x2="945.48" y2="250.03" xlink:href="#linear-gradient-55"/></defs><title>Asset 2</title><g class="cls-1"><g id="Layer_2" data-name="Layer 2"><g id="PRINT"><path class="cls-2" d="M229.91,21.72c-2.65,9.64-4.7,19.13-8.38,28.5-3.5,8.9-7.83,17.46-12,26.07-3.51,7.29-7.27,14.48-10.5,21.91-1.47,3.37-2.5,7.29-3.65,10.31-4,10.39-9,20.27-12.67,30.84-6.59,19.25-11.11,39.42-12,59.78-.33,8,.5,16,1,24,.66,10.31,1.57,21.14,5,30.94a1.17,1.17,0,0,0,2.25-.62c-3.1-16.37-5.16-32.52-4.63-49.18a207.39,207.39,0,0,1,11.49-60.57c3.84-11.27,8.8-21.78,13.92-32.47,1.45-3,2.18-6.3,3.68-9.35,3.3-6.69,7.27-13.06,11-19.53a218.14,218.14,0,0,0,13.91-28.7c3.72-9.54,7.58-20.87,6.76-31.26-.23-2.9-4.43-3.78-5.27-.71Z"/><path class="cls-3" d="M190.88,123.11c-5.94,3.76-10.88,10-16.19,14.6-6.07,5.31-12.21,10.54-18.08,16.07-9.42,8.89-20.43,20.37-24.61,32.9a1,1,0,0,0,1.79.76c3.72-6.5,7-12.87,11.74-18.73a141.16,141.16,0,0,1,14.67-14.88c5.32-4.89,10.87-9.53,16.24-14.37,5.1-4.58,11.9-9.53,15.11-15.67.22-.42-.24-1-.67-.68Z"/><path class="cls-4" d="M144.46,258.86c2.49-5.29,4.66-10.46,7.74-15.47,3.41-5.54,7.24-10.72,11-16,7.62-10.54,13.16-22.34,11.86-35.64-.09-.89-1.5-1.26-1.7-.23-2.57,13-8.12,25-14.55,36.47-5.3,9.47-14,19.29-15.71,30.3-.11.74,1,1.37,1.32.56Z"/><path class="cls-5" d="M204.29,95.38c10.79,17.85,14.41,51.72-3.35,73.15-12.13,14.64-29.83,32.44-39.82,42.24a6.38,6.38,0,0,1-10.7-3.19c-3.5-15.36-6.47-45,12.34-72.61C189.67,95.51,204.29,95.38,204.29,95.38Z"/><g class="cls-6"><path class="cls-7" d="M152.56,205.43a139,139,0,0,1,18.58-26.53,307.82,307.82,0,0,0,19.71-24.44,78.8,78.8,0,0,0,12.51-27.92c2.21-9.49,3.82-20.93,1.12-30.47a.37.37,0,0,0-.73.1c.15,11.09.53,21.44-2.19,32.37a75.21,75.21,0,0,1-15.43,29.91c-12.1,14.79-29.94,26.84-35,46.36a.81.81,0,0,0,1.47.62Z"/></g><path class="cls-8" d="M175.47,242.11s-17.49,28.06-10.6,59c7.1,32,40.86,48.57,47,51.57,0,0,16.37-21.06,4.31-65.14C205.46,248.38,175.47,242.11,175.47,242.11Z"/><g class="cls-9"><path class="cls-10" d="M205.74,344.66c-1.51-9.21-5.86-19-9.36-27.62-.76-1.87-3.74-1.18-3.11.85,2.83,9.06,5.68,19.4,10.47,27.61a1.1,1.1,0,0,0,2-.84Z"/></g><path class="cls-11" d="M149.34,245.06c4.9,13,10.26,21.41,6.36,42.49-3.36,18.21-23,29.45-35,27.56,0,0-20.66-25.91-9-43.79C127.78,246.58,149.34,245.06,149.34,245.06Z"/><g class="cls-9"><path class="cls-12" d="M147.67,258.76c1,12.5,3.36,24.07-.83,36.31-.22.64.73,1,1.06.45,6.45-11,4.58-25.27,1-36.93-.19-.65-1.29-.57-1.23.17Z"/></g><g class="cls-9"><path class="cls-13" d="M138.14,276.26a116.17,116.17,0,0,1,1.07,24.51.79.79,0,0,0,1.55.21,46.68,46.68,0,0,0-1.14-25.13.77.77,0,0,0-1.48.41Z"/></g><g class="cls-9"><path class="cls-14" d="M127.17,281.33a41.7,41.7,0,0,0-14.38,18.75c-.46,1.2,1.51,2,2.09.88a78.61,78.61,0,0,1,13-18.67c.46-.48-.16-1.39-.73-1Z"/></g><g class="cls-9"><path class="cls-15" d="M135.06,252.7a40.39,40.39,0,0,0-22.86,25.73c-.35,1.21,1.52,2.07,2.08.88a59.74,59.74,0,0,1,21.65-25.12.86.86,0,0,0-.87-1.49Z"/></g><path class="cls-16" d="M141.84,171.45c2.13,9.73,2.42,34.88-9.32,50.49-14.1,18.76-33.43,21.93-46.12,22.65a4.43,4.43,0,0,1-3.71-7.18c5.71-7.27,13.91-18.74,18.46-29.81C116.77,169.57,141.84,171.45,141.84,171.45Z"/><g class="cls-6"><path class="cls-7" d="M174.52,243.53A190.3,190.3,0,0,0,186.93,295c3,7.72,7,14.93,10.94,22.22a121.24,121.24,0,0,1,10.5,25,.39.39,0,0,0,.77-.11c.25-17-14.36-30.87-20.33-45.87-6.81-17.09-7.52-35.3-11.65-53-.34-1.45-2.77-1.18-2.64.35Z"/><path class="cls-7" d="M182.74,282.28c.88,8.28,2.57,16.51,4,24.71s2.7,16.34,5.8,24c.25.61,1.23.37,1-.28-5.34-15.8-6.24-32.36-9.89-48.54-.11-.48-.94-.39-.88.12Z"/><path class="cls-7" d="M207.44,294c-6.4-7.1-13.86-14.11-18.62-22.45-2.13-3.75-3.81-7.71-5.73-11.57s-4.14-7.64-5.35-11.89c-.25-.88-1.78-.75-1.65.22.49,3.67,2.2,6.84,3.91,10.08,2.31,4.42,4.25,9,6.68,13.38,5.14,9.23,12.82,15.51,20.52,22.47a.17.17,0,0,0,.24-.24Z"/><path class="cls-7" d="M177.72,256.76c-1.18,8.87-1.71,17.78-3.1,26.66-1.24,7.86-2.28,15.73-1.74,23.7a.23.23,0,0,0,.45,0c.8-9.31,2.75-18.37,4.28-27.57,1.22-7.34,2.9-15.58,1.32-22.95-.16-.74-1.12-.47-1.21.16Z"/><path class="cls-7" d="M210.84,320.4c-5.54-6.56-11.47-12.72-17.19-19.11-5.92-6.62-8.45-13.83-10.05-22.42-.15-.84-1.38-.58-1.43.2-1.12,17.74,16.45,31.15,28.06,41.93a.43.43,0,0,0,.61-.6Z"/></g><g class="cls-6"><path class="cls-7" d="M149,244.78c-4,.16-6.19,5.68-7.58,8.87-2.37,5.42-4.67,10.84-6.71,16.39-5,13.59-10.79,27.78-13,42.15-.07.49.65.71.76.21,3.13-14.17,8.73-27.44,15-40.44,2.48-5.1,4.91-10.2,7.16-15.4a33.7,33.7,0,0,1,2.54-5.32c1.35-2.06,3.41-3.38,2.41-6a.72.72,0,0,0-.67-.5Z"/><path class="cls-7" d="M144.91,250c-3.32,2.63-5.73,6.49-8.53,9.67s-5.52,6-8.22,9c-5.25,5.94-10.76,11.75-14.57,18.77a.91.91,0,0,0,1.58.92,179,179,0,0,1,17.15-20.14c4.72-4.93,11.58-11,13.59-17.68.19-.63-.57-.93-1-.58Z"/><path class="cls-7" d="M143.31,252.37c-1.92,4.85-1,10.45.14,15.41,1.55,6.56,3.52,12.71,3.5,19.54,0,.49.79.63.88.12.93-5.24,0-10.36-1.07-15.51-1.35-6.6-2.25-12.59-1.76-19.34.08-1-1.36-1.05-1.69-.22Z"/><path class="cls-7" d="M136.3,271.13c-2.46,5.16-3,10.31-2.86,16,.19,6.62.29,13.16.31,19.77a.51.51,0,0,0,1,.14c1.51-5.18.94-11.13.77-16.46-.21-6.42-.19-12.89,1.54-19.11.13-.44-.54-.75-.75-.32Z"/><path class="cls-7" d="M129.86,285.29a143.26,143.26,0,0,0-10,15.18c-.28.48.41,1.06.79.61a68.42,68.42,0,0,0,9.95-15.38.41.41,0,0,0-.71-.41Z"/></g><g class="cls-6"><path class="cls-7" d="M136.13,177.24c-4,5-7,10.94-10.38,16.36-3.8,6.07-7.71,12.07-11.64,18.06-7.51,11.41-15.65,21.54-26.8,29.56-.61.44-.07,1.43.61,1,10.8-6.39,18.87-16.74,25.9-26.92,4.16-6,8-12.22,11.86-18.44s8.37-12.5,11.14-19.26c.15-.38-.44-.72-.69-.4Z"/><path class="cls-7" d="M141.05,171.6c-5,3.91-7.84,11.15-9.82,17-2.79,8.31-1.83,17.5-2.71,26.14-.06.62.85.66,1,.14,2.76-8,.54-16.57,3-24.59a71.16,71.16,0,0,1,9-18.36c.2-.31-.23-.55-.47-.36Z"/><path class="cls-7" d="M126.33,192.49a115.76,115.76,0,0,1-25.12,22.56.49.49,0,0,0,.49.84,57.36,57.36,0,0,0,13.84-10.19c4-3.86,8.52-7.95,11.2-12.89.13-.25-.22-.56-.41-.32Z"/><path class="cls-7" d="M120.22,204.46c-3.11,4.34-4.56,9.25-6.23,14.27a70.81,70.81,0,0,1-8.31,16.62c-.25.38.3.78.61.47,8.65-8.55,9.91-20.26,14.64-30.95a.41.41,0,0,0-.71-.41Z"/><path class="cls-7" d="M115.38,211.34c-3.23,3.18-6.12,6.63-9.52,9.65s-7.17,5.46-10.53,8.45c-.37.33.11.82.5.64,7.79-3.42,16-10.81,20.93-17.67.59-.83-.69-1.75-1.38-1.07Z"/></g><g class="cls-6"><path class="cls-7" d="M204.35,107.21c-2.32,5.12-3.45,10.44-6.78,15.12a64.54,64.54,0,0,1-14.35,14c-8.84,6.56-20.08,12.09-26.48,21.31-.47.67.52,1.32,1.08.83,5.47-4.79,10.61-9.71,16.42-14.15,4.65-3.54,9.41-7,13.85-10.79,6.94-6,17.45-16.14,16.74-26.21,0-.24-.37-.39-.48-.14Z"/></g><g class="cls-6"><path class="cls-7" d="M202.47,123.35c.29,16.33-.9,32.08-10.45,45.82-.36.52.46,1.15.88.68,11.17-12.66,12.25-30.57,10.21-46.5-.05-.39-.64-.42-.64,0Z"/></g><g class="cls-6"><path class="cls-7" d="M179,166.45c-6.72,6.43-8.48,17.47-12,25.73-.16.39.32.9.65.5,2.69-3.29,3.9-7.1,5.38-11,1.91-5,5.07-9.7,6.69-14.79a.44.44,0,0,0-.72-.42Z"/></g><g class="cls-6"><path class="cls-7" d="M202.84,125.45c-6.33,9.15-11.74,18.59-19.32,26.88s-16.2,14.73-25.06,21.57c-.68.52-.1,1.65.69,1.19,9.7-5.63,18.46-14.08,25.85-22.43,7.1-8,14.32-17,18.32-27,.11-.29-.32-.43-.48-.2Z"/></g><g class="cls-9"><path class="cls-17" d="M186,326.72c-2.18-7.17-4.31-14-5.1-21.53-.72-6.87-.52-13.71-.78-20.6,0-.53-.84-.69-1-.13-3,13.57-.09,30.25,5.32,42.91.37.88,1.81.25,1.53-.65Z"/></g><g class="cls-9"><path class="cls-18" d="M216.69,320c-1.72-8.46-9.53-13.32-15.33-19-7.73-7.57-12.44-17.33-15.15-27.69-.34-1.32-2.55-1.09-2.43.33A45.46,45.46,0,0,0,194,298.44c6.42,7.94,17.41,12.2,21.45,21.93a.65.65,0,0,0,1.26-.34Z"/></g><g class="cls-9"><path class="cls-19" d="M215.39,335.83c-1.72-5.34-5.67-10.32-8.89-14.84-3.08-4.31-6.2-9.34-10.59-12.46-.7-.5-1.4.55-.88,1.13a153.82,153.82,0,0,1,10.3,13.41c3,4.27,6.4,8.59,8.7,13.34.37.76,1.62.22,1.36-.58Z"/></g><g class="cls-9"><path class="cls-20" d="M211.39,285.24c-2-3.26-5.27-5.79-7.9-8.53-3-3.17-6.15-6.36-8.93-9.76a148.86,148.86,0,0,1-15-22.64c-.32-.58-1.14-.17-1,.43,1.62,8.3,6.52,16.37,12.2,22.52,3.18,3.44,6.37,6.83,9.84,10,3.19,2.9,6.45,6.54,10.33,8.45a.33.33,0,0,0,.45-.45Z"/></g><g class="cls-9"><path class="cls-21" d="M179.16,149.48c-7.23,3.55-14.27,8.9-20.44,14.11-4.54,3.83-9.46,9-10,15.21-.08,1,1.28,1.21,1.74.47,3.58-5.77,6.94-10.47,12.3-14.79,5.73-4.63,12.25-8.36,17.45-13.61a.89.89,0,0,0-1.07-1.39Z"/></g><g class="cls-9"><path class="cls-22" d="M169.11,171.49c-7.6,3.63-15.72,11.24-18.38,19.41-.33,1,1.19,2,1.91,1.11,2.71-3.42,4.89-7.16,7.84-10.41a74.74,74.74,0,0,1,9.81-8.57c.94-.72-.25-2-1.18-1.54Z"/></g><g class="cls-9"><path class="cls-23" d="M193,150.11c-5.89,17.67-20.24,31.37-23.81,50.08-.17.9,1.12,1.6,1.58.66,5-10.24,9.23-20.49,15.09-30.3,3.83-6.43,7.74-12.66,8.56-20.24.09-.85-1.17-.93-1.42-.2Z"/></g><g class="cls-9"><path class="cls-24" d="M206.43,115.59c.39,6.31,1.52,12.37,1.2,18.74-.34,6.83-1.92,13.26-3.8,19.8a.66.66,0,0,0,1.2.5c5.79-11.07,8.27-27.47,3.37-39.31-.4-.94-2.05-1-2,.27Z"/></g><g class="cls-9"><path class="cls-25" d="M198,106.69c-5.13,5.1-9.51,10.91-14.56,16.09s-10.35,10.13-15.74,15c-.87.78.3,2.35,1.28,1.65,11.45-8.24,23.42-19.34,30-32a.64.64,0,0,0-1-.77Z"/></g><g class="cls-9"><path class="cls-26" d="M122,204.16c-.41,12-7.57,24.19-14.22,33.83-.5.74.65,1.63,1.25,1,7.69-8.64,15.75-22.84,14.93-34.79a1,1,0,0,0-2,0Z"/></g><g class="cls-9"><path class="cls-27" d="M135.19,183.19a284.44,284.44,0,0,1-4.62,36.67.63.63,0,0,0,1.22.33,83.57,83.57,0,0,0,4.94-37,.77.77,0,0,0-1.54,0Z"/></g><g class="cls-9"><path class="cls-28" d="M133.2,177.6c-5.78,4.31-11.23,9-16.63,13.8-5.09,4.51-11.06,9.08-14.54,15-.37.64.43,1.59,1.09,1.09,5.27-4,9.77-9.14,14.74-13.54,5.56-4.92,11.12-9.81,16.28-15.15.58-.6-.21-1.75-.94-1.21Z"/></g><path class="cls-29" d="M165.4,151.69c-6.06-21.08-37.35-79-29.06-93.5,0,0-16.43,20.68-7.18,57.43S165.4,151.69,165.4,151.69Z"/><g class="cls-6"><path class="cls-7" d="M149.4,138c-7.71-10.57-10.16-22-11.74-34.76-.87-7-1.43-14-1.85-21-.45-7.38-.24-14.68-.49-22.06a.28.28,0,0,0-.55,0,166.91,166.91,0,0,0-.51,24c.31,7.81.66,15.74,1.65,23.5,1.38,10.87,3.77,23.68,13,30.78.27.21.78-.06.53-.4Z"/></g><g class="cls-9"><path class="cls-30" d="M156.73,142.64c.28-4.68-2.62-9-4.94-12.9-3.27-5.42-5.93-10.67-7.27-16.91-2.65-12.26-4.94-24.54-8.15-36.69a1.26,1.26,0,0,0-2.46.33c-.11,6.22,2,12.21,3.5,18.17s2.05,12.24,3.24,18.36a45.38,45.38,0,0,0,5.76,15.31c3,4.91,5.57,9.83,8.32,14.87a1.08,1.08,0,0,0,2-.54Z"/></g><g class="cls-9"><path class="cls-31" d="M137.29,122c-2-7.24-3.91-14.71-4.64-22.19-.7-7.17.22-14.13.54-21.28.07-1.54-2.19-1.75-2.62-.35-4.3,13.9-1.49,31.83,5.81,44.2a.5.5,0,0,0,.91-.38Z"/></g><path class="cls-32" d="M90.67,107.25c7.92-9.88,14.9-20.21,23.62-29.49a359.54,359.54,0,0,1,29.28-27.55c19.94-17,41.55-31.81,61.89-48.28,1-.79-.31-2.47-1.36-1.76a758.38,758.38,0,0,0-62.82,47.74A354.73,354.73,0,0,0,112,75.45c-8.46,9-17.89,19-23.64,30-.74,1.41,1.22,3.18,2.33,1.8Z"/><path class="cls-33" d="M155.74,35.54c-10.1,9.4-22,16.37-34.47,22.15C109.08,63.34,96,67.84,84.69,75.25a1,1,0,0,0,1,1.67c12.63-6.2,25.51-11.79,38.23-17.8,12.18-5.76,23.85-12.38,32.39-23,.3-.39-.18-.9-.55-.55Z"/><path class="cls-34" d="M149.2,43.38c-11,9.07-19.53,20.63-25.91,33.39-5.91,11.82-11.48,26.07-11.2,39.48a.86.86,0,0,0,1.69.23c3.51-13.5,5.75-26.49,12-39.16C131.93,65,140.33,54,149.65,43.84a.32.32,0,0,0-.45-.46Z"/><path class="cls-35" d="M95.52,97.62c-6.47,17.13-1.62,28.9-10.42,48.79-13.36,30.18-39.7,43-39.7,43S32.84,151.32,50,127.49,95.52,97.62,95.52,97.62Z"/><g class="cls-6"><path class="cls-7" d="M50,180.66c4.62-14.59,9.85-28.91,17.21-42.38,3.49-6.38,7.17-12.69,11.18-18.75,4.15-6.26,9.65-11.67,13.59-18,.31-.51-.35-1.25-.86-.86-5.69,4.27-10.16,10.89-14.46,16.48a133.1,133.1,0,0,0-12.5,19.35c-7.21,13.72-12.83,28.5-15.28,43.86a.58.58,0,0,0,1.12.31Z"/><path class="cls-7" d="M44.13,157.18c11.55-12,23.55-24.37,33.64-37.62.43-.57-.48-1.22-1-.74C65,130.49,54.26,144,43.87,156.92c-.14.18.1.44.26.26Z"/><path class="cls-7" d="M48.77,140.44a117.29,117.29,0,0,1,19.06-19.19c3.92-3.17,8-6.21,12.06-9.16,3.24-2.33,7-4.36,9.75-7.25.51-.53-.14-1.22-.75-1-4.32,1.86-8.25,5.3-12,8.06-3.52,2.57-7,5.2-10.3,8A98.84,98.84,0,0,0,48.24,140c-.21.31.29.71.53.4Z"/><path class="cls-7" d="M59.12,172.79c2.85-5.95,4-12.66,4.42-19.2.28-4,.38-7.88,1.59-11.72,1.08-3.44,3-6.5,4.14-9.92.15-.45-.53-.89-.85-.49a32.44,32.44,0,0,0-6.36,16c-1,8.48-2.12,16.55-3.84,24.93-.1.51.64.91.9.38Z"/><path class="cls-7" d="M74.66,158.32c3.41-7.68,3.52-15.67,3.59-23.94.09-9.45,1.36-17.71,6.58-25.76.33-.5-.38-1-.79-.61-13.1,12.1-4.61,34.93-10,50.05-.12.35.46.61.62.26Z"/></g><g class="cls-9"><path class="cls-36" d="M65.81,170.38A166.28,166.28,0,0,0,70.59,153c1.14-5.26,2.68-11,2.38-16.41a1.44,1.44,0,0,0-2.82-.38C68.33,141.48,68,147.47,67,153s-2.21,11.21-3.37,16.8a1.15,1.15,0,0,0,2.22.61Z"/></g><g class="cls-9"><path class="cls-37" d="M46.52,170.28c1.53-3.66,3.2-7.31,5.07-10.81,1.54-2.88,3.55-5.67,4.44-8.84a1.22,1.22,0,0,0-2-1.17c-5.31,4.56-7.94,13.68-9.62,20.23-.36,1.42,1.59,1.85,2.13.59Z"/></g><g class="cls-9"><path class="cls-38" d="M47.37,150.29c8.75-10.25,19.22-19.32,27.34-30,.57-.75-.52-1.7-1.25-1.25C62,126,53,137.84,45.1,148.55c-1,1.3,1.21,3,2.27,1.74Z"/></g><g class="cls-9"><path class="cls-39" d="M85.29,134.69c.75-8.57,2.94-17.63,2.33-26.21a1,1,0,0,0-2-.27c-2.9,8.2-2,18-1.43,26.48a.53.53,0,0,0,1.05,0Z"/></g><path class="cls-40" d="M112.49,105.86c4.87,15.45,21.11,56.63,19.51,79.31-1.23,17.48-8.6,45.65-11.92,57.65a2.8,2.8,0,0,1-5,.77c-6.1-9.33-18.42-30.68-20.58-54C91.56,158.28,112.49,105.86,112.49,105.86Z"/><g class="cls-6"><path class="cls-7" d="M114.77,236.09c.5-8.94-1.62-17.78-3.27-26.5-1.93-10.23-1.77-20.05-1.09-30.39.68-10.18,1.51-20.34,2.35-30.5.86-10.47,2.39-21,2.45-31.49,0-.72-1.17-.92-1.3-.17-1.65,9.79-2,19.8-2.88,29.69-1,10.5-1.91,21-3,31.49-1,9.68-1.73,19,.16,28.61,1.94,9.88,5.55,19.13,6.28,29.26a.17.17,0,0,0,.34,0Z"/><path class="cls-7" d="M118.44,205a76.44,76.44,0,0,0-3.6-17.51c-2.18-6.83-4.88-12.75-4.12-20.09,0-.45-.63-.49-.75-.1-1.88,5.69.84,11.55,2.61,16.93,2.24,6.82,3.65,13.86,5.2,20.86.08.36.69.29.66-.09Z"/><path class="cls-7" d="M123.68,189.36c-1.27-22.09-10.44-42.64-8.68-65,.07-.85-1.37-1.06-1.51-.2-1.63,10.25-.06,21.13,2.08,31.22,2.41,11.37,5.12,22.69,7.65,34a.24.24,0,0,0,.46-.06Z"/><path class="cls-7" d="M101.33,182.75c1.29-6.21,4-11.87,6.61-17.63,1.94-4.37,4.35-9,4.61-13.85a.71.71,0,0,0-1.31-.35c-2.41,5-4.09,10.55-6.1,15.74a55.57,55.57,0,0,0-4,16.06.09.09,0,0,0,.18,0Z"/></g><g class="cls-9"><path class="cls-41" d="M106.2,208.64c.44-5.61.3-11.24.69-16.86s1.88-11.22,1.64-16.74a1,1,0,0,0-1.91-.26c-2.12,5.06-2.27,11.56-2.57,17a71.68,71.68,0,0,0,.61,17.07c.17.92,1.48.62,1.54-.21Z"/></g><g class="cls-9"><path class="cls-42" d="M119.1,230a130.66,130.66,0,0,0-.2-22.81c-.59-6.41-.86-13.51-3.54-19.44-.53-1.16-2.12-.45-2.2.59-.48,6.83,1.48,14,2.17,20.75.71,7,1.3,13.94,2,20.91a.89.89,0,0,0,1.78,0Z"/></g><g class="cls-9"><path class="cls-43" d="M125,204.85c-.66-7.41-2.64-14.83-4.28-22.07-1.74-7.73-3.11-16-6.16-23.31-.36-.87-1.87-.89-1.8.24.44,7.44,2.65,14.84,4.31,22.07,1.77,7.75,3.34,15.88,6.18,23.31.33.86,1.85.84,1.75-.24Z"/></g><g class="cls-9"><path class="cls-44" d="M104,163a94.64,94.64,0,0,0,7.57-17.62c1.93-6,4.2-12.41,4.33-18.73,0-1.57-2.06-1.64-2.57-.34-2.3,5.79-3.21,12.19-5.06,18.16s-4,11.88-5.89,17.85A.89.89,0,0,0,104,163Z"/></g><path class="cls-45" d="M144.67,46.48C136,45.91,97,32.63,75.79,14.92c0,0-2,21.77,29.26,35.35C124.09,58.53,144.67,46.48,144.67,46.48Z"/><g class="cls-6"><path class="cls-7" d="M140.18,47.06c-11.33-3.09-22.9-4.93-33.81-9.48A79.21,79.21,0,0,1,93,30.51c-4.69-3.12-8.38-7.08-12.65-10.67-.5-.42-1.36.12-1,.74C84.89,29.14,95.74,35,104.83,38.89a110.38,110.38,0,0,0,35.3,8.56.2.2,0,0,0,.05-.39Z"/></g><g class="cls-9"><path class="cls-46" d="M126.53,49.2c-2.84-2.12-6.85-1.7-10.28-2.42a67,67,0,0,1-13.2-4.08,60.83,60.83,0,0,1-10.71-6c-3.35-2.35-6.13-5.55-9.67-7.59a.66.66,0,0,0-.89.9c3.67,7.21,13.67,12.43,20.76,15.57a62.91,62.91,0,0,0,12.88,4.24c3.47.71,8,2,11.11.16a.45.45,0,0,0,0-.77Z"/></g><path class="cls-47" d="M91.33,72.11c-22,.91-42.13,4.81-57.91,16.25-9.71,7-12.58,19.53-33.42,31.36,0,0,24.05,11,55-12.09S91.33,72.11,91.33,72.11Z"/><g class="cls-6"><path class="cls-7" d="M86.14,75.15c-7,2.06-14.07,4.39-20.86,6.88a107.26,107.26,0,0,0-18.57,8.72c-12.07,7.3-20.49,18.9-32.69,26.1-.17.1-.06.41.14.34,5.54-1.92,10-5.92,14.47-9.61A148.78,148.78,0,0,1,46.1,94.68c6-3.66,12.15-7,18.47-10,7.14-3.45,14.32-6.29,21.61-9.36.11,0,.07-.21,0-.17Z"/><path class="cls-7" d="M35.48,112.78c4.87-5.2,9.4-10.7,14.34-15.83,5.15-5.36,11.08-9.19,17-13.59a.49.49,0,0,0-.38-.89c-6.76,1.6-12.15,7.1-16.67,12.08-5.17,5.71-10,11.8-14.71,17.9-.19.25.22.56.43.33Z"/><path class="cls-7" d="M25.29,104.41a116.68,116.68,0,0,1,11.32-6.9c4-2,8.26-3.23,12.2-5.23.77-.4.2-1.45-.56-1.32-8.38,1.47-17.09,7.41-23.2,13.13-.16.15.05.44.24.32Z"/><path class="cls-7" d="M59.83,98.61c4.33-3.56,7-7.76,10.39-12.11a25.2,25.2,0,0,1,7.3-6.45c2.37-1.38,4.62-2.38,6.55-4.36a.46.46,0,0,0-.44-.77c-5.17,1.75-10.15,4.21-13.72,8.44C66,88,63.7,93.91,59.42,98.2c-.27.27.13.64.41.41Z"/></g><g class="cls-9"><path class="cls-48" d="M16.89,121.81A55.26,55.26,0,0,0,36.23,107a1.39,1.39,0,0,0-2-2A214.32,214.32,0,0,1,16,120.32a.86.86,0,0,0,.87,1.49Z"/></g><g class="cls-9"><path class="cls-49" d="M32.23,94.24c13.7-8.8,29.28-12.4,44.91-16.09,2.28-.53,1.3-3.93-1-3.48-16,3.17-32.56,7.08-45.19,18-.88.76.27,2.23,1.24,1.61Z"/></g><path class="cls-50" d="M70,131.6a96.11,96.11,0,0,1,19.41-17.09c5.68-3.72,11.47-7.17,16.71-11.5,9.67-8,22.27-20.54,22.87-33.87a1,1,0,0,0-2-.26c-3.3,14.35-14,26.63-25.28,35.68-5.67,4.56-12.11,8-17.89,12.38a87.19,87.19,0,0,0-14.59,13.95c-.4.49.28,1.2.72.71Z"/><path class="cls-50" d="M108.12,99.53c-4.86,7.6-5.37,19.75-4.33,28.4,0,.23.37.25.36,0-.36-9.45.19-19.51,4.42-28.14a.26.26,0,0,0-.45-.26Z"/><path class="cls-50" d="M105.58,105.87a18.37,18.37,0,0,0,2.48,13.33c.19.26.66.11.55-.23-.64-2-1.49-3.92-2-6a57.68,57.68,0,0,1-.92-7.07c0-.08-.13-.12-.15,0Z"/><path class="cls-50" d="M82.84,108.22c7.44,3.34,18,1.58,23-5.39.32-.45-.32-1.09-.78-.77a48.76,48.76,0,0,1-8.63,5.06c-4.55,1.94-8.63.76-13.34.39a.39.39,0,0,0-.2.71Z"/><path class="cls-50" d="M97.77,106.5c-6,2.78-9.54,13-7.59,19.12a.47.47,0,0,0,.92-.13c.31-3.65.28-7,1.78-10.44,1.35-3.09,3.65-5.22,5.49-7.94.27-.4-.24-.77-.6-.61Z"/><path class="cls-50" d="M58.5,131.16c4.43-1.37,10.93,1.1,14.46-2.74.36-.4-.1-1.07-.59-.77-4.47,2.77-9.68.27-14.1,3a.3.3,0,0,0,.23.55Z"/><path class="cls-50" d="M73.11,126.79c-3.18,4-4.36,10.22-4.31,15.21,0,.34.56.44.62.08a72,72,0,0,1,1.51-7.69c.69-2.52,1.87-4.89,2.5-7.41,0-.17-.19-.34-.32-.19Z"/><path class="cls-50" d="M71.87,128.77c-.36,3.9,4,6.26,6.35,8.69.27.28.67-.08.52-.4-1.52-3.25-5.43-4.55-6-8.41-.08-.54-.85-.35-.9.12Z"/><path class="cls-51" d="M68.23,103.59c2,0,3.58-1.21,3.61-2.78S70.29,98,68.33,97.92s-3.58,1.21-3.61,2.78S66.27,103.55,68.23,103.59Z"/><path class="cls-50" d="M86.27,134a85.14,85.14,0,0,0,4.86-10c.09-.21-.25-.34-.35-.15a83.71,83.71,0,0,0-5,9.93c-.12.28.33.45.47.2Z"/><path class="cls-50" d="M84.72,127.71c2-1.08,4-2.15,6-3.17.35-.18.05-.69-.3-.53a40.07,40.07,0,0,0-5.91,3.37.19.19,0,0,0,.19.33Z"/><path class="cls-50" d="M89.73,124a17.48,17.48,0,0,0,2.19,4.25,20.12,20.12,0,0,0,2.79,3.91.33.33,0,0,0,.55-.32A21.24,21.24,0,0,0,93,127.58a18,18,0,0,0-2.81-3.89.3.3,0,0,0-.5.3Z"/><path class="cls-50" d="M90.49,124.33A10.6,10.6,0,0,0,94.05,126a7.18,7.18,0,0,0,3.54.44.43.43,0,0,0,.1-.78,11.46,11.46,0,0,0-3.52-1,24.2,24.2,0,0,0-3.58-.64c-.22,0-.25.28-.1.38Z"/><path class="cls-50" d="M90.7,125.33A37.19,37.19,0,0,1,93,122.21,11,11,0,0,1,96,120c.19-.11.13-.47-.12-.44-2.68.34-4.51,3.39-5.65,5.52a.25.25,0,0,0,.43.25Z"/><path class="cls-50" d="M82,108.61a21.76,21.76,0,0,0,4.76-4.23c1.36-1.44,3.19-3,4-4.85a.38.38,0,0,0-.51-.52c-1.77,1-3.19,2.84-4.68,4.19A36,36,0,0,0,81,107.6c-.48.62.42,1.35,1,1Z"/><path class="cls-50" d="M71.25,101.07c5.09.86,8.39,3.58,10.92,8a.56.56,0,0,0,1-.28c.06-2.07-2.28-4.23-3.7-5.44-2.29-2-5.2-3.34-8.25-2.9a.35.35,0,0,0,0,.67Z"/><path class="cls-50" d="M75.57,112c2.59-1.38,5.15-2.79,7.59-4.41.31-.21.13-.76-.27-.64a20.23,20.23,0,0,0-7.7,4.56c-.27.24.08.65.38.49Z"/><path class="cls-52" d="M93.45,100.47c1.49-1.28,1.88-3.28.86-4.47s-3.06-1.11-4.55.18-1.87,3.28-.85,4.46S92,101.75,93.45,100.47Z"/><path class="cls-53" d="M74.55,115.24c1.81-.76,2.8-2.54,2.2-4s-2.56-2-4.38-1.25-2.8,2.53-2.2,4S72.73,116,74.55,115.24Z"/><path class="cls-54" d="M85.93,110.2c-.43-1.92-2-3.2-3.54-2.86s-2.41,2.17-2,4.09,2,3.2,3.54,2.86S86.36,112.12,85.93,110.2Z"/><path class="cls-55" d="M98.4,133a2.84,2.84,0,1,0-2.57,2.83A2.7,2.7,0,0,0,98.4,133Z"/><path class="cls-56" d="M99.11,123.94a2.2,2.2,0,1,0,2.79,2A2.47,2.47,0,0,0,99.11,123.94Z"/><path class="cls-57" d="M87.57,137c1.09-2.62,1-5.16-.31-5.69s-3.16,1.17-4.25,3.79-1,5.16.3,5.68S86.48,139.59,87.57,137Z"/><path class="cls-58" d="M56.7,134.8c2.48-1.37,3.95-3.45,3.29-4.64s-3.21-1-5.68.33-4,3.45-3.29,4.64S54.22,136.18,56.7,134.8Z"/><path class="cls-59" d="M83.3,131.28c1.66-1.66,2.33-3.69,1.5-4.53s-2.87-.17-4.53,1.49-2.33,3.68-1.49,4.52S81.64,132.93,83.3,131.28Z"/><path class="cls-60" d="M96.33,117.52a1.78,1.78,0,1,0,2.76.42A2,2,0,0,0,96.33,117.52Z"/><path class="cls-61" d="M67.57,130a1.78,1.78,0,1,0,2.76.41A2,2,0,0,0,67.57,130Z"/><path class="cls-62" d="M77.21,139a1.78,1.78,0,1,0,.42-2.76A2,2,0,0,0,77.21,139Z"/><path class="cls-63" d="M107.56,121.19a1.78,1.78,0,1,0,.62-2.72A2,2,0,0,0,107.56,121.19Z"/><path class="cls-64" d="M102.44,130.55c.23,2.08,1.19,3.69,2.14,3.58s1.53-1.88,1.3-4-1.19-3.69-2.14-3.58S102.2,128.46,102.44,130.55Z"/><path class="cls-65" d="M67.64,145.57c.23,2.09,1.19,3.7,2.14,3.59s1.54-1.88,1.31-4-1.19-3.69-2.15-3.59S67.41,143.49,67.64,145.57Z"/><g class="cls-66"><path class="cls-67" d="M120.74,378.42c-13.44,5.39-8.69,32.89,10.1,41C138.4,410.93,135.41,372.53,120.74,378.42Z"/><g class="cls-6"><path class="cls-7" d="M127.28,412.51c-3.09-5.45-5.36-11-5.86-17.32-.48-5.9.89-11.08,2.43-16.68.11-.37-.47-.64-.65-.27-5.14,10.48-3,25.22,3.69,34.5.17.23.54,0,.39-.23Z"/><path class="cls-7" d="M129.72,407.22A108,108,0,0,1,120.78,387a.2.2,0,0,0-.38.11c1.24,7.11,4.85,14.43,9.13,20.19.08.11.26,0,.19-.11Z"/><path class="cls-7" d="M121.18,409.67c-2-5.25-1.6-9.89.28-15.08.1-.26-.3-.41-.44-.18-2.7,4.6-2.39,10.69,0,15.33,0,.08.19,0,.16-.07Z"/></g><g class="cls-9"><path class="cls-68" d="M133.33,409.11c1.27-9.09-1.26-19.74-6-27.53-.69-1.14-2.25-.15-1.74,1,3.9,8.94,5.46,16.61,6.25,26.3.06.81,1.4,1.14,1.53.21Z"/></g><g class="cls-9"><path class="cls-69" d="M130.29,412.34c-1.74-4-3-8.24-5-12.07-.35-.69-1.33-.19-1.19.5.86,4.26,3.22,8.31,5.41,12,.29.48.95.06.74-.43Z"/></g><g class="cls-9"><path class="cls-70" d="M117.14,396.49a28.94,28.94,0,0,1,1.08-9.35c.86-2.76,3-4.92,3.73-7.62a.61.61,0,0,0-.88-.68c-2.69,1.28-4,5-4.88,7.75a17.51,17.51,0,0,0-.13,10,.55.55,0,0,0,1.08-.14Z"/></g></g><g class="cls-66"><path class="cls-71" d="M169.33,436.42c-9.25,20.23-23.56,26.11-33.2,50.71-14.64,37.34-3.16,71-3.16,71s43.59-21.69,49.45-56.91S169.33,436.42,169.33,436.42Z"/><g class="cls-6"><path class="cls-7" d="M137.79,547.42c11.23-15,19.1-32.71,24.76-50.52a164.08,164.08,0,0,0,6-27.35c1.16-8.42,3.29-18.26,1.89-26.73-.13-.77-1.29-.69-1.47,0-1.07,4-1.06,8.31-1.54,12.42-.6,5.09-1.44,10.11-2.49,15.13-1.79,8.54-4.07,17-6.57,25.38-5.35,17.87-13.33,34.46-21.84,51a.71.71,0,0,0,1.22.71Z"/><path class="cls-7" d="M162.29,531.7c1.17-10.16,2.06-20.29,2.78-30.5s2.12-20.4,2-30.5c0-.81-1.33-1.06-1.46-.2-1.51,9.74-1.55,19.88-2.22,29.72-.71,10.51-1.26,21-1.51,31.48,0,.3.42.28.45,0Z"/><path class="cls-7" d="M173.14,513.51a119.86,119.86,0,0,0,1.67-33c-.37-5-1-9.92-1.74-14.85-.88-5.9-1.25-12.68-3.48-18.21a.75.75,0,0,0-1.46.2c-.16,4.9,1.33,9.93,2.1,14.76,1,6,1.77,12,2.37,18.1a141.63,141.63,0,0,1-.27,32.86c-.06.45.72.56.81.11Z"/><path class="cls-7" d="M136.65,532.57c2.64-3.8,4.81-7.88,7.51-11.64,2.88-4,6.19-7.61,9.38-11.37,5-5.87,8.84-13.08,9.74-20.82.07-.61-.88-.82-1.14-.3-2.2,4.24-3.21,9-5.6,13.14-2.25,3.92-5.41,7.13-8.37,10.5-5.13,5.82-10.17,12.59-12.61,20-.22.67.73,1,1.09.46Z"/><path class="cls-7" d="M135.52,506.64c5-10.54,14.23-17.8,22-26.15,6.37-6.84,13.06-15.47,12.66-25.28,0-.66-1.06-.87-1.21-.16-2.49,11.76-9,20.11-17.36,28.46-6.81,6.81-13.35,13.67-16.84,22.81-.17.43.55.73.75.32Z"/></g><g class="cls-9"><path class="cls-72" d="M134.34,525.68c3.82-5.78,7.66-11.58,11.62-17.27,3.84-5.53,8.93-11,11.75-17.09A1.76,1.76,0,0,0,155,489.2c-5.05,4.24-8.7,10.79-12.25,16.28a198.62,198.62,0,0,0-10.8,18.79,1.4,1.4,0,0,0,2.42,1.41Z"/></g><g class="cls-9"><path class="cls-73" d="M150.81,542.18c4.26-7.11,9.86-17.07,9.25-25.61a1.47,1.47,0,0,0-2.72-.74c-2.1,3.69-2.79,8.09-4.07,12.12-1.43,4.46-3.11,8.88-4.9,13.2-.59,1.43,1.69,2.29,2.44,1Z"/></g><g class="cls-9"><path class="cls-74" d="M168.46,523.5c2.51-16,5-33.85,1.28-49.78-.24-1-2-1.11-2.15,0-1.12,7.91-.86,15.89-1.09,23.86-.25,8.49-.76,17-1.47,25.45-.17,1.94,3.13,2.42,3.43.47Z"/></g><g class="cls-9"><path class="cls-75" d="M147,477.85c7.76-6.64,17.33-14.34,21.63-23.86a1.21,1.21,0,0,0-1.9-1.46c-8,6.57-13.93,16.53-20.63,24.42a.64.64,0,0,0,.9.9Z"/></g></g><path class="cls-50" d="M185.29,98.32A104.26,104.26,0,0,1,191.56,71c2.84-7.37,5.95-14.56,7.81-22.27,3.08-12.76,6-30.83-1.71-42.49a1.07,1.07,0,0,0-1.85,1.08c6.29,14.78,4.37,32.92.05,48-2,7-5.23,13.63-7.43,20.6a95,95,0,0,0-4.23,22.4c0,.71,1,.69,1.09,0Z"/><path class="cls-50" d="M198.47,46.06c.54,9.8,7.68,20.78,14.19,27.77.18.19.44-.08.28-.28C206.64,65.48,200.76,56.24,199,46c-.05-.31-.57-.24-.55.08Z"/><path class="cls-50" d="M200.25,53.29c1.8,4.12,6.21,8.87,10.67,10.15.29.08.57-.33.31-.55-1.87-1.56-4-2.69-5.87-4.34a61.6,61.6,0,0,1-5-5.37c-.07-.08-.17,0-.14.11Z"/><path class="cls-50" d="M181.71,69.73a18.52,18.52,0,0,0,11.07-6c2.87-3.39,5.81-8.7,5.73-13.23a.61.61,0,0,0-1.2-.16c-1.47,4.18-3.08,8.67-5.95,12.13-2.7,3.25-6.58,4.12-9.86,6.47-.29.21-.24.82.21.76Z"/><path class="cls-50" d="M193.81,58.73c-3.51,6.41-.18,17.44,5.46,21.7.43.32.95-.29.7-.7-2-3.23-4.05-6-5-9.8s-.23-7.17-.3-11a.48.48,0,0,0-.89-.24Z"/><path class="cls-50" d="M174.89,105.28c2.86-4,10.65-6,11-11.61a.54.54,0,0,0-1-.27,10.86,10.86,0,0,1-2.29,3.72,31.91,31.91,0,0,1-3.95,2.88,11.11,11.11,0,0,0-4.32,5c-.15.37.39.52.59.25Z"/><path class="cls-50" d="M184.94,92.26c-.28,5.43,2.66,11.76,5.83,16a.34.34,0,0,0,.59-.35,76.93,76.93,0,0,1-3.69-8.11c-.9-2.51-1.34-5.17-2.32-7.63a.21.21,0,0,0-.41.05Z"/><path class="cls-50" d="M185.09,94.71c2.18,3.73,7.45,2.92,11.06,3.65.38.08.66-.46.28-.65-3.42-1.76-7.7-.61-10.57-3.6a.49.49,0,0,0-.77.6Z"/><path class="cls-76" d="M166,74.91c1.75-1.22,2.39-3.33,1.42-4.72s-3.17-1.53-4.92-.32-2.38,3.33-1.41,4.72S164.22,76.13,166,74.91Z"/><path class="cls-50" d="M201.08,90.25A99.49,99.49,0,0,0,199,78.38c-.05-.22-.44-.18-.41.06a97.46,97.46,0,0,0,1.91,11.89c.07.3.58.24.55-.08Z"/><path class="cls-50" d="M195.72,85.7c1.07-2.21,2.15-4.41,3.29-6.59.19-.37-.36-.7-.57-.33a43,43,0,0,0-3.09,6.76c-.08.22.27.37.37.16Z"/><path class="cls-50" d="M197.82,79.27a18.72,18.72,0,0,0,4.34,2.22,23.08,23.08,0,0,0,5.13,1.77.36.36,0,0,0,.28-.66,22.74,22.74,0,0,0-4.87-2.4,18.51,18.51,0,0,0-4.63-1.53.33.33,0,0,0-.25.6Z"/><path class="cls-50" d="M198.65,79.06a11.33,11.33,0,0,0,4.11-.79,7.89,7.89,0,0,0,3.43-1.84.47.47,0,0,0-.33-.79,11.84,11.84,0,0,0-3.73,1.3,24.61,24.61,0,0,0-3.59,1.71.22.22,0,0,0,.11.41Z"/><path class="cls-50" d="M199.49,79.83c0-2.92,0-5.4,1.31-8.06.12-.25-.19-.54-.4-.31-2,2.15-1.8,5.67-1.45,8.37,0,.34.55.36.54,0Z"/><path class="cls-50" d="M181.32,70.48a30,30,0,0,0,1.53-7.15,23.3,23.3,0,0,0,.37-6.34c-.06-.45-.66-.32-.79,0-.85,2.18-1,4.7-1.52,7a47.72,47.72,0,0,0-1.17,6.29c-.08,1,1.28,1,1.58.21Z"/><path class="cls-50" d="M167.08,70.75a16,16,0,0,1,14.52.08c.48.22,1.21-.28.82-.82-1.3-1.75-4.18-2.2-6.19-2.43-3.39-.39-7,.18-9.6,2.59-.33.3.09.76.45.58Z"/><path class="cls-50" d="M177.72,77.68c1.42-2.89,2.76-5.77,3.91-8.77.17-.43-.45-.61-.68-.29a22,22,0,0,0-3.86,8.79c-.07.36.45.63.63.27Z"/><path class="cls-77" d="M186.17,56.2c.5-2.07-.43-4.07-2.08-4.47s-3.39,1-3.89,3,.44,4.07,2.08,4.47S185.67,58.27,186.17,56.2Z"/><path class="cls-78" d="M178.89,81.16c1.12-1.82.86-4-.58-4.9s-3.52-.14-4.64,1.68-.85,4,.59,4.89S177.77,83,178.89,81.16Z"/><path class="cls-79" d="M185.71,69.52c-1.59-1.41-3.79-1.54-4.92-.27s-.75,3.44.84,4.85,3.8,1.54,4.92.28S187.3,70.94,185.71,69.52Z"/><path class="cls-80" d="M211.14,81.71a3.08,3.08,0,1,0-.47,4.12A2.95,2.95,0,0,0,211.14,81.71Z"/><path class="cls-81" d="M206,73.26c-1.27,1-1.65,2.63-.85,3.63a3,3,0,1,0,.85-3.63Z"/><path class="cls-82" d="M204.11,92c-.7-3-2.43-5.14-3.87-4.81s-2,3-1.34,6,2.42,5.15,3.86,4.81S204.8,95,204.11,92Z"/><path class="cls-83" d="M175.59,109.66c1.31-2.78,1.29-5.54-.05-6.17s-3.48,1.11-4.79,3.89-1.29,5.54.05,6.17S174.28,112.44,175.59,109.66Z"/><path class="cls-84" d="M196.75,89.71c.41-2.5-.29-4.71-1.55-4.91s-2.63,1.65-3,4.16.28,4.71,1.55,4.92S196.34,92.22,196.75,89.71Z"/><path class="cls-85" d="M199.5,69.37A1.93,1.93,0,1,0,202.18,68,2.16,2.16,0,0,0,199.5,69.37Z"/><path class="cls-86" d="M182.12,98.58a1.93,1.93,0,1,0,2.69-1.38A2.16,2.16,0,0,0,182.12,98.58Z"/><path class="cls-87" d="M196.29,100.37a1.93,1.93,0,1,0-1.38-2.69A2.16,2.16,0,0,0,196.29,100.37Z"/><path class="cls-88" d="M211.69,65.49a1.93,1.93,0,1,0,1.8-3.3,1.93,1.93,0,1,0-1.8,3.3Z"/><path class="cls-89" d="M213.11,77c1.52,1.69,3.38,2.49,4.15,1.8s.16-2.63-1.36-4.32-3.39-2.49-4.16-1.8S211.58,75.27,213.11,77Z"/><path class="cls-90" d="M192,112.21c1.52,1.68,3.38,2.49,4.15,1.79s.16-2.62-1.36-4.31-3.39-2.5-4.16-1.8S190.5,110.52,192,112.21Z"/><path class="cls-91" d="M251,414.31c2.4,3.25,1.86,7.56-3.63,13-9,4.8,1.27,10.29-2.4,16.37-6.12-6.59-24.47-16.91-34.69-23.27a64,64,0,0,1-6.1-4.12,6.43,6.43,0,0,1-.78-.75,1.36,1.36,0,0,1,0-.17c1.94-8.28,25.35-10.54,39.07-6.18C246.33,410.39,249.37,412.1,251,414.31Z"/><path class="cls-92" d="M251,414.31c-4.59,1.8-9,2.45-29.61.82-5.41-.44-11.41,3.87-11.11,5.28a34.55,34.55,0,0,1-6.1-4.12,4.12,4.12,0,0,1-.74-.92c1.94-8.28,25.35-10.54,39.07-6.18A80.64,80.64,0,0,1,251,414.31Z"/><g class="cls-6"><path class="cls-93" d="M244.84,426.07a.86.86,0,0,1-.14.13.8.8,0,0,1-1.12-.17c-.05-.06-4.59-5.88-18.77-6.93a.8.8,0,0,1,.12-1.59c15,1.11,19.74,7.31,19.94,7.57A.81.81,0,0,1,244.84,426.07Z"/></g><path class="cls-94" d="M203.9,417.38c19-19.71,64.3-14.09,41-37.15-10.55-10.09-7.89-19.42-30.39-22.06C203.52,356.87,201.57,414.51,203.9,417.38Z"/><path class="cls-95" d="M203.85,390l-.18,26.86a2.5,2.5,0,0,0,.18.42l6.45-31.64c7.13-22,13-23.47,15.72-24.5a39.26,39.26,0,0,0-11.48-3C208.55,357.46,205.25,374.15,203.85,390Z"/><path class="cls-96" d="M203.9,417.38c-3-5,12.74-75.75-13.5-62.77a25.34,25.34,0,0,0-12.05,13c-1,3,3.46,6,1.08,6.89s-3.63-2.87-8.39-1.18-5.11,4-6.19,4.36c-14.35,4.25-16.41,11.33-17.07,19a3.06,3.06,0,0,0,2.77,3.15C164.65,402.31,193.82,407.69,203.9,417.38Z"/><g class="cls-6"><path class="cls-97" d="M233.19,377.44a.84.84,0,0,1-.55.28c-.13,0-13,1.33-25.65,20.9a.8.8,0,1,1-1.34-.86c13.11-20.32,26.31-21.59,26.86-21.63a.8.8,0,0,1,.68,1.31Z"/></g><g class="cls-6"><path class="cls-98" d="M245.14,391.61a.78.78,0,0,1-.95.21c-.08,0-7.54-3.26-23.41,6.75a.8.8,0,0,1-.85-1.35c16.74-10.57,24.62-7,24.94-6.84a.8.8,0,0,1,.38,1.07A.91.91,0,0,1,245.14,391.61Z"/></g><g class="cls-6"><path class="cls-99" d="M200.72,407.41a.87.87,0,0,1-.45.27.81.81,0,0,1-1-.63c-4.22-20.43-15.64-32.59-15.76-32.72a.82.82,0,0,1,0-1.13.8.8,0,0,1,1.13,0c.12.12,11.86,12.62,16.17,33.5A.82.82,0,0,1,200.72,407.41Z"/></g><g class="cls-6"><path class="cls-100" d="M194.7,400.1a.86.86,0,0,1-.14.13.8.8,0,0,1-1.12-.17c-8.25-11.32-20.87-16.72-21-16.78a.8.8,0,1,1,.62-1.47c.53.22,13.16,5.63,21.68,17.31A.8.8,0,0,1,194.7,400.1Z"/></g><g class="cls-6"><path class="cls-101" d="M196.29,408.59l-.11.11a.81.81,0,0,1-1.13-.11c-12.88-15.72-39.31-21.62-39.57-21.68a.79.79,0,0,1-.61-1,.8.8,0,0,1,.95-.62c1.1.25,27.22,6.08,40.47,22.23A.8.8,0,0,1,196.29,408.59Z"/></g><path class="cls-102" d="M204.71,409.54c-26.86,5.37-60.89-25-54.87,7.2,2.93,14.3-4.57,20.46,12.43,35.44C170.6,459.51,205,413.22,204.71,409.54Z"/><path class="cls-103" d="M204.69,409.65a1.43,1.43,0,0,1-.09.44l-15.43,22c-10.16,12.23-22.38,24.08-26.89,20.1a39.65,39.65,0,0,1-7.76-9c2.81.68,8.5,2.82,26.88-11.21l5.66-5.43,2.86-2.75Z"/><path class="cls-104" d="M204.71,409.54c-.34,5.84-53.57,55-24.6,59.3A25.34,25.34,0,0,0,197.39,465c2.57-1.91.59-6.93,3-6.28s1.36,4.42,6.24,5.74,6.5-.41,7.56-.06c14.22,4.67,19.95,0,24.87-5.95a3,3,0,0,0-.48-4.16C228.41,444.26,207.49,423.24,204.71,409.54Z"/><g class="cls-6"><path class="cls-105" d="M189.92,423.81l-2.86,2.75c-19,6.38-28.91.88-29.35.63a.8.8,0,1,1,.8-1.38C158.62,425.86,169.41,431.8,189.92,423.81Z"/></g><g class="cls-6"><path class="cls-106" d="M180.71,416.71a.81.81,0,0,1-.65.29c-19.78-.84-24.23-8.26-24.41-8.57a.81.81,0,0,1,.3-1.09.8.8,0,0,1,1.09.29c.06.1,4.37,7,23.09,7.77a.79.79,0,0,1,.76.83A.75.75,0,0,1,180.71,416.71Z"/></g><g class="cls-6"><path class="cls-107" d="M196.77,457.14a.81.81,0,0,1-.49.28.79.79,0,0,1-.91-.67c0-.17-2.57-17.12,5.76-36.74a.8.8,0,0,1,1.05-.43.79.79,0,0,1,.42,1.05c-8.15,19.21-5.68,35.71-5.65,35.87A.84.84,0,0,1,196.77,457.14Z"/></g><g class="cls-6"><path class="cls-108" d="M211.12,456.42a.93.93,0,0,1-.18.16.8.8,0,0,1-1.11-.25c-.31-.48-7.61-12.12-8-26.56a.8.8,0,1,1,1.59,0c.35,14,7.66,25.63,7.73,25.75A.78.78,0,0,1,211.12,456.42Z"/></g><g class="cls-6"><path class="cls-109" d="M227.23,463.2a.46.46,0,0,1-.07.07.79.79,0,0,1-1.13,0c-.77-.82-18.93-20.48-20.64-41.3a.8.8,0,0,1,1.59-.13c1.66,20.27,20,40.15,20.22,40.34A.81.81,0,0,1,227.23,463.2Z"/></g><g class="cls-6"><path class="cls-110" d="M241.77,431.1a.67.67,0,0,1-.2.17.8.8,0,0,1-1.1-.27c-3.48-5.81-8.33-6.77-8.38-6.78a.8.8,0,0,1,.28-1.57c.23,0,5.59,1.07,9.48,7.52A.8.8,0,0,1,241.77,431.1Z"/></g><path class="cls-111" d="M147.78,396.7a3.06,3.06,0,0,0,2.76,3.15l1.16.2c3.55-3.27,1.57-17.65,7.27-19.07,1.55-.39,2.85.38,5-.6,2.91-1.32,2.44-3.59,4.76-4.4,2.88-1,4.89,2,8.7,1.12a6.69,6.69,0,0,0,4.07-2.82c1.59-2.59-.58-4.65-.29-7.53.57-5.48,9.81-11.11,16.59-9.93a11.42,11.42,0,0,1,6.11,3.38c-2.09-6.27-6.14-9.24-13.52-5.59a25.34,25.34,0,0,0-12.05,13c-1,3,3.46,6,1.08,6.89s-3.63-2.87-8.39-1.18-5.11,4-6.19,4.36C150.5,381.91,148.44,389,147.78,396.7Z"/><path class="cls-112" d="M201.28,411.53a2.29,2.29,0,0,0,3,1.29,2.36,2.36,0,0,0,1.5-2.94,2.28,2.28,0,0,0-3-1.28A2.35,2.35,0,0,0,201.28,411.53Z"/><path class="cls-112" d="M201.63,419.31a2.28,2.28,0,0,0,3,1.28,2.35,2.35,0,0,0,1.5-2.93,2.29,2.29,0,0,0-3-1.29A2.36,2.36,0,0,0,201.63,419.31Z"/><path class="cls-112" d="M198.93,403.54a2.29,2.29,0,0,0,3,1.29,2.36,2.36,0,0,0,1.5-2.94,2.28,2.28,0,0,0-3-1.28A2.35,2.35,0,0,0,198.93,403.54Z"/><path class="cls-112" d="M208.32,413.57a2.28,2.28,0,0,0,3,1.28,2.35,2.35,0,0,0,1.5-2.93,2.29,2.29,0,0,0-3-1.29A2.36,2.36,0,0,0,208.32,413.57Z"/><path class="cls-112" d="M207.37,405.17a2.28,2.28,0,0,0,3,1.28,2.35,2.35,0,0,0,1.5-2.93,2.29,2.29,0,0,0-3-1.29A2.36,2.36,0,0,0,207.37,405.17Z"/><path class="cls-112" d="M205,397.77a2.28,2.28,0,0,0,3,1.28,2.35,2.35,0,0,0,1.5-2.93,2.29,2.29,0,0,0-3-1.29A2.36,2.36,0,0,0,205,397.77Z"/><path class="cls-112" d="M193.33,411a2.28,2.28,0,0,0,3,1.28,2.35,2.35,0,0,0,1.51-2.93,2.29,2.29,0,0,0-3-1.29A2.37,2.37,0,0,0,193.33,411Z"/><path class="cls-112" d="M190.64,404.61a2.28,2.28,0,0,0,3,1.29,2.36,2.36,0,0,0,1.51-2.93,2.28,2.28,0,0,0-3-1.29A2.36,2.36,0,0,0,190.64,404.61Z"/><path class="cls-112" d="M215.13,408.42a2.29,2.29,0,0,0,3,1.29,2.37,2.37,0,0,0,1.51-2.94,2.29,2.29,0,0,0-3-1.29A2.37,2.37,0,0,0,215.13,408.42Z"/></g></g></g></svg>