<svg version="1.2" xmlns="http://www.w3.org/2000/svg" viewBox="0 0 1544 1800" width="3000" height="3497">
	<title>18728833-ai</title>
	<defs>
		<linearGradient id="g1" x2="1" gradientUnits="userSpaceOnUse" gradientTransform="matrix(1,0,0,.337,218.274,1721.901)">
			<stop offset="0" stop-color="#1c1d28"/>
			<stop offset="1" stop-color="#1c1d28"/>
		</linearGradient>
	</defs>
	<style>
		tspan { white-space:pre } 
		.s0 { opacity: .7;fill: url(#g1) } 
	</style>
	<g id="shadow">
		<path id="&lt;Mesh&gt;" class="s0" d="m218.3 1721.9q4.5 0 9 0 11.3-3.4 25.1-6.7c0-20.2 0.6-40.3 1.5-60.3-11.9 2.4-23.5 6.1-35.6 6.1q0 30.4 0 60.9zm0-60.9c12.1 0 23.7-3.7 35.6-6.1 4-87 14.9-172 18-259.1-17.8 0.1-35.7 0.3-53.6 0.3q0 132.4 0 264.9zm0-264.9c17.9 0 35.8-0.2 53.6-0.3 0.6-15.1 0.9-30.1 0.9-45.3q-27.3 0-54.5 0 0 22.8 0 45.6zm34.1 319.1c99.9-23.4 293-39.4 515.1-39.5 0-18 0-35.8-0.1-53.6-115.4 0-219 3.1-310.7 10.2-80.7 6.3-153.2 12.6-202.8 22.6-0.9 20-1.5 40.1-1.5 60.3zm1.5-60.3c49.6-10 122.1-16.3 202.8-22.6 91.7-7.1 195.3-10.2 310.7-10.2-0.3-77.1-0.9-152 0.7-229.9-165.4-0.8-330.8 2.6-496.2 3.6-3.1 87.1-14 172.1-18 259.1zm18-259.1c165.4-1 330.8-4.4 496.2-3.6 0.3-14.5 0.4-27.2 0.4-41.7q-247.9 0-495.7 0c0 15.2-0.3 30.2-0.9 45.3zm495.6 279.9q1.1 0 2.2 0c222.8 0 416.7 16 517 39.5 0-20.3-0.7-40.3-1.8-60.3-106.3-21.4-297.8-32.7-515.3-32.8q-1.1 0-2.2 0c0.1 17.8 0.1 35.6 0.1 53.6zm-0.1-53.6q1.1 0 2.2 0c217.5 0.1 409 11.4 515.3 32.8-4.9-86.6-17.9-170.8-17.8-258.9-166.4-0.5-332.7-3.1-499-3.8-1.6 77.9-1 152.8-0.7 229.9zm0.7-229.9c166.3 0.7 332.6 3.3 499 3.8 0-15.2 0.1-30.3 0.1-45.5q-249.4 0-498.7 0c0 14.5-0.1 27.2-0.4 41.7zm518.6 323q13.9 3.2 25.4 6.7 4.5 0 9 0 0-30.5 0-60.9c-12.3 0-24.1-3.6-36.2-6.1 1.1 20 1.8 40 1.8 60.3zm-1.8-60.3c12.1 2.5 23.9 6.1 36.2 6.1q0-132.5 0-264.9-27 0-54-0.1c-0.1 88.1 12.9 172.3 17.8 258.9zm-17.8-258.9q27 0.1 54 0.1 0-22.8 0-45.6-27 0-53.9 0c0 15.2-0.1 30.3-0.1 45.5z"/>
	</g>
</svg>