<svg xmlns="http://www.w3.org/2000/svg" xmlns:xlink="http://www.w3.org/1999/xlink" viewBox="0 0 466.88 592.13"><defs><style>.cls-1{isolation:isolate;}.cls-2{fill:url(#linear-gradient);}.cls-3{fill:url(#linear-gradient-2);}.cls-4{fill:url(#linear-gradient-3);}.cls-5{fill:url(#linear-gradient-4);}.cls-100,.cls-101,.cls-121,.cls-124,.cls-132,.cls-140,.cls-30,.cls-33,.cls-41,.cls-49,.cls-6{mix-blend-mode:multiply;}.cls-7{fill:#c6c6c6;}.cls-8{fill:url(#linear-gradient-5);}.cls-9{opacity:0.3;mix-blend-mode:overlay;}.cls-10{fill:url(#linear-gradient-6);}.cls-11{fill:url(#linear-gradient-7);}.cls-12{fill:url(#linear-gradient-8);}.cls-13{fill:url(#linear-gradient-9);}.cls-14{fill:url(#linear-gradient-10);}.cls-15{fill:url(#linear-gradient-11);}.cls-16{fill:url(#linear-gradient-12);}.cls-17{fill:url(#linear-gradient-13);}.cls-18{fill:url(#linear-gradient-14);}.cls-19{fill:url(#linear-gradient-15);}.cls-20{fill:url(#linear-gradient-16);}.cls-21{fill:url(#linear-gradient-17);}.cls-22{fill:url(#linear-gradient-18);}.cls-23{fill:url(#linear-gradient-19);}.cls-24{fill:url(#linear-gradient-20);}.cls-25{fill:url(#linear-gradient-21);}.cls-26{fill:url(#linear-gradient-22);}.cls-27{fill:url(#linear-gradient-23);}.cls-28{fill:url(#linear-gradient-24);}.cls-29{fill:url(#linear-gradient-25);}.cls-30{fill:url(#linear-gradient-26);}.cls-31{fill:url(#linear-gradient-27);}.cls-32{fill:url(#linear-gradient-28);}.cls-33{fill:url(#linear-gradient-29);}.cls-34{fill:url(#linear-gradient-30);}.cls-35{fill:url(#linear-gradient-31);}.cls-36{fill:url(#linear-gradient-32);}.cls-37{fill:url(#linear-gradient-33);}.cls-38{fill:url(#linear-gradient-34);}.cls-39{fill:url(#linear-gradient-35);}.cls-40{fill:url(#linear-gradient-36);}.cls-41{fill:url(#linear-gradient-37);}.cls-42{fill:url(#linear-gradient-38);}.cls-43{fill:url(#linear-gradient-39);}.cls-44{fill:url(#linear-gradient-40);}.cls-45{fill:url(#linear-gradient-41);}.cls-46{fill:url(#linear-gradient-42);}.cls-47{fill:url(#linear-gradient-43);}.cls-48{fill:url(#linear-gradient-44);}.cls-49{fill:url(#linear-gradient-45);}.cls-50{fill:#fff;}.cls-51{fill:url(#linear-gradient-46);}.cls-52{fill:url(#linear-gradient-47);}.cls-53{fill:url(#linear-gradient-48);}.cls-54{fill:url(#linear-gradient-49);}.cls-55{fill:url(#linear-gradient-50);}.cls-56{fill:url(#linear-gradient-51);}.cls-57{fill:url(#linear-gradient-52);}.cls-58{fill:url(#linear-gradient-53);}.cls-59{fill:url(#linear-gradient-54);}.cls-60{fill:url(#linear-gradient-55);}.cls-61{fill:url(#linear-gradient-56);}.cls-62{fill:url(#linear-gradient-57);}.cls-63{fill:url(#linear-gradient-58);}.cls-64{fill:url(#linear-gradient-59);}.cls-65{fill:url(#linear-gradient-60);}.cls-66{fill:url(#linear-gradient-61);}.cls-67{fill:url(#linear-gradient-62);}.cls-68{fill:url(#linear-gradient-63);}.cls-69{fill:url(#linear-gradient-64);}.cls-70{fill:url(#linear-gradient-65);}.cls-71{fill:url(#linear-gradient-66);}.cls-72{fill:url(#linear-gradient-67);}.cls-73{fill:url(#linear-gradient-68);}.cls-74{fill:url(#linear-gradient-69);}.cls-75{fill:url(#linear-gradient-70);}.cls-76{fill:url(#linear-gradient-71);}.cls-77{fill:url(#linear-gradient-72);}.cls-78{fill:url(#linear-gradient-73);}.cls-79{fill:url(#linear-gradient-74);}.cls-80{fill:url(#linear-gradient-75);}.cls-81{fill:url(#linear-gradient-76);}.cls-82{fill:url(#linear-gradient-77);}.cls-83{fill:url(#linear-gradient-78);}.cls-84{fill:url(#linear-gradient-79);}.cls-85{fill:url(#linear-gradient-80);}.cls-86{fill:url(#linear-gradient-81);}.cls-87{fill:url(#linear-gradient-82);}.cls-88{fill:url(#linear-gradient-83);}.cls-89{fill:url(#linear-gradient-84);}.cls-90{fill:url(#linear-gradient-85);}.cls-91{fill:url(#linear-gradient-86);}.cls-92{fill:url(#linear-gradient-87);}.cls-93{fill:url(#linear-gradient-88);}.cls-94{fill:url(#linear-gradient-89);}.cls-95{fill:url(#linear-gradient-90);}.cls-96{fill:url(#linear-gradient-91);}.cls-97{fill:url(#linear-gradient-92);}.cls-98{fill:url(#linear-gradient-93);}.cls-99{fill:url(#linear-gradient-94);}.cls-100{fill:url(#linear-gradient-95);}.cls-101{fill:url(#linear-gradient-96);}.cls-102{fill:url(#linear-gradient-97);}.cls-103{fill:url(#linear-gradient-98);}.cls-104{fill:url(#linear-gradient-99);}.cls-105{fill:url(#linear-gradient-100);}.cls-106{fill:url(#linear-gradient-101);}.cls-107{fill:url(#linear-gradient-102);}.cls-108{fill:url(#linear-gradient-103);}.cls-109{fill:url(#linear-gradient-104);}.cls-110{fill:url(#linear-gradient-105);}.cls-111{fill:url(#linear-gradient-106);}.cls-112{fill:url(#linear-gradient-107);}.cls-113{fill:url(#linear-gradient-108);}.cls-114{fill:url(#linear-gradient-109);}.cls-115{fill:url(#linear-gradient-110);}.cls-116{fill:url(#linear-gradient-111);}.cls-117{fill:url(#linear-gradient-112);}.cls-118{fill:url(#linear-gradient-113);}.cls-119{fill:url(#linear-gradient-114);}.cls-120{fill:url(#linear-gradient-115);}.cls-121{fill:url(#linear-gradient-116);}.cls-122{fill:url(#linear-gradient-117);}.cls-123{fill:url(#linear-gradient-118);}.cls-124{fill:url(#linear-gradient-119);}.cls-125{fill:url(#linear-gradient-120);}.cls-126{fill:url(#linear-gradient-121);}.cls-127{fill:url(#linear-gradient-122);}.cls-128{fill:url(#linear-gradient-123);}.cls-129{fill:url(#linear-gradient-124);}.cls-130{fill:url(#linear-gradient-125);}.cls-131{fill:url(#linear-gradient-126);}.cls-132{fill:url(#linear-gradient-127);}.cls-133{fill:url(#linear-gradient-128);}.cls-134{fill:url(#linear-gradient-129);}.cls-135{fill:url(#linear-gradient-130);}.cls-136{fill:url(#linear-gradient-131);}.cls-137{fill:url(#linear-gradient-132);}.cls-138{fill:url(#linear-gradient-133);}.cls-139{fill:url(#linear-gradient-134);}.cls-140{fill:url(#linear-gradient-135);}</style><linearGradient id="linear-gradient" x1="133.33" y1="330.99" x2="174.19" y2="330.99" gradientUnits="userSpaceOnUse"><stop offset="0" stop-color="#91a1b8"/><stop offset="1" stop-color="#3f404d"/></linearGradient><linearGradient id="linear-gradient-2" x1="164.49" y1="361.43" x2="223.69" y2="361.43" gradientUnits="userSpaceOnUse"><stop offset="0" stop-color="#3f404d"/><stop offset="1" stop-color="#91a1b8"/></linearGradient><linearGradient id="linear-gradient-3" x1="171.36" y1="446.79" x2="196.58" y2="446.79" xlink:href="#linear-gradient"/><linearGradient id="linear-gradient-4" x1="316.19" y1="1785.06" x2="316.19" y2="1640.93" gradientTransform="matrix(0.99, 0.17, 0.17, -0.99, -423.4, 1993.09)" gradientUnits="userSpaceOnUse"><stop offset="0" stop-color="#3f404d"/><stop offset="0.37" stop-color="#556c7a"/><stop offset="1" stop-color="#6d9598"/></linearGradient><linearGradient id="linear-gradient-5" x1="284.72" y1="1587.09" x2="248" y2="1450.76" gradientTransform="matrix(0.98, 0.21, 0.21, -0.98, -445.9, 1958.97)" gradientUnits="userSpaceOnUse"><stop offset="0" stop-color="#3f404d"/><stop offset="0.35" stop-color="#556c7a"/><stop offset="0.84" stop-color="#6d9598"/></linearGradient><linearGradient id="linear-gradient-6" x1="114.37" y1="584.23" x2="114.37" y2="552.34" gradientUnits="userSpaceOnUse"><stop offset="0" stop-color="#fff" stop-opacity="0"/><stop offset="1" stop-color="#fff"/></linearGradient><linearGradient id="linear-gradient-7" x1="358.6" y1="1608.93" x2="395.14" y2="1501.28" gradientTransform="matrix(0.99, 0.17, 0.17, -0.99, -423.4, 1993.09)" xlink:href="#linear-gradient-5"/><linearGradient id="linear-gradient-8" x1="186.59" y1="534.66" x2="186.59" y2="489.84" xlink:href="#linear-gradient-6"/><linearGradient id="linear-gradient-9" x1="195.76" y1="542.75" x2="195.76" y2="512.72" xlink:href="#linear-gradient-6"/><linearGradient id="linear-gradient-10" x1="218.5" y1="547.4" x2="218.5" y2="521.92" xlink:href="#linear-gradient-6"/><linearGradient id="linear-gradient-11" x1="218.68" y1="521.11" x2="218.68" y2="485.7" xlink:href="#linear-gradient-6"/><linearGradient id="linear-gradient-12" x1="362.85" y1="1647.05" x2="439.05" y2="1647.05" xlink:href="#linear-gradient-4"/><linearGradient id="linear-gradient-13" x1="140.04" y1="566.07" x2="140.04" y2="515.36" xlink:href="#linear-gradient-6"/><linearGradient id="linear-gradient-14" x1="120.09" y1="551.84" x2="120.09" y2="500.92" xlink:href="#linear-gradient-6"/><linearGradient id="linear-gradient-15" x1="109.23" y1="571.43" x2="109.23" y2="541.96" xlink:href="#linear-gradient-6"/><linearGradient id="linear-gradient-16" x1="132.68" y1="510.53" x2="132.68" y2="466.58" xlink:href="#linear-gradient-6"/><linearGradient id="linear-gradient-17" x1="189.16" y1="392.28" x2="189.16" y2="351.43" xlink:href="#linear-gradient-6"/><linearGradient id="linear-gradient-18" x1="190.65" y1="407.03" x2="190.65" y2="380.27" xlink:href="#linear-gradient-6"/><linearGradient id="linear-gradient-19" x1="166.05" y1="414.69" x2="166.05" y2="348.98" xlink:href="#linear-gradient-6"/><linearGradient id="linear-gradient-20" x1="143.06" y1="351.86" x2="143.06" y2="303.92" xlink:href="#linear-gradient-6"/><linearGradient id="linear-gradient-21" x1="174.45" y1="339.73" x2="174.45" y2="295.33" xlink:href="#linear-gradient-6"/><linearGradient id="linear-gradient-22" x1="237.32" y1="472.99" x2="237.32" y2="428.25" xlink:href="#linear-gradient-6"/><linearGradient id="linear-gradient-23" x1="218.86" y1="446.09" x2="218.86" y2="400.18" xlink:href="#linear-gradient-6"/><linearGradient id="linear-gradient-24" x1="240.35" y1="435.61" x2="240.35" y2="394.5" xlink:href="#linear-gradient-6"/><linearGradient id="linear-gradient-25" x1="217.14" y1="289.53" x2="221.02" y2="245.85" gradientTransform="translate(-64.28 59.04) rotate(-3.87)" gradientUnits="userSpaceOnUse"><stop offset="0" stop-color="#f7e3c8"/><stop offset="0.31" stop-color="#e4cfa9"/><stop offset="0.43" stop-color="#ddc28c"/><stop offset="0.5" stop-color="#d8b978"/><stop offset="0.61" stop-color="#d6b676"/><stop offset="0.68" stop-color="#cfad6f"/><stop offset="0.75" stop-color="#c49d64"/><stop offset="0.81" stop-color="#b68955"/></linearGradient><linearGradient id="linear-gradient-26" x1="204.32" y1="264.01" x2="234.28" y2="264.01" xlink:href="#linear-gradient-25"/><linearGradient id="linear-gradient-27" x1="214.69" y1="273.91" x2="222.86" y2="273.91" xlink:href="#linear-gradient-25"/><linearGradient id="linear-gradient-28" x1="272.31" y1="243.8" x2="219.11" y2="243.8" xlink:href="#linear-gradient-25"/><linearGradient id="linear-gradient-29" x1="203.41" y1="233.89" x2="257.78" y2="233.89" xlink:href="#linear-gradient-25"/><linearGradient id="linear-gradient-30" x1="204.06" y1="188.08" x2="229.08" y2="234.93" xlink:href="#linear-gradient-25"/><linearGradient id="linear-gradient-31" x1="218.05" y1="241.72" x2="251.04" y2="241.72" xlink:href="#linear-gradient-25"/><linearGradient id="linear-gradient-32" x1="226.8" y1="255.68" x2="247.99" y2="255.68" xlink:href="#linear-gradient-25"/><linearGradient id="linear-gradient-33" x1="207.93" y1="223.78" x2="223.85" y2="223.78" xlink:href="#linear-gradient-25"/><linearGradient id="linear-gradient-34" x1="209.01" y1="217.88" x2="212.45" y2="217.88" xlink:href="#linear-gradient-25"/><linearGradient id="linear-gradient-35" x1="195.99" y1="215.91" x2="206.6" y2="215.91" xlink:href="#linear-gradient-25"/><linearGradient id="linear-gradient-36" x1="153.37" y1="238.17" x2="205.51" y2="219.5" xlink:href="#linear-gradient-25"/><linearGradient id="linear-gradient-37" x1="152.68" y1="237.8" x2="209.47" y2="237.8" xlink:href="#linear-gradient-25"/><linearGradient id="linear-gradient-38" x1="149.37" y1="272.05" x2="209.56" y2="272.05" xlink:href="#linear-gradient-25"/><linearGradient id="linear-gradient-39" x1="168.09" y1="231.4" x2="190.17" y2="231.4" xlink:href="#linear-gradient-25"/><linearGradient id="linear-gradient-40" x1="180.15" y1="219.63" x2="190.49" y2="219.63" xlink:href="#linear-gradient-25"/><linearGradient id="linear-gradient-41" x1="169.3" y1="258.09" x2="200.74" y2="258.09" xlink:href="#linear-gradient-25"/><linearGradient id="linear-gradient-42" x1="178.56" y1="266.26" x2="194.35" y2="266.26" xlink:href="#linear-gradient-25"/><linearGradient id="linear-gradient-43" x1="183.42" y1="273.07" x2="202.24" y2="273.07" xlink:href="#linear-gradient-25"/><linearGradient id="linear-gradient-44" x1="215.43" y1="278.57" x2="218.13" y2="278.57" xlink:href="#linear-gradient-25"/><linearGradient id="linear-gradient-45" x1="183.17" y1="202.62" x2="247.04" y2="202.62" xlink:href="#linear-gradient-25"/><linearGradient id="linear-gradient-46" x1="502.35" y1="1991.18" x2="502.35" y2="1920.91" gradientTransform="matrix(0.72, -0.69, -0.69, -0.72, 1193.36, 1934.78)" xlink:href="#linear-gradient-4"/><linearGradient id="linear-gradient-47" x1="202.52" y1="224.79" x2="202.52" y2="129.79" xlink:href="#linear-gradient-6"/><linearGradient id="linear-gradient-48" x1="221.98" y1="198.21" x2="221.98" y2="133.66" xlink:href="#linear-gradient-6"/><linearGradient id="linear-gradient-49" x1="136.99" y1="93.32" x2="287.11" y2="93.32" xlink:href="#linear-gradient-2"/><linearGradient id="linear-gradient-50" x1="202.33" y1="102.74" x2="300.27" y2="102.74" xlink:href="#linear-gradient-2"/><linearGradient id="linear-gradient-51" x1="210.52" y1="136.35" x2="250.05" y2="136.35" xlink:href="#linear-gradient-2"/><linearGradient id="linear-gradient-52" x1="535.58" y1="1905.65" x2="535.58" y2="1760.29" gradientTransform="matrix(0.72, -0.69, -0.69, -0.72, 1193.36, 1934.78)" xlink:href="#linear-gradient-4"/><linearGradient id="linear-gradient-53" x1="308.03" y1="285.78" x2="308.03" y2="233.98" xlink:href="#linear-gradient-6"/><linearGradient id="linear-gradient-54" x1="334.09" y1="289.87" x2="334.09" y2="258.05" xlink:href="#linear-gradient-6"/><linearGradient id="linear-gradient-55" x1="325.21" y1="258.75" x2="325.21" y2="207.99" xlink:href="#linear-gradient-6"/><linearGradient id="linear-gradient-56" x1="290.08" y1="228.31" x2="290.08" y2="188.52" xlink:href="#linear-gradient-6"/><linearGradient id="linear-gradient-57" x1="451.08" y1="1918.28" x2="451.08" y2="1793.14" gradientTransform="matrix(0.72, -0.69, -0.69, -0.72, 1193.36, 1934.78)" xlink:href="#linear-gradient-4"/><linearGradient id="linear-gradient-58" x1="243.46" y1="334.74" x2="243.46" y2="283.77" xlink:href="#linear-gradient-6"/><linearGradient id="linear-gradient-59" x1="224.48" y1="364" x2="224.48" y2="302.16" xlink:href="#linear-gradient-6"/><linearGradient id="linear-gradient-60" x1="226.21" y1="325.03" x2="226.21" y2="259.29" xlink:href="#linear-gradient-6"/><linearGradient id="linear-gradient-61" x1="248.93" y1="266.08" x2="248.93" y2="209.62" xlink:href="#linear-gradient-6"/><linearGradient id="linear-gradient-62" x1="936.83" y1="1982.2" x2="936.83" y2="1903.5" gradientTransform="matrix(0.55, -0.84, -0.84, -0.55, 1388.64, 1914.44)" xlink:href="#linear-gradient-4"/><linearGradient id="linear-gradient-63" x1="279.47" y1="92.45" x2="279.47" y2="70.92" xlink:href="#linear-gradient-6"/><linearGradient id="linear-gradient-64" x1="899.72" y1="1887.33" x2="899.72" y2="1731.44" gradientTransform="matrix(0.54, -0.84, -0.84, -0.54, 1390.14, 1915.43)" xlink:href="#linear-gradient-4"/><linearGradient id="linear-gradient-65" x1="380.43" y1="223.1" x2="380.43" y2="195.87" xlink:href="#linear-gradient-6"/><linearGradient id="linear-gradient-66" x1="344.08" y1="178.16" x2="344.08" y2="142.22" xlink:href="#linear-gradient-6"/><linearGradient id="linear-gradient-67" x1="1064.37" y1="1760.72" x2="1064.37" y2="1709.66" gradientTransform="matrix(0.3, -0.95, -0.95, -0.3, 1431.72, 1685.1)" xlink:href="#linear-gradient-4"/><linearGradient id="linear-gradient-68" x1="104.07" y1="182.36" x2="104.07" y2="107.58" xlink:href="#linear-gradient-6"/><linearGradient id="linear-gradient-69" x1="111.51" y1="153.95" x2="111.51" y2="106.82" xlink:href="#linear-gradient-6"/><linearGradient id="linear-gradient-70" x1="1.12" y1="87.3" x2="160.16" y2="87.3" xlink:href="#linear-gradient"/><linearGradient id="linear-gradient-71" x1="64.53" y1="79.69" x2="153.21" y2="79.69" xlink:href="#linear-gradient"/><linearGradient id="linear-gradient-72" x1="74.32" y1="108.46" x2="139.94" y2="108.46" xlink:href="#linear-gradient"/><linearGradient id="linear-gradient-73" x1="1088.51" y1="1698.57" x2="1088.51" y2="1592.96" gradientTransform="matrix(0.3, -0.95, -0.95, -0.3, 1431.72, 1685.1)" xlink:href="#linear-gradient-4"/><linearGradient id="linear-gradient-74" x1="199.99" y1="176.31" x2="199.99" y2="143.96" xlink:href="#linear-gradient-6"/><linearGradient id="linear-gradient-75" x1="221.24" y1="168.92" x2="221.24" y2="151.72" xlink:href="#linear-gradient-6"/><linearGradient id="linear-gradient-76" x1="201.53" y1="147.92" x2="201.53" y2="127.36" xlink:href="#linear-gradient-6"/><linearGradient id="linear-gradient-77" x1="169.66" y1="147.28" x2="169.66" y2="120.63" xlink:href="#linear-gradient-6"/><linearGradient id="linear-gradient-78" x1="1027.12" y1="1707.75" x2="1027.12" y2="1616.82" gradientTransform="matrix(0.3, -0.95, -0.95, -0.3, 1431.72, 1685.1)" xlink:href="#linear-gradient-4"/><linearGradient id="linear-gradient-79" x1="174.98" y1="231.55" x2="174.98" y2="197.38" xlink:href="#linear-gradient-6"/><linearGradient id="linear-gradient-80" x1="171.37" y1="258.54" x2="171.37" y2="213.85" xlink:href="#linear-gradient-6"/><linearGradient id="linear-gradient-81" x1="158.58" y1="234.69" x2="158.58" y2="183.99" xlink:href="#linear-gradient-6"/><linearGradient id="linear-gradient-82" x1="154.37" y1="183.19" x2="154.37" y2="150.02" xlink:href="#linear-gradient-6"/><linearGradient id="linear-gradient-83" x1="1402.77" y1="1645.36" x2="1402.77" y2="1588.19" gradientTransform="matrix(0.08, -1, -1, -0.08, 1593.46, 1573.33)" xlink:href="#linear-gradient-4"/><linearGradient id="linear-gradient-84" x1="104.36" y1="69.31" x2="104.36" y2="31.62" xlink:href="#linear-gradient-6"/><linearGradient id="linear-gradient-85" x1="1374.7" y1="1555.5" x2="1374.7" y2="1440.18" gradientTransform="matrix(0.07, -1, -1, -0.07, 1595.01, 1574.32)" xlink:href="#linear-gradient-4"/><linearGradient id="linear-gradient-86" x1="228.45" y1="107.45" x2="228.45" y2="98.48" xlink:href="#linear-gradient-6"/><linearGradient id="linear-gradient-87" x1="188.12" y1="84.59" x2="188.12" y2="80.8" xlink:href="#linear-gradient-6"/><linearGradient id="linear-gradient-88" x1="372.01" y1="190.99" x2="402.9" y2="190.99" gradientTransform="translate(36.38 -35.86) rotate(2.24)" xlink:href="#linear-gradient-25"/><linearGradient id="linear-gradient-89" x1="388.23" y1="186.29" x2="421.91" y2="186.29" gradientTransform="translate(36.38 -35.86) rotate(2.24)" xlink:href="#linear-gradient-25"/><linearGradient id="linear-gradient-90" x1="389.34" y1="190.23" x2="397.04" y2="190.23" gradientTransform="translate(36.38 -35.86) rotate(2.24)" xlink:href="#linear-gradient-25"/><linearGradient id="linear-gradient-91" x1="387.24" y1="193.04" x2="393.74" y2="193.04" gradientTransform="translate(36.38 -35.86) rotate(2.24)" xlink:href="#linear-gradient-25"/><linearGradient id="linear-gradient-92" x1="377.42" y1="193.07" x2="387.46" y2="193.07" gradientTransform="translate(36.38 -35.86) rotate(2.24)" xlink:href="#linear-gradient-25"/><linearGradient id="linear-gradient-93" x1="398.62" y1="180.82" x2="413.79" y2="180.82" gradientTransform="translate(36.38 -35.86) rotate(2.24)" xlink:href="#linear-gradient-25"/><linearGradient id="linear-gradient-94" x1="394.24" y1="177.21" x2="420.41" y2="177.21" gradientTransform="translate(36.38 -35.86) rotate(2.24)" xlink:href="#linear-gradient-25"/><linearGradient id="linear-gradient-95" x1="388.23" y1="189.18" x2="415.62" y2="189.18" gradientTransform="translate(36.38 -35.86) rotate(2.24)" xlink:href="#linear-gradient-25"/><linearGradient id="linear-gradient-96" x1="394.94" y1="196.26" x2="402.9" y2="196.26" gradientTransform="translate(36.38 -35.86) rotate(2.24)" xlink:href="#linear-gradient-25"/><linearGradient id="linear-gradient-97" x1="339.52" y1="128.33" x2="369.16" y2="128.33" gradientTransform="translate(36.38 -35.86) rotate(2.24)" xlink:href="#linear-gradient-4"/><linearGradient id="linear-gradient-98" x1="362.91" y1="101.78" x2="387.42" y2="101.78" gradientTransform="translate(36.38 -35.86) rotate(2.24)" xlink:href="#linear-gradient-25"/><linearGradient id="linear-gradient-99" x1="349.41" y1="135.28" x2="374.71" y2="135.28" gradientTransform="translate(36.38 -35.86) rotate(2.24)" xlink:href="#linear-gradient-4"/><linearGradient id="linear-gradient-100" x1="371.04" y1="127.78" x2="390.01" y2="127.78" gradientTransform="translate(36.38 -35.86) rotate(2.24)" xlink:href="#linear-gradient-25"/><linearGradient id="linear-gradient-101" x1="358.44" y1="109.33" x2="367.67" y2="109.33" gradientTransform="translate(36.38 -35.86) rotate(2.24)" xlink:href="#linear-gradient-4"/><linearGradient id="linear-gradient-102" x1="365.32" y1="114.75" x2="383.65" y2="114.75" gradientTransform="translate(36.38 -35.86) rotate(2.24)" xlink:href="#linear-gradient-4"/><linearGradient id="linear-gradient-103" x1="369.95" y1="128.44" x2="373.79" y2="128.44" gradientTransform="translate(36.38 -35.86) rotate(2.24)" xlink:href="#linear-gradient-4"/><linearGradient id="linear-gradient-104" x1="370.29" y1="134.06" x2="379.74" y2="134.06" gradientTransform="translate(36.38 -35.86) rotate(2.24)" xlink:href="#linear-gradient-4"/><linearGradient id="linear-gradient-105" x1="369.01" y1="157.99" x2="437.56" y2="157.99" gradientTransform="translate(36.38 -35.86) rotate(2.24)" xlink:href="#linear-gradient-4"/><linearGradient id="linear-gradient-106" x1="328.97" y1="161.08" x2="430.37" y2="161.08" gradientTransform="translate(36.38 -35.86) rotate(2.24)" xlink:href="#linear-gradient"/><linearGradient id="linear-gradient-107" x1="358.16" y1="179.42" x2="382.25" y2="179.42" gradientTransform="translate(36.38 -35.86) rotate(2.24)" xlink:href="#linear-gradient-4"/><linearGradient id="linear-gradient-108" x1="339.03" y1="174.15" x2="380.76" y2="174.15" gradientTransform="translate(36.38 -35.86) rotate(2.24)" xlink:href="#linear-gradient"/><linearGradient id="linear-gradient-109" x1="215.37" y1="135.44" x2="286.72" y2="135.44" gradientTransform="translate(36.38 -35.86) rotate(2.24)" xlink:href="#linear-gradient-4"/><linearGradient id="linear-gradient-110" x1="229.26" y1="149.21" x2="264.07" y2="149.21" gradientTransform="translate(36.38 -35.86) rotate(2.24)" xlink:href="#linear-gradient-4"/><linearGradient id="linear-gradient-111" x1="232.81" y1="155.33" x2="282.52" y2="155.33" gradientTransform="translate(36.38 -35.86) rotate(2.24)" xlink:href="#linear-gradient-4"/><linearGradient id="linear-gradient-112" x1="199.78" y1="128.94" x2="229.64" y2="128.94" gradientTransform="translate(36.38 -35.86) rotate(2.24)" xlink:href="#linear-gradient-4"/><linearGradient id="linear-gradient-113" x1="195.87" y1="99.51" x2="229.47" y2="99.51" gradientTransform="translate(36.38 -35.86) rotate(2.24)" xlink:href="#linear-gradient-4"/><linearGradient id="linear-gradient-114" x1="202.18" y1="127.34" x2="250.05" y2="127.34" gradientTransform="translate(36.38 -35.86) rotate(2.24)" xlink:href="#linear-gradient-4"/><linearGradient id="linear-gradient-115" x1="312.08" y1="203.02" x2="315.95" y2="159.34" gradientTransform="translate(36.38 -35.86) rotate(2.24)" xlink:href="#linear-gradient-25"/><linearGradient id="linear-gradient-116" x1="299.26" y1="177.5" x2="329.21" y2="177.5" gradientTransform="translate(36.38 -35.86) rotate(2.24)" xlink:href="#linear-gradient-25"/><linearGradient id="linear-gradient-117" x1="309.63" y1="187.4" x2="317.79" y2="187.4" gradientTransform="translate(36.38 -35.86) rotate(2.24)" xlink:href="#linear-gradient-25"/><linearGradient id="linear-gradient-118" x1="367.25" y1="157.29" x2="314.05" y2="157.29" gradientTransform="translate(36.38 -35.86) rotate(2.24)" xlink:href="#linear-gradient-25"/><linearGradient id="linear-gradient-119" x1="298.34" y1="147.38" x2="352.72" y2="147.38" gradientTransform="translate(36.38 -35.86) rotate(2.24)" xlink:href="#linear-gradient-25"/><linearGradient id="linear-gradient-120" x1="299" y1="101.57" x2="324.01" y2="148.43" gradientTransform="translate(36.38 -35.86) rotate(2.24)" xlink:href="#linear-gradient-25"/><linearGradient id="linear-gradient-121" x1="312.99" y1="155.21" x2="345.97" y2="155.21" gradientTransform="translate(36.38 -35.86) rotate(2.24)" xlink:href="#linear-gradient-25"/><linearGradient id="linear-gradient-122" x1="321.74" y1="169.17" x2="342.92" y2="169.17" gradientTransform="translate(36.38 -35.86) rotate(2.24)" xlink:href="#linear-gradient-25"/><linearGradient id="linear-gradient-123" x1="302.86" y1="137.27" x2="318.78" y2="137.27" gradientTransform="translate(36.38 -35.86) rotate(2.24)" xlink:href="#linear-gradient-25"/><linearGradient id="linear-gradient-124" x1="303.95" y1="131.38" x2="307.39" y2="131.38" gradientTransform="translate(36.38 -35.86) rotate(2.24)" xlink:href="#linear-gradient-25"/><linearGradient id="linear-gradient-125" x1="290.93" y1="129.4" x2="301.53" y2="129.4" gradientTransform="translate(36.38 -35.86) rotate(2.24)" xlink:href="#linear-gradient-25"/><linearGradient id="linear-gradient-126" x1="248.3" y1="151.66" x2="300.44" y2="132.99" gradientTransform="translate(36.38 -35.86) rotate(2.24)" xlink:href="#linear-gradient-25"/><linearGradient id="linear-gradient-127" x1="247.62" y1="151.29" x2="304.41" y2="151.29" gradientTransform="translate(36.38 -35.86) rotate(2.24)" xlink:href="#linear-gradient-25"/><linearGradient id="linear-gradient-128" x1="244.3" y1="185.54" x2="304.5" y2="185.54" gradientTransform="translate(36.38 -35.86) rotate(2.24)" xlink:href="#linear-gradient-25"/><linearGradient id="linear-gradient-129" x1="263.02" y1="144.89" x2="285.1" y2="144.89" gradientTransform="translate(36.38 -35.86) rotate(2.24)" xlink:href="#linear-gradient-25"/><linearGradient id="linear-gradient-130" x1="275.09" y1="133.12" x2="285.43" y2="133.12" gradientTransform="translate(36.38 -35.86) rotate(2.24)" xlink:href="#linear-gradient-25"/><linearGradient id="linear-gradient-131" x1="264.23" y1="171.59" x2="295.68" y2="171.59" gradientTransform="translate(36.38 -35.86) rotate(2.24)" xlink:href="#linear-gradient-25"/><linearGradient id="linear-gradient-132" x1="273.5" y1="179.75" x2="289.29" y2="179.75" gradientTransform="translate(36.38 -35.86) rotate(2.24)" xlink:href="#linear-gradient-25"/><linearGradient id="linear-gradient-133" x1="278.36" y1="186.57" x2="297.18" y2="186.57" gradientTransform="translate(36.38 -35.86) rotate(2.24)" xlink:href="#linear-gradient-25"/><linearGradient id="linear-gradient-134" x1="310.37" y1="192.06" x2="313.06" y2="192.06" gradientTransform="translate(36.38 -35.86) rotate(2.24)" xlink:href="#linear-gradient-25"/><linearGradient id="linear-gradient-135" x1="278.1" y1="116.11" x2="341.97" y2="116.11" gradientTransform="translate(36.38 -35.86) rotate(2.24)" xlink:href="#linear-gradient-25"/></defs><title>Asset 3</title><g class="cls-1"><g id="Layer_2" data-name="Layer 2"><g id="PRINT"><path class="cls-2" d="M130.69,184.78c-2.69,11-1,23.63,1.08,34.68a229.86,229.86,0,0,0,9.46,34.69c3.42,9.62,7.37,19,10.78,28.67,1.91,5.42,2.72,10.72,4,16.2.94,3.88,2.64,7.69,3.79,11.52,2.4,8,4.27,16.1,5.9,24.26,5,25,7.16,50.84,4.63,76.29-2.3,23.16-8.25,44.84-16.13,66.69-.56,1.55,1.85,2.53,2.63,1.11,9-16.44,12.07-36.05,16.15-54.19,5.64-25.11,4-52.46.34-77.75a324.52,324.52,0,0,0-10.3-47.22c-1.07-3.58-1-6.3-1.87-10.45-1.91-8.7-4.74-17.19-7.36-25.7-3.84-12.49-7.83-25-10.93-37.71C141.33,219.49,140,213,139,206.52c-1-6.94-1.07-13.92-1.82-20.86-.38-3.46-5.55-4.79-6.5-.88Z"/><path class="cls-3" d="M164.16,317c2.45,7.44,9,14.05,13.82,20.12,5.77,7.2,11.84,14.16,17.61,21.36s11.47,14.37,16,22.27,7.42,16.38,10.63,24.93a1.21,1.21,0,0,0,2.34-.64c-1.4-8.47-5.69-16.69-9.95-24.06A186.54,186.54,0,0,0,201,360.51c-5.59-7.24-11.51-14.23-17.37-21.25-3.15-3.77-6.3-7.54-9.32-11.42s-5.54-8.23-9.17-11.39c-.42-.37-1.21,0-1,.58Z"/><path class="cls-4" d="M197.17,490.48c.06-13.76-8.69-27.51-13.31-40.09-5.57-15.18-10.05-30.88-10.65-47.11a1.07,1.07,0,0,0-2.09-.28c-4.12,15.61,0,31,7.13,45.08,3.41,6.78,6.94,13.44,9.94,20.42,3.14,7.3,5.05,14.63,7.23,22.22a.9.9,0,0,0,1.75-.24Z"/><path class="cls-5" d="M154.15,280c-16.6,19.67-27.57,60.25-10.07,89.8,12,20.19,30.08,45.3,40.36,59.17a7.88,7.88,0,0,0,13.67-1.82c7.22-18,16.59-53.62-1-90.87C172,283,154.15,280,154.15,280Z"/><g class="cls-6"><path class="cls-7" d="M197.83,423.77c-2-24.91-22.29-43.53-34.08-64-6.81-11.8-11.26-24.07-12.58-37.68A112.89,112.89,0,0,1,151,302.5c.56-7.32,2.49-14.18,3.61-21.37.08-.47-.59-.86-.84-.35-5.26,10.81-5.38,25.56-4.55,37.28a97.31,97.31,0,0,0,9.46,35.76,354.38,354.38,0,0,0,19.23,33.67c3.55,5.65,7.05,11.29,10.16,17.19,3.29,6.25,5.38,12.76,7.79,19.35.35,1,2,.93,1.94-.26Z"/></g><path class="cls-8" d="M160.9,464.4s15.88,37.58,1.51,74c-14.84,37.57-59.19,51.28-67.26,53.76,0,0-15.89-28.84,7.34-80.23C123.14,466.24,160.9,464.4,160.9,464.4Z"/><g class="cls-9"><path class="cls-10" d="M106.37,585c3.78-4.3,6.24-9.9,9.07-14.86,3.15-5.51,6.2-11,9-16.69,1.12-2.27-2.1-4.21-3.43-2-3.28,5.43-6.28,11-9.23,16.56-2.66,5.05-6.1,10.18-7.69,15.67a1.36,1.36,0,0,0,2.26,1.32Z"/></g><path class="cls-11" d="M192.17,473.05c-8.48,14.89-16.64,24.11-16,50.55.58,22.84,22.34,40.34,37.3,40.35,0,0,30.2-27.57,19.47-51.62C218.15,479.07,192.17,473.05,192.17,473.05Z"/><g class="cls-9"><path class="cls-12" d="M190.12,489.56c-6.56,13.41-11.83,30.67-6,45.2a.72.72,0,0,0,1.39-.39c-2.69-15.66,2.36-29.27,6-44.21.21-.83-1-1.42-1.42-.6Z"/></g><g class="cls-9"><path class="cls-13" d="M198.11,512.36a56.66,56.66,0,0,0-6.3,30.39,1,1,0,0,0,1.95,0,144.28,144.28,0,0,1,6.09-29.66,1,1,0,0,0-1.74-.73Z"/></g><g class="cls-9"><path class="cls-14" d="M211.06,522.5a97.64,97.64,0,0,1,12.25,25.19,1.41,1.41,0,0,0,2.72-.75,51.24,51.24,0,0,0-13.8-25.35c-.57-.6-1.67.2-1.17.91Z"/></g><g class="cls-9"><path class="cls-15" d="M206.68,486.7a73.11,73.11,0,0,1,21.55,34.73c.42,1.46,3,1.26,2.77-.37a49.84,49.84,0,0,0-23-36c-1-.65-2.21.86-1.29,1.67Z"/></g><path class="cls-16" d="M215.55,384.8c-4.48,11.44-9.7,42,1.59,63.33,13.56,25.58,36.5,33.18,51.83,36.52a5.47,5.47,0,0,0,5.91-8c-5.56-10-13.34-25.53-16.74-39.9C246.46,387.35,215.55,384.8,215.55,384.8Z"/><g class="cls-6"><path class="cls-7" d="M158.55,465.62c-8.49,20.89-12.89,43-24.62,62.55-10.17,17-30.3,30.88-33.38,51.5-.07.49.64.93.89.38a127.31,127.31,0,0,1,16.23-26.6c6.61-8.61,13.4-17.17,18.9-26.55,10.85-18.55,20-39.52,25.17-60.4.53-2.12-2.41-2.81-3.19-.88Z"/><path class="cls-7" d="M143.2,511.72c-7.8,18.89-11.94,38.83-21.38,57.1a.64.64,0,0,0,1.11.65c4.95-8,8-17.15,11-26,3.52-10.4,7.59-20.81,10.31-31.45a.55.55,0,0,0-1.06-.29Z"/><path class="cls-7" d="M112.14,521.77c10.75-7.14,21.33-13.15,29.43-23.52,3.31-4.23,6.14-8.79,9.31-13.12,3-4.13,6.65-8.17,8.05-13.22.31-1.09-1.38-1.88-1.89-.79-2.19,4.67-5.26,8.62-8.29,12.77-3.39,4.62-6.37,9.52-10,14a74.88,74.88,0,0,1-13.52,12.61c-4.62,3.5-8.85,7.36-13.38,11-.18.14.06.45.26.32Z"/><path class="cls-7" d="M153.84,481.5c-3.72,9.16-2.9,20.67-2.77,30.37.14,10.76.62,21.46-.14,32.21a.28.28,0,0,0,.55.08c2.33-9.95,2.5-20.21,2.47-30.39,0-5.06-.07-10.12.12-15.19.2-5.64,1.21-11.25,1.26-16.88,0-.91-1.19-.95-1.49-.2Z"/><path class="cls-7" d="M103.24,553.86c9.8-6.58,19.94-13.26,28.77-21.14,7.16-6.39,12.72-15,13.59-24.72.09-1.06-1.45-1.14-1.77-.23-3.56,10.17-8.15,18.39-16.58,25.29-8.19,6.7-16.63,13-24.65,20-.45.4.14,1.17.64.84Z"/></g><g class="cls-6"><path class="cls-7" d="M191.64,473.83c0-.32-.58,1.42-.58,1.9,0,1.28,1,2.61,1.56,3.72a31.47,31.47,0,0,1,2.54,7.12c1.8,7.06,3.83,14,6,21,5.24,17.22,9.62,34.63,10.68,52.67a.48.48,0,0,0,1,0c.19-17.91-4.18-36.28-7.59-53.78-1.43-7.3-3.22-14.48-5.08-21.66a27.4,27.4,0,0,0-2.48-7c-.66-1.15-1.59-3.16-2.71-4-.44-.32-1-.38-1.43-.66l-.47-.06c-.68.07-.62.09.2,0a.85.85,0,0,0-1.55.66Z"/><path class="cls-7" d="M195.29,480.32c.46,4.34,2.93,8.2,5.14,11.89,2.72,4.54,5.62,9,8.68,13.33a198.14,198.14,0,0,1,16.41,27.06,1.13,1.13,0,0,0,2.06-.87c-3.37-9.59-9.19-18-14.6-26.52-2.7-4.24-5.6-8.34-8.27-12.6s-4.7-9.23-8.16-12.81c-.42-.43-1.33-.14-1.26.52Z"/><path class="cls-7" d="M196,483.24a84.65,84.65,0,0,1-5.43,21.91c-2.41,6.4-4.92,12.83-4.74,19.77,0,.6,1,.79,1.08.15,1.23-8.35,4.89-15.48,8-23.18,2.37-5.74,4.78-12.72,3.12-18.94-.32-1.22-2-.84-2.08.29Z"/><path class="cls-7" d="M202,507.52c.94,7.77-.25,15.55-1.71,23.18-1.27,6.62-3.22,13.88-2.35,20.61.08.62,1.1.93,1.22.16,1.25-7.93,2.62-15.72,4.13-23.63,1.33-7,1.77-13.61-.29-20.45-.16-.52-1.07-.46-1,.13Z"/><path class="cls-7" d="M207.18,526.16a84.42,84.42,0,0,0,9.13,20.66c.35.58,1.4.21,1.14-.48a177.91,177.91,0,0,0-9.35-20.57.51.51,0,0,0-.92.39Z"/></g><g class="cls-6"><path class="cls-7" d="M220.49,393.38c1.9,9.27,6.95,18.7,10.61,27.4,3.15,7.49,6.32,15,9.82,22.32,6.62,13.9,14.5,28.42,26.6,38.36.72.59,1.73-.36,1-1-11.5-11.36-19.37-24.59-26.06-39.21q-5.25-11.46-10.24-23c-3.53-8.21-6.21-17.55-10.85-25.18a.51.51,0,0,0-.92.39Z"/><path class="cls-7" d="M215.87,385.53a87.7,87.7,0,0,1,7.37,23.91c1.51,10.34-3,20.5-1.1,30.79.14.75,1.23.52,1.27-.17.62-10.74,3.53-21.76,1.71-32.47-1.26-7.44-3.3-16.85-8.67-22.5-.31-.33-.75.08-.58.44Z"/><path class="cls-7" d="M229.81,413.71c2.3,6.74,7.31,12.89,11.62,18.5,4.17,5.41,8.88,10.65,14.52,14.55.56.39,1.22-.48.73-.94-9.9-9.32-19.6-20.44-26.28-32.36-.17-.31-.71-.1-.59.25Z"/><path class="cls-7" d="M234.55,429.52c3.74,13.89,2.94,28.51,11.85,40.56a.48.48,0,0,0,.83-.49,85,85,0,0,1-6.77-21.09c-1.15-6.68-1.88-13.26-5-19.37-.26-.52-1.07-.16-.93.39Z"/><path class="cls-7" d="M238.27,439.71c4.58,9.28,13.36,19.89,22.08,25.48.51.33.95-.38.61-.79-3.35-4.1-7.32-7.68-10.72-11.76-3.72-4.46-6.64-9.39-10.1-14a1.08,1.08,0,0,0-1.87,1.09Z"/></g><g class="cls-6"><path class="cls-7" d="M151.18,294.45c-1.48,5.82,1.15,12.23,3.59,17.43A81.49,81.49,0,0,0,167,330.28c5.11,5.94,10.7,11.43,16.07,17.12,5.62,6,10.32,12.4,15.57,18.63.67.79,1.72-.22,1.34-1-5.86-12.53-18.86-21.5-28.34-31.21a81.47,81.47,0,0,1-13.76-18.13c-3.73-7-4-13.85-6.1-21.2a.32.32,0,0,0-.62,0Z"/></g><g class="cls-6"><path class="cls-7" d="M150.19,314.29c-5.54,18.83-7.85,41.24,3.4,58.62a.69.69,0,0,0,1.19-.7c-8.9-18.6-7.36-37.89-3.83-57.71a.39.39,0,0,0-.76-.21Z"/></g><g class="cls-6"><path class="cls-7" d="M170.26,371.82c.72,6,3.63,11.85,5,17.78,1.22,5.52,1.77,11.1,4.74,16a.51.51,0,0,0,.92-.39c-1.52-6-2.21-12.11-3.62-18.11-1.21-5.17-2.67-11.49-6.09-15.68a.53.53,0,0,0-.9.37Z"/></g><g class="cls-6"><path class="cls-7" d="M149.49,317.14c2.66,13.15,10.38,26,17.59,37.19s16.14,23,26.6,31.5a.85.85,0,0,0,1.2-1.21c-9.67-10.24-19.07-19.93-26.83-31.81-7.46-11.41-11.88-23.88-18-35.92-.17-.34-.66-.09-.59.25Z"/></g><g class="cls-9"><path class="cls-17" d="M133.6,566.44c4.74-7.49,8-16.18,10.68-24.61s4.56-17.59,4-26.46c0-.64-1-.86-1.19-.16-1.67,8.4-2.75,16.81-5,25.11-2.4,8.9-6.28,16.84-10.31,25.08a1,1,0,0,0,1.79,1Z"/></g><g class="cls-9"><path class="cls-18" d="M97,552.13c6.42-10.66,19.82-13.73,29-21.4a55.41,55.41,0,0,0,18.62-29.31c.38-1.6-2.06-2.83-2.79-1.18-5.25,11.92-12.69,23-23.41,30.63-8.29,5.92-19.17,10.44-22.87,20.64-.32.87,1,1.38,1.47.62Z"/></g><g class="cls-9"><path class="cls-19" d="M95.76,571.74c3.88-5.62,9.16-10.49,14-15.31a178.88,178.88,0,0,1,14.38-13.57c.84-.67-.23-1.82-1.08-1.41-6.08,3-11,8.76-15.62,13.52s-10.25,9.87-13.23,15.84a.92.92,0,0,0,1.59.93Z"/></g><g class="cls-9"><path class="cls-20" d="M109.2,510.66c4.82-1.1,9.69-5.32,13.81-8,4.95-3.22,9.59-6.8,14.26-10.4,8-6.16,16.12-15.62,19.39-25.34.21-.63-.72-1.21-1.16-.67a233.49,233.49,0,0,1-21.95,24.13A166.78,166.78,0,0,1,120.23,501c-3.69,2.79-8.75,5.29-11.48,9-.22.31.14.67.45.59Z"/></g><g class="cls-9"><path class="cls-21" d="M172.68,352.2c5.18,7.19,12.11,12.91,18.1,19.4a65.39,65.39,0,0,1,8,10.13c2.13,3.52,3.2,7.37,4.84,11.09.52,1.16,2,.41,2.15-.58.81-7.81-5.07-15.61-10-21.12-6.43-7.24-13.66-14.83-21.58-20.42-.88-.61-2.13.62-1.5,1.5Z"/></g><g class="cls-9"><path class="cls-22" d="M180.69,381.36a90.29,90.29,0,0,1,10.52,12.73c2.78,4.34,4.6,9.09,7.12,13.55.84,1.48,2.82.41,2.58-1.09-1.68-10.45-10.24-21.21-18.75-27.09-1.17-.8-2.38.93-1.47,1.9Z"/></g><g class="cls-9"><path class="cls-23" d="M155.51,349c-.51,9.55,3.32,18.13,6.8,26.82,2.24,5.62,4.35,11.27,6.2,17,2.33,7.28,3.76,14.79,6,22.08a1.07,1.07,0,0,0,2.09-.29c-.5-23.59-15.67-43.14-19.37-65.89-.17-1-1.7-.71-1.75.24Z"/></g><g class="cls-9"><path class="cls-24" d="M145.35,303.41c-8.25,13.33-8.58,34.11-3.58,48.59.27.8,1.7.74,1.58-.21-.94-7.81-1.67-15.46-1-23.32.74-8.4,3.4-16,5.23-24.11a1.24,1.24,0,0,0-2.26-.95Z"/></g><g class="cls-9"><path class="cls-25" d="M158.24,295.68c5.53,16.58,17.94,32.63,30.32,44.76,1.22,1.2,2.85-.56,1.83-1.83-5.7-7.12-11.31-14.25-16.54-21.73-5-7.11-9.09-14.79-14.19-21.8-.48-.66-1.72-.3-1.42.6Z"/></g><g class="cls-9"><path class="cls-26" d="M231.11,428c-1.78,7.49-.17,15.5,1.89,22.77,2.22,7.8,5.08,15.72,9.49,22.56a1,1,0,0,0,1.69-1c-6.22-12.92-12.61-29.42-10.7-44,.18-1.36-2.06-1.63-2.37-.32Z"/></g><g class="cls-9"><path class="cls-27" d="M219.53,400c-4.06,15.22-4.09,30.86-1.14,46.27a.78.78,0,0,0,1.53-.21,348.54,348.54,0,0,1,1.47-45.81c.1-1.08-1.59-1.27-1.86-.25Z"/></g><g class="cls-9"><path class="cls-28" d="M223.46,395.17c5,7.13,10.47,13.86,16,20.56S249.7,430,255.7,436.14c.64.67,2,0,1.63-.95-2.8-7.38-8.75-13.74-13.69-19.8-6-7.33-12.08-14.59-18.69-21.37-.73-.75-2.12.25-1.49,1.15Z"/></g><path class="cls-29" d="M188.45,323.85c-.65,3.78-4,6.24-11.29,6-9.19-3-6.22,7.63-12.8,9.1.49-8.52-4.47-27.87-6.82-39.05a61,61,0,0,1-1.18-6.89,5.79,5.79,0,0,1,0-1l.14-.08c6.95-4.1,23.87,10.46,29.88,22.73C188.05,318.05,188.88,321.26,188.45,323.85Z"/><path class="cls-30" d="M188.45,323.85c-4.25-2-7.59-4.56-20-19.77-3.25-4-10.14-5.27-10.91-4.14a32.85,32.85,0,0,1-1.18-6.89,4,4,0,0,1,.14-1.11c6.95-4.1,23.87,10.46,29.88,22.73A76.09,76.09,0,0,1,188.45,323.85Z"/><g class="cls-6"><path class="cls-31" d="M176.32,327.32a.55.55,0,0,1-.18,0,.76.76,0,0,1-.62-.87c0-.08,1-7-7.56-17.42a.76.76,0,1,1,1.17-1c9.08,11,7.94,18.33,7.89,18.63A.75.75,0,0,1,176.32,327.32Z"/></g><path class="cls-32" d="M155.41,293.55c26,.11,51.87,34.84,52.4,3.75,0-13.86,8.14-18.16-4.82-35.32C196.64,253.58,155.85,290.08,155.41,293.55Z"/><path class="cls-33" d="M174.15,275.55l-18.53,17.51a1.7,1.7,0,0,0-.17.39l25.92-16.34c19.75-9.54,24.63-6.48,27.11-5.31A36.78,36.78,0,0,0,203,262C199.54,257.42,185.93,266.1,174.15,275.55Z"/><path class="cls-34" d="M155.41,293.55c1.43-5.36,60.3-41,34.17-50.46a24.16,24.16,0,0,0-16.81.26c-2.74,1.29-1.86,6.34-4,5.27s-.42-4.37-4.7-6.53-6.13-.85-7.05-1.38c-12.33-7.05-18.54-3.81-24.26.79a2.92,2.92,0,0,0-.34,4C140,256.75,155.44,280.28,155.41,293.55Z"/><g class="cls-6"><path class="cls-35" d="M202,287.41a.72.72,0,0,1-.55-.19c-.1-.07-9.45-8-31.17-3.86a.76.76,0,1,1-.29-1.49c22.54-4.34,32.07,3.87,32.46,4.22a.76.76,0,0,1,.07,1.07A.78.78,0,0,1,202,287.41Z"/></g><g class="cls-6"><path class="cls-36" d="M200.15,304.92a.77.77,0,0,1-.77-.52c0-.08-2.71-7.31-20-11.62a.76.76,0,0,1-.55-.92.75.75,0,0,1,.92-.55c18.23,4.54,21,12.28,21.07,12.61a.76.76,0,0,1-.49,1Z"/></g><g class="cls-6"><path class="cls-37" d="M160.16,284.82a.76.76,0,0,1-.68-1.18c11.24-16.31,12.08-32.13,12.09-32.28a.76.76,0,1,1,1.52.06c0,.17-.87,16.42-12.36,33.08A.72.72,0,0,1,160.16,284.82Z"/></g><g class="cls-6"><path class="cls-38" d="M161.22,275.91H161a.77.77,0,0,1-.61-.88c2.34-13.09-2.24-25.3-2.29-25.42a.76.76,0,0,1,1.42-.54c.2.51,4.78,12.72,2.36,26.22A.76.76,0,0,1,161.22,275.91Z"/></g><g class="cls-6"><path class="cls-39" d="M156.44,282.57h-.15a.76.76,0,0,1-.66-.84c2.31-19.15-11-41.15-11.12-41.37a.76.76,0,0,1,1.3-.79c.56.92,13.7,22.66,11.33,42.34A.78.78,0,0,1,156.44,282.57Z"/></g><path class="cls-40" d="M161.32,289c-21.32-14.89-22.83-58.16-41-32.89-7.88,11.39-17,10.3-16.13,31.79C104.67,298.38,159,291.57,161.32,289Z"/><path class="cls-41" d="M161.23,289a1.11,1.11,0,0,1-.36.22l-25.21,3.87c-15,1.06-31.2.46-31.43-5.25a37.14,37.14,0,0,1,1.07-11.21c1.37,2.38,3.64,7.67,25.32,11.07l7.44.31,3.77.16Z"/><path class="cls-42" d="M161.32,289c-4.23,3.6-72.91-.59-56.81,22.06a24.08,24.08,0,0,0,14,9.34c3,.51,5.14-4.14,6.29-2s-2.14,3.83.16,8,4.55,4.19,5,5.14c6.13,12.82,13.08,13.69,20.4,13.15a2.9,2.9,0,0,0,2.54-3.06C153.07,328,153.74,299.86,161.32,289Z"/><g class="cls-6"><path class="cls-43" d="M141.83,288.19l-3.77-.16c-16.87-8.86-19.58-19.24-19.7-19.71a.76.76,0,0,1,1.48-.35C119.87,268.08,122.88,279.37,141.83,288.19Z"/></g><g class="cls-6"><path class="cls-44" d="M140.65,277.21A.77.77,0,0,1,140,277c-12.41-14.11-10.24-22-10.14-22.36a.76.76,0,1,1,1.45.43c0,.1-1.91,7.57,9.84,20.93a.75.75,0,0,1-.52,1.25Z"/></g><g class="cls-6"><path class="cls-45" d="M123.47,314.76a.69.69,0,0,1-.51-.15.75.75,0,0,1-.15-1.06c.1-.13,10.06-13,29-20.17a.76.76,0,1,1,.54,1.42c-18.52,7-28.21,19.54-28.31,19.67A.74.74,0,0,1,123.47,314.76Z"/></g><g class="cls-6"><path class="cls-46" d="M133.39,324.13a.86.86,0,0,1-.23,0,.76.76,0,0,1-.56-.92c.13-.53,3.31-13.18,13-22.91a.77.77,0,0,1,1.08,0,.76.76,0,0,1,0,1.07c-9.36,9.42-12.55,22.08-12.58,22.2A.75.75,0,0,1,133.39,324.13Z"/></g><g class="cls-6"><path class="cls-47" d="M139.31,339.62h-.1a.75.75,0,0,1-.71-.8c.06-1.07,1.62-26.42,14.77-41.26a.76.76,0,1,1,1.13,1C141.6,313,140,338.65,140,338.91A.75.75,0,0,1,139.31,339.62Z"/></g><g class="cls-6"><path class="cls-48" d="M170.86,328.52a.72.72,0,0,1-.25,0,.76.76,0,0,1-.53-.93c1.69-6.2-.83-10.16-.86-10.2a.76.76,0,0,1,.22-1.05.77.77,0,0,1,1.05.21c.12.19,2.93,4.54,1,11.44A.74.74,0,0,1,170.86,328.52Z"/></g><path class="cls-49" d="M132.75,241.5a2.92,2.92,0,0,0-.34,4c.19.29.41.62.62.92,4.57.29,13.12-10.51,17.84-7.54,1.29.81,1.61,2.21,3.7,3.05,2.82,1.13,4.06-.69,6.14.37,2.59,1.31,1.81,4.69,4.94,6.7a6.44,6.44,0,0,0,4.61.95c2.82-.62,2.81-3.46,5-5.15,4.13-3.2,14.06-.57,17.7,4.86a10.67,10.67,0,0,1,1.69,6.4c2.93-5.54,2.3-10.27-5-12.94a24.16,24.16,0,0,0-16.81.26c-2.74,1.29-1.86,6.33-4,5.27s-.42-4.37-4.7-6.53-6.13-.85-7.05-1.38C144.68,233.66,138.47,236.9,132.75,241.5Z"/><path class="cls-50" d="M157.7,287.92a2.16,2.16,0,0,0,1.08,2.89,2.24,2.24,0,0,0,3-.89,2.18,2.18,0,0,0-1.08-2.9A2.24,2.24,0,0,0,157.7,287.92Z"/><path class="cls-50" d="M152.6,293.26a2.17,2.17,0,0,0,1.08,2.9,2.24,2.24,0,0,0,3-.9,2.17,2.17,0,0,0-1.08-2.89A2.24,2.24,0,0,0,152.6,293.26Z"/><path class="cls-50" d="M161.63,281.06a2.17,2.17,0,0,0,1.08,2.89,2.24,2.24,0,0,0,3-.89,2.17,2.17,0,0,0-1.08-2.9A2.24,2.24,0,0,0,161.63,281.06Z"/><path class="cls-50" d="M160.92,294.08A2.17,2.17,0,0,0,162,297a2.23,2.23,0,0,0,3-.89,2.17,2.17,0,0,0-1.08-2.9A2.24,2.24,0,0,0,160.92,294.08Z"/><path class="cls-50" d="M166.06,287.92a2.16,2.16,0,0,0,1.08,2.89,2.24,2.24,0,0,0,3-.9,2.17,2.17,0,0,0-1.08-2.89A2.24,2.24,0,0,0,166.06,287.92Z"/><path class="cls-50" d="M169.55,281.4a2.16,2.16,0,0,0,1.08,2.89,2.23,2.23,0,0,0,3-.89,2.17,2.17,0,0,0-1.08-2.9A2.23,2.23,0,0,0,169.55,281.4Z"/><path class="cls-50" d="M152.84,282.13a2.17,2.17,0,0,0,1.08,2.9,2.23,2.23,0,0,0,3-.9,2.16,2.16,0,0,0-1.08-2.89A2.23,2.23,0,0,0,152.84,282.13Z"/><path class="cls-50" d="M155.46,276.09a2.16,2.16,0,0,0,1.08,2.89,2.24,2.24,0,0,0,3-.9,2.17,2.17,0,0,0-1.08-2.89A2.24,2.24,0,0,0,155.46,276.09Z"/><path class="cls-50" d="M168.93,295.37a2.17,2.17,0,0,0,1.08,2.9,2.24,2.24,0,0,0,3-.9,2.17,2.17,0,0,0-1.08-2.89A2.24,2.24,0,0,0,168.93,295.37Z"/><path class="cls-51" d="M163.17,236.1c13.71-30.3,73.33-110.39,64.06-133.89,0,0,20.11,34.63-1.8,87.72S163.17,236.1,163.17,236.1Z"/><g class="cls-6"><path class="cls-7" d="M190.82,219.83c15.76-8.66,22.17-28.36,26.6-44.66,3.1-11.42,5.33-23.23,7.49-34.87,1.07-5.75,1.34-11.61,2.22-17.39a152.93,152.93,0,0,0,2-17.47c0-.46-.74-.58-.82-.11-2,10.83-3.18,21.63-5.48,32.4-2.37,11.12-4.84,22-7.82,33C210.09,189,203.79,205.39,190.2,219a.51.51,0,0,0,.62.8Z"/></g><g class="cls-9"><path class="cls-52" d="M181.17,225.47c2.57-3.37,4.49-7.18,7.15-10.52,2.52-3.17,5.32-6.12,8-9.2A68.48,68.48,0,0,0,208.6,184c3.26-9.07,5.3-18.43,9-27.35,3.64-8.67,8.09-17.28,9.26-26.71.28-2.33-3-2.29-3.75-.51-3.78,9-7.23,18.23-11,27.28-3.63,8.71-6.12,17.73-9.44,26.54s-8.5,15.88-14.45,23.13c-4.29,5.23-9.79,11.22-10.12,18.31-.08,1.79,2.15,2,3,.82Z"/></g><g class="cls-9"><path class="cls-53" d="M213.06,198.52c7.47-9.21,12.05-19.34,15.16-30.76,3-11.09,5.07-23.18,3.24-34.62-.39-2.41-3.78-1.56-4,.54-1,11-1.33,21.92-4.1,32.75-2.73,10.65-7.08,21.12-11.5,31.17-.32.71.59,1.64,1.18.92Z"/></g><path class="cls-54" d="M289,183.85c-4.76-13.67-13.22-26.63-21.07-38.7-8.46-13-17.69-25.52-27.4-37.62-20-24.92-42-48.33-64.65-70.86C163.56,24.45,151.19,12.21,138.44.48a1.7,1.7,0,0,0-2.4,2.4c42,45.59,88.59,86.8,123.46,138.59Q266.58,152,272.87,163c4.21,7.4,7.69,15.23,12,22.57,1.25,2.15,5,.74,4.11-1.73Z"/><path class="cls-55" d="M202.11,64.63c10.37,17.86,26.57,30.39,43.51,41.66,17.84,11.87,36,23.08,53.69,35.23,1.37.94,3-1.2,1.78-2.31-15.27-13.63-34-23.27-51.07-34.41-17.45-11.39-34-24.48-47-40.88-.43-.53-1.25.15-.93.71Z"/><path class="cls-56" d="M210.37,77.72c11.92,17.34,22.21,36,28.65,56.08a178.51,178.51,0,0,1,6.78,29.4c1.5,10.47,1.07,21.14,2.53,31.57.18,1.29,2.27,1.21,2.52,0,2.05-10,.62-21-.83-31A179.52,179.52,0,0,0,242.43,132c-6.82-20.19-16.89-39.11-31.29-54.87-.37-.4-1.09.13-.77.59Z"/><path class="cls-57" d="M279.82,170.29c5.95,27.11-3.89,43.71,5,75.47,13.43,48.19,50.13,73.14,50.13,73.14s27.17-54.34,6.58-93.84S279.82,170.29,279.82,170.29Z"/><g class="cls-6"><path class="cls-7" d="M331.69,304.71c.14-11.23-1.54-23.16-3.61-34.19a236.79,236.79,0,0,0-9.47-34.38,206.16,206.16,0,0,0-13.8-30.75c-2.92-5.33-6-10.61-9.2-15.79-2.82-4.57-5.65-10.18-9.76-13.71-.65-.57-1.93,0-1.59.92,1.72,4.89,5.3,9.32,7.91,13.8,2.92,5,5.65,10.14,8.14,15.4,5,10.54,9.42,21.41,13.43,32.37a299.1,299.1,0,0,1,9.63,32.54q2,8.43,3.91,16.91c1.24,5.66,1.62,11.43,2.67,17.11.19,1,1.72.74,1.74-.23Z"/><path class="cls-7" d="M344.32,270.58c-6.61-11.27-13.49-22.27-20.6-33.24C317,227,310.81,215.79,303.16,206.08c-.67-.86-1.93.24-1.46,1.13,5.87,11.13,13.76,21.53,20.63,32.08s14.08,21.19,21.51,31.57c.21.28.67,0,.48-.28Z"/><path class="cls-7" d="M341.43,244.2c-6-12.59-14-23.74-23.17-34.19-4.65-5.3-9.6-10.32-14.66-15.23-4.7-4.57-9.58-10.51-15.32-13.72-.77-.44-1.8.46-1.27,1.27,3.36,5.1,8.94,9.08,13.32,13.32q7.59,7.35,14.84,15.07a175.84,175.84,0,0,1,25.37,34c.33.58,1.16.07.89-.52Z"/><path class="cls-7" d="M319.4,290.73c-.12-5.57-1.09-11.12-1.23-16.72a171.33,171.33,0,0,1,.68-17.4c.73-10-.44-20.85-5.75-29.55a.77.77,0,0,0-1.4.59c.79,5.14,3,9.95,3.93,15.09,1,5.83.49,11.55,0,17.4-.85,9.93-1.11,21.28,2.32,30.79.27.75,1.48.69,1.46-.2Z"/><path class="cls-7" d="M298.79,265.58c-3.1-14.86,1.19-29.69,2.52-44.5,1-11.06.78-23.83-6.62-32.78-.58-.71-1.55.2-1.2.93,6,12.7,6.19,25.38,4.32,39.08-1.71,12.59-3.6,25.09,0,37.54a.51.51,0,0,0,1-.27Z"/></g><g class="cls-9"><path class="cls-58" d="M311.94,285.72c-.55-8.91-1.1-17.85-1.42-26.78-.29-8.28.69-17.45-1.15-25.53a2.19,2.19,0,0,0-4.2,0c-2,8.24-.62,18.12,0,26.49a249.81,249.81,0,0,0,3.33,26.29c.35,1.93,3.55,1.49,3.43-.47Z"/></g><g class="cls-9"><path class="cls-59" d="M340.74,289.8a101.93,101.93,0,0,0-3.37-17.66c-1.52-5.25-3.16-11-6.81-15.2-1-1.12-3.33-.29-3.12,1.29.7,5.3,3.27,10.24,5,15.26,1.92,5.49,3.56,11.12,5,16.75.45,1.77,3.47,1.47,3.27-.44Z"/></g><g class="cls-9"><path class="cls-60" d="M344.15,257.43a274,274,0,0,0-16.31-27c-5.74-8.33-11.69-16.64-19.49-23.16a1.39,1.39,0,0,0-2.18,1.68c4.91,8.93,11.39,16.83,17.24,25.14s11.55,16.89,17,25.54a2.18,2.18,0,0,0,3.76-2.21Z"/></g><g class="cls-9"><path class="cls-61" d="M288.6,228.46a184.29,184.29,0,0,0,3.59-20c.73-6.55,1.65-13.85.05-20.31a1.52,1.52,0,0,0-2.91,0c-1.64,6.15-1.29,13-1.51,19.37-.24,6.92-.36,13.84-.77,20.76a.79.79,0,0,0,1.55.21Z"/></g><path class="cls-62" d="M252.57,178.93C241.88,201,208.5,259.25,205.93,293.62c-2,26.49,2.92,70.36,5.27,89.09a4.24,4.24,0,0,0,7.4,2.25c11.19-12.64,34.34-42,42.69-76.52C272.48,262.15,252.57,178.93,252.57,178.93Z"/><g class="cls-6"><path class="cls-7" d="M221.13,373.88c3-14,9.7-26.38,14.77-39.66,5.26-13.77,6.89-27.51,7.44-42.13.61-15.93,1.41-31.84,2.26-47.75.87-16.23,2.76-32.57,2.39-48.83,0-1.07-1.8-1.42-2-.26-2.13,15.24-2.18,30.75-3.14,46.1-1,16.29-2,32.56-3.33,48.83-1.19,15-2.95,29.47-7.94,43.77-4.52,12.93-9.85,26.09-11,39.86,0,.29.44.35.5.07Z"/><path class="cls-7" d="M222.92,326.56c3.87-10.27,7.6-20.63,12.54-30.45,3.57-7.09,9.66-16.22,7.42-24.53a.58.58,0,0,0-1.14.16c-.5,6.07-1.26,10.85-4,16.41-2.09,4.29-4.52,8.41-6.61,12.7a114.24,114.24,0,0,0-9.23,25.44.51.51,0,0,0,1,.27Z"/><path class="cls-7" d="M218.18,301.87c6.17-16.18,12.54-32.29,18.61-48.51,5.51-14.71,10.73-31.18,10.27-47.06a1.16,1.16,0,0,0-2.32,0c-1.2,17-5.56,32.06-11.59,47.89s-12.25,30.94-15.64,47.5a.35.35,0,0,0,.67.18Z"/><path class="cls-7" d="M252.75,296.69c.63-8.3-.51-16.18-2.31-24.27-.92-4.13-2-8.21-3-12.34-1-4.36-1.42-8.95-2.86-13.17a1.08,1.08,0,0,0-2.1.29c-1,7.62,2.3,16.13,4.38,23.38,2.47,8.58,5.09,17.14,5.57,26.11a.14.14,0,0,0,.28,0Z"/></g><g class="cls-9"><path class="cls-63" d="M241.82,335c2.81-8.27,3.84-16.94,4.62-25.63.74-8.22,1.91-17.88-.21-25.95-.35-1.33-2.55-1.46-2.83,0-1.51,8.07-.63,16.79-1.21,25-.63,8.79-2.11,17.47-2.71,26.25-.1,1.4,1.93,1.53,2.34.32Z"/></g><g class="cls-9"><path class="cls-64" d="M218.1,364.3c2.61-10.55,5.07-21.14,7.75-31.67q2-7.69,4.25-15.29c1.48-4.9,3.32-9.88,3.41-15,0-1.91-2.35-2.25-3.33-.9-6,8.3-7.73,20.82-10,30.63a192.23,192.23,0,0,0-4.71,31.91,1.36,1.36,0,0,0,2.65.36Z"/></g><g class="cls-9"><path class="cls-65" d="M214.59,325.55c5.91-9.6,9.59-21.34,13.7-31.81,4.28-10.91,9.94-22.35,12-33.93a1.4,1.4,0,0,0-2.54-1.07c-6.1,9.58-9.52,21.31-13.65,31.84-4.27,10.87-9.74,22.45-12,33.93a1.35,1.35,0,0,0,2.46,1Z"/></g><g class="cls-9"><path class="cls-66" d="M255.32,265.61c-1.58-9.43-3.48-18.79-5-28.24s-1.42-19.09-3.59-28.26c-.55-2.36-3.64-1.53-3.89.53-1.16,9.18.84,19.07,2.33,28.17a140.2,140.2,0,0,0,7.52,28.52,1.35,1.35,0,0,0,2.6-.72Z"/></g><path class="cls-67" d="M217.3,82.82c13.14,1,74.56-10.33,110.23-32.26,0,0-1.71,33.11-51.64,46.62C245.52,105.4,217.3,82.82,217.3,82.82Z"/><g class="cls-6"><path class="cls-7" d="M223.94,85.27A170,170,0,0,0,279,80.09,119.66,119.66,0,0,0,301,72c6.93-3.41,14.81-7.58,19.81-13.62.64-.77-.16-2-1.13-1.46-6.6,3.94-12.41,8.83-19.35,12.31a117.19,117.19,0,0,1-22.84,8.47c-17.57,4.59-35.64,5-53.57,7a.3.3,0,0,0,0,.6Z"/></g><g class="cls-9"><path class="cls-68" d="M243.58,91.84c2.66,4.17,12.12,2.63,16.44,2.4a96,96,0,0,0,21.72-3.83,101.77,101.77,0,0,0,18-7.18c5.33-2.76,12.49-6.13,15.61-11.48a1,1,0,0,0-1.12-1.45c-5.38,1.66-10,6-15,8.65a90.63,90.63,0,0,1-18.59,7.32,102.29,102.29,0,0,1-21.51,3.28c-3.11.17-6.22.26-9.34.16-2.69-.08-4.18-.68-6.06,1.31a.7.7,0,0,0-.11.82Z"/></g><path class="cls-69" d="M291.7,132.94c32.77,6.19,62.14,16.45,83.29,37.06,13,12.7,14.6,32.05,43.27,54.36,0,0-38.49,11.25-79.89-30.19S291.7,132.94,291.7,132.94Z"/><g class="cls-6"><path class="cls-7" d="M298.69,138.89c4.5,2.89,9.45,5.12,14.11,7.74s8.88,6.1,13.37,9.07a326.72,326.72,0,0,1,27.39,20.14,210.88,210.88,0,0,1,22.35,21.78c6.45,7.16,12.87,15.38,21.63,19.82.27.14.6-.23.34-.44A124.24,124.24,0,0,1,376,194.31c-6.38-8.29-13-16.69-21.15-23.34a164.79,164.79,0,0,0-25.68-17.11c-5-2.73-10.34-4.65-15.38-7.3s-9.81-5.69-15-7.91a.14.14,0,0,0-.14.24Z"/><path class="cls-7" d="M367.25,205.72c-6-10.63-12.14-21.29-19-31.35-5.55-8.08-12.13-16.83-21.55-20.47-.72-.28-1.22.75-.72,1.24,7.69,7.6,15.5,14.39,21.91,23.22,6.56,9,12.3,18.62,18.67,27.78a.42.42,0,0,0,.72-.42Z"/><path class="cls-7" d="M384.08,195.4a84.41,84.41,0,0,0-14.6-14.23c-5-3.91-11.18-9-17.45-10.57-1-.25-2,1.1-1.06,1.82,4.77,3.85,10.9,6.23,16,9.73a161.7,161.7,0,0,1,16.68,13.68.3.3,0,0,0,.43-.43Z"/><path class="cls-7" d="M333.87,179.11c-5.4-7-7.52-16.24-12-23.84-4.4-7.39-11.48-12.64-19.13-16.38-.57-.28-1.37.33-.95,1,2.3,3.43,5.52,5.46,8.75,7.92a36.36,36.36,0,0,1,9.6,11.15c4.18,7.32,7.29,14.46,13.07,20.73.34.36,1-.13.7-.53Z"/></g><g class="cls-9"><path class="cls-70" d="M394.21,221.85a320.54,320.54,0,0,1-24.34-27.22c-1.53-1.87-4.5.53-3.3,2.55,6.5,10.91,15.54,19.68,26.05,26.72,1.25.84,2.64-1,1.59-2.05Z"/></g><g class="cls-9"><path class="cls-71" d="M377.56,176.77c-16.43-19.14-40.85-28.57-64.07-36.8-3.37-1.19-4.68,4-1.46,5.28,22.38,8.85,45,17.59,63.34,33.71a1.55,1.55,0,0,0,2.19-2.19Z"/></g><path class="cls-72" d="M99,195.37c-1.74-24.1,8.6-95.9-5.46-107.7,0,0,24.83,15.15,29.23,56.65S99,195.37,99,195.37Z"/><g class="cls-6"><path class="cls-7" d="M111,175.4c7.4-11.76,4.12-27.52.93-40.15-2-7.81-4.35-15.76-7-23.38a198.66,198.66,0,0,0-9.07-22.81.3.3,0,0,0-.55.23c2.36,7.16,5.27,14,7.37,21.26s4.34,14.34,6,21.71c3.31,14.71,5.88,28,1.65,42.85a.38.38,0,0,0,.68.29Z"/></g><g class="cls-9"><path class="cls-73" d="M106.72,182.62c.92-6.21,1.69-12.26,2.94-18.44a49.1,49.1,0,0,0,.4-16.71c-.92-6.65-2.78-13.15-4.32-19.68-1.62-6.84-2.79-14-5.45-20.5-.53-1.3-2.91-1.34-2.72.36,1.48,13.39,6.33,26.34,8.22,39.72,1,7.18.09,13.75-1.23,20.81-.91,4.84-2,10.06,0,14.73a1.19,1.19,0,0,0,2.16-.29Z"/></g><g class="cls-9"><path class="cls-74" d="M117.8,154.07c2.86-15.49-1-35.15-10.69-47.83-.9-1.18-3.4-.56-2.69,1.13,3.07,7.28,6.63,14.18,8.65,21.87,2.1,8,2.94,16.47,3.65,24.69,0,.57,1,.8,1.08.14Z"/></g><path class="cls-75" d="M161.17,118.4c-10-9.08-23.13-15.67-35.11-21.71A388.06,388.06,0,0,0,85.76,79.4,819.44,819.44,0,0,0,1.52,53.45a1.24,1.24,0,0,0-.66,2.38c27,9.23,54.78,16.3,81.62,26.15a397.79,397.79,0,0,1,40.32,17.1c12.83,6.37,24.2,14.51,36.39,21.89,1.56,1,3.37-1.3,2-2.57Z"/><path class="cls-76" d="M64.44,72.38c12.69,7.67,27.07,10.12,41.64,11.47,15.7,1.45,31.41,2.32,47.09,4,1.2.13,1.44-1.82.28-2.1-14.3-3.34-29.37-3.07-43.95-4.23C94.19,80.26,79,77.58,64.76,71.6c-.45-.19-.72.54-.32.78Z"/><path class="cls-77" d="M74.24,77.88c13.44,6.87,26.32,15.07,37.3,25.48a129.34,129.34,0,0,1,15.13,17.1c4.45,6.05,7.9,12.72,12.22,18.84.58.82,2.1.36,1.74-.73-4.69-14.14-16.41-27.2-27.14-37.16-11.35-10.53-24.32-19.09-39-24.18a.36.36,0,0,0-.28.65Z"/><path class="cls-78" d="M150.65,112.93c13.2,15.25,12.66,29.27,29.31,46.48,25.27,26.13,57.35,29.35,57.35,29.35s-1.47-44.11-28.3-62.21S150.65,112.93,150.65,112.93Z"/><g class="cls-6"><path class="cls-7" d="M230.33,180.8c-8.16-14.89-19.73-28-32.25-39.39a150.14,150.14,0,0,0-19.6-14.9c-6.69-4.3-14.31-10-22-12.1-.62-.17-1.22.7-.67,1.16,6.2,5.06,14,8.42,20.49,13.17,6.81,5,13.36,10.37,19.68,16,12.53,11.06,23.12,23.76,33.39,36.87.46.59,1.35-.16,1-.77Z"/><path class="cls-7" d="M226.58,154.64c-7.92-4.79-15.92-9.33-24.05-13.76s-16.05-9.36-24.42-13.11a.67.67,0,0,0-.68,1.16c7.7,5,16.22,9,24.29,13.35S218,150.94,226.38,155c.23.11.43-.22.2-.35Z"/><path class="cls-7" d="M215.6,138.79A108.88,108.88,0,0,0,188.94,125c-4.84-1.79-9.78-3.29-14.76-4.68-4.62-1.3-9.6-3.22-14.41-3.42a.68.68,0,0,0-.34,1.26c3.84,1.91,8.4,2.58,12.53,3.73q7.47,2.07,14.83,4.49a130.27,130.27,0,0,1,28.43,13.07c.41.26.76-.36.38-.64Z"/><path class="cls-7" d="M217.65,176.13c-4.43-7.35-8.77-14.23-12.37-22-3-6.53-7.45-12.66-13.71-16.43-.58-.36-1,.4-.68.87,2.64,3.36,6.1,5.93,8.62,9.42,2.28,3.15,3.69,6.72,5.26,10.25,2.95,6.65,6.66,13.54,12,18.58a.54.54,0,0,0,.85-.65Z"/><path class="cls-7" d="M195.77,167.21c-11.45-13.61-11.11-40.4-29.39-47.93-.63-.26-.89.68-.43,1,8.81,6.54,13.18,15.12,16.94,25.2,3,8.08,6.23,16,12.36,22.24.34.34.82-.17.52-.53Z"/></g><g class="cls-9"><path class="cls-79" d="M211.13,175.49c-3.48-5.58-7-11.17-10.31-16.84-3-5.18-5.6-11-9.45-15.67-1-1.24-3.07.1-2.65,1.55,1.77,6,5.83,11.66,9.2,16.91A184.75,184.75,0,0,0,209.14,177c.9,1.13,2.74-.33,2-1.54Z"/></g><g class="cls-9"><path class="cls-80" d="M230.94,168.12a72.75,72.75,0,0,0-8.23-10.05c-2.8-2.85-5.86-6-9.66-7.38a1.34,1.34,0,0,0-1.5,1.95c2.29,3.15,5.68,5.43,8.55,8,3.1,2.83,6.08,5.83,8.94,8.91.92,1,2.69-.32,1.9-1.47Z"/></g><g class="cls-9"><path class="cls-81" d="M221.91,146.29c-12.08-8-25.86-16.71-40.24-19.62a1,1,0,0,0-.78,1.84c6.23,4,13.11,6.81,19.74,10.09s13.21,6.79,19.68,10.43a1.59,1.59,0,0,0,1.6-2.74Z"/></g><g class="cls-9"><path class="cls-82" d="M176.41,147c-2.6-9.05-5.44-19.7-11.66-27-.73-.86-2.11.07-1.83,1.07,2.52,9.2,8.39,17.77,12.43,26.39.28.6,1.23.17,1.06-.44Z"/></g><path class="cls-83" d="M136.24,127.89c.84,17.82-.32,66.56,9.95,89.4,7.91,17.61,26.23,43.93,34.22,55.08a3.08,3.08,0,0,0,5.51-1.13c2.77-11.95,7.39-38.7.75-63.66C177.78,174.14,136.24,127.89,136.24,127.89Z"/><g class="cls-6"><path class="cls-7" d="M183.69,263.28c-2.94-10.18-2.93-20.54-4.38-30.95s-5.09-19.51-9.69-28.82Q162,188,154.55,172.29c-5.1-10.74-9.59-21.92-15.5-32.24-.39-.69-1.62-.23-1.32.56,3.85,10.3,9.12,20.07,13.74,30,5,10.84,10.06,21.67,14.91,32.59,4.47,10.06,8.35,19.88,10.17,30.78,1.64,9.89,2.78,20.12,6.8,29.4.09.19.4.05.34-.14Z"/><path class="cls-7" d="M168.44,232.43a249.17,249.17,0,0,1-2.61-26.71c-.13-5.12-.08-11.26-3.69-15.31-.34-.38-.85.11-.66.51,3.23,7,3,13.34,3.28,20.87a85.72,85.72,0,0,0,3,20.83c.13.48.78.27.71-.19Z"/><path class="cls-7" d="M156.88,218.37c-1.61-12-3.12-24.1-4.75-36.14-1.61-11.84-4-24.46-9.94-35-.54-1-1.9-.12-1.45.85,5.5,12,7.84,24,9.49,37,1.45,11.31,2.82,22.35,6.15,33.3.08.26.54.23.5-.07Z"/><path class="cls-7" d="M177.15,203a59.88,59.88,0,0,0-9.8-14.6c-4.12-4.72-8.13-10.08-12.65-14.38-.51-.49-1.61,0-1.29.76,2.07,5,6.5,9,10.22,12.81,4.78,4.91,9.71,9.65,13.35,15.52.07.11.22,0,.17-.11Z"/></g><g class="cls-9"><path class="cls-84" d="M183.42,231.23c-1.08-6.26-3.42-12.15-5.94-18-2.4-5.54-4.95-12-9.11-16.47a1.08,1.08,0,0,0-1.79,1c1.8,5.63,5.37,10.82,7.82,16.22,2.68,5.88,4.75,12,7.44,17.86.44,1,1.73.23,1.58-.67Z"/></g><g class="cls-9"><path class="cls-85" d="M178.43,258.18c-2-7.74-4.14-15.44-6.09-23.19-1.79-7.12-2.44-15.07-5.56-21.74-.59-1.28-2.31-.5-2.41.65-.68,7.59,2.24,15.84,4.23,23.08a140.32,140.32,0,0,0,8,22c.48,1,2.06.29,1.79-.75Z"/></g><g class="cls-9"><path class="cls-86" d="M162.78,234.65c.18-8.68-1.34-17.68-2.44-26.28-1-8.13-1.52-16.77-3.92-24.61a1,1,0,0,0-2,.26c-.41,8.67,1.36,17.71,2.47,26.29,1,8.14,1.76,16.69,4,24.6a1,1,0,0,0,1.92-.26Z"/></g><g class="cls-9"><path class="cls-87" d="M168,182.28c-4.54-5.83-9.32-11.47-13.76-17.38-3.86-5.15-7-11-11.28-15.74-.92-1-2.94.05-2.41,1.4,2.46,6.29,7,11.85,11.12,17.16a104.05,104.05,0,0,0,14.95,15.95,1,1,0,0,0,1.38-1.39Z"/></g><path class="cls-88" d="M65.13,72.79c8.75-3.89,44-32.43,59.22-58.78,0,0,10.38,21.73-16.82,47.65C91,77.43,65.13,72.79,65.13,72.79Z"/><g class="cls-6"><path class="cls-7" d="M70.23,72.05a122.81,122.81,0,0,0,33-22c8-7.42,17.27-17.8,19.58-28.75a.68.68,0,0,0-1.23-.52c-2.86,4.88-4.93,10-8.21,14.71a86.41,86.41,0,0,1-12.13,13.71C91.71,58,80.51,64.27,70,71.67a.22.22,0,0,0,.22.38Z"/></g><g class="cls-9"><path class="cls-89" d="M85.16,69.5C89,70.6,93.6,67,96.71,65.08a69.81,69.81,0,0,0,12.22-9.79c5.91-5.87,14.15-14.91,15-23.55a.73.73,0,0,0-1.23-.51c-2.68,3.07-4.15,7-6.39,10.43a66.52,66.52,0,0,1-9.55,11.43A73.93,73.93,0,0,1,95,62.1c-3.12,1.95-8.37,3.34-10.1,6.68a.5.5,0,0,0,.29.72Z"/></g><path class="cls-90" d="M145.31,85c17.9-10.11,33.46-12.66,54.78-10.15,31.7,3.73,46.67,18.64,59.41,29.63,0,0-22.39,15.58-63.18,3.46S145.31,85,145.31,85Z"/><g class="cls-6"><path class="cls-7" d="M151.83,86.34c4.22.2,8.46-.13,12.68.07,3.62.17,7.24.84,10.87,1.17A230.77,230.77,0,0,1,200,91a151.7,151.7,0,0,1,22.1,6.3c6.44,2.31,13.17,5.11,20.13,5,.22,0,.28-.36,0-.4a98.3,98.3,0,0,1-22.79-7.35c-6.84-3-13.86-5.91-21.24-7.27a121.1,121.1,0,0,0-21.92-1.91c-4,0-7.83.55-11.77.66-4.23.12-8.45-.13-12.68.14a.1.1,0,0,0,0,.2Z"/><path class="cls-7" d="M218.76,105.27c-7.44-4.7-15-9.34-22.89-13.36-6.33-3.24-13.58-6.56-20.85-5.69a.54.54,0,0,0-.14,1.06c7.66,2.27,15.08,3.89,22.36,7.4s14.09,7.53,21.22,11.12a.3.3,0,0,0,.3-.53Z"/><path class="cls-7" d="M226,92.88c-8.57-3.62-19.81-6.34-29.14-4.75-1,.16-.61,1.46.21,1.55,4.8.53,9.67.2,14.49.79a128.5,128.5,0,0,1,14.27,2.81c.23,0,.4-.3.17-.4Z"/><path class="cls-7" d="M188.22,99.84c-5.91-2.7-10.44-7.84-16-11.11-5.42-3.17-11.61-3.94-17.8-3.77-.47,0-.74.71-.26.94,2.75,1.31,5.39,1.51,8.36,2A27.52,27.52,0,0,1,172.87,92c5.06,3.2,9.41,6.43,15.1,8.44.34.12.58-.44.25-.59Z"/></g><g class="cls-9"><path class="cls-91" d="M241.55,106.23a243.49,243.49,0,0,1-25-9c-1.64-.67-2.63,1.93-1.18,2.79a62,62,0,0,0,25.91,8c1.09.11,1.25-1.58.25-1.87Z"/></g><g class="cls-9"><path class="cls-92" d="M215.3,83.21c-17.23-6.46-36-4.08-53.73-1.28-2.19.35-1.7,4.18.53,3.91,17.57-2.13,35.08-4.36,52.6-.46a1.13,1.13,0,0,0,.6-2.17Z"/></g><path class="cls-50" d="M437.52,185.47a1.2,1.2,0,0,0-1.71.17,1.24,1.24,0,0,0,.06,1.74,1.21,1.21,0,0,0,1.71-.17A1.25,1.25,0,0,0,437.52,185.47Z"/><path class="cls-50" d="M435.36,182a1.2,1.2,0,0,0-1.71.17,1.24,1.24,0,0,0,.06,1.74,1.21,1.21,0,0,0,1.71-.17A1.25,1.25,0,0,0,435.36,182Z"/><path class="cls-50" d="M440.66,188.55a1.21,1.21,0,0,0-1.71.18,1.24,1.24,0,0,0,.06,1.74,1.21,1.21,0,0,0,1.71-.18A1.25,1.25,0,0,0,440.66,188.55Z"/><path class="cls-50" d="M433.75,186.34a1.2,1.2,0,0,0-1.71.17,1.24,1.24,0,0,0,.06,1.74,1.22,1.22,0,0,0,1.71-.17A1.26,1.26,0,0,0,433.75,186.34Z"/><path class="cls-50" d="M436.34,190a1.21,1.21,0,0,0-1.71.17,1.25,1.25,0,0,0,.06,1.74,1.2,1.2,0,0,0,1.71-.17A1.24,1.24,0,0,0,436.34,190Z"/><path class="cls-50" d="M439.36,192.76a1.21,1.21,0,0,0-1.71.18,1.24,1.24,0,0,0,.06,1.74,1.22,1.22,0,0,0,1.71-.17A1.25,1.25,0,0,0,439.36,192.76Z"/><path class="cls-50" d="M441.32,183.66a1.21,1.21,0,0,0-1.71.18,1.24,1.24,0,0,0,.06,1.74,1.21,1.21,0,0,0,1.71-.18A1.25,1.25,0,0,0,441.32,183.66Z"/><path class="cls-50" d="M444.21,185.93a1.21,1.21,0,0,0-1.71.17,1.24,1.24,0,0,0,.06,1.74,1.2,1.2,0,0,0,1.71-.17A1.26,1.26,0,0,0,444.21,185.93Z"/><path class="cls-50" d="M431.92,190.46a1.21,1.21,0,0,0-1.71.18,1.25,1.25,0,0,0,.06,1.74,1.21,1.21,0,0,0,1.71-.18A1.24,1.24,0,0,0,431.92,190.46Z"/><path class="cls-93" d="M417.52,152.87c-3.07,15.07-28.56,22.32-11.07,28.34,7.82,2.55,12.2,9.43,23.39,5.07C435.32,184.14,419.43,153.76,417.52,152.87Z"/><path class="cls-94" d="M417.52,152.87c2.86,1.82,16.17,42.52,24.53,29.1a14.47,14.47,0,0,0,1.8-9.8c-.41-1.83-3.36-2.24-2.51-3.29s2.51.56,4.23-1.53,1.19-3.4,1.59-3.84c5.41-5.86,4.3-10,2.36-14.22a1.8,1.8,0,0,0-2.2-.93C440.08,150.68,425,155.33,417.52,152.87Z"/><g class="cls-6"><path class="cls-95" d="M424.27,183.41h-.12a.61.61,0,0,1-.44-.74c0-.1,2.33-10.28-5.16-26a.6.6,0,0,1,.29-.81.62.62,0,0,1,.81.29c7.69,16.18,5.34,26.42,5.24,26.85A.59.59,0,0,1,424.27,183.41Z"/></g><g class="cls-6"><path class="cls-96" d="M416,181.76a.63.63,0,0,1-.48-.27.6.6,0,0,1,.17-.84c.1-.07,5.54-4,5.69-17.22a.59.59,0,0,1,.61-.6.61.61,0,0,1,.6.61c-.15,14-6,18.05-6.22,18.22A.61.61,0,0,1,416,181.76Z"/></g><g class="cls-6"><path class="cls-97" d="M406.34,177.45a.61.61,0,0,1,0-1.21c.08,0,4.34-.3,8.68-9.34a.6.6,0,0,1,.81-.29.61.61,0,0,1,.28.82c-4.73,9.86-9.55,10-9.75,10Z"/></g><g class="cls-6"><path class="cls-98" d="M442.06,163.6a42.88,42.88,0,0,1-14-4.66.61.61,0,0,1,.57-1.08,42.83,42.83,0,0,0,13.56,4.53.6.6,0,0,1,.54.67A.61.61,0,0,1,442.06,163.6Z"/></g><g class="cls-6"><path class="cls-99" d="M435.66,158.76a31.52,31.52,0,0,1-11.88-2.61.61.61,0,1,1,.51-1.11c10.49,4.84,24.37,1.19,24.51,1.15a.61.61,0,0,1,.32,1.17A48.92,48.92,0,0,1,435.66,158.76Z"/></g><path class="cls-100" d="M417.52,152.87s24,16.82,24.09,19.39a6.77,6.77,0,0,1-1.77,5.51c-1.62,2.17-.69,3.84-2.7,4.72A2,2,0,0,0,436,184c2.14,1.26,4.2.91,6-2a14.47,14.47,0,0,0,1.8-9.8c-.41-1.83-3.36-2.24-2.51-3.29A254.4,254.4,0,0,0,417.52,152.87Z"/><path class="cls-101" d="M423.81,187.66a19.19,19.19,0,0,0,6-1.38c3.23-1.26-1-12.33-5.35-21.39-3.05-6.31,5.1,15.18,3.21,18.66C427,184.89,424.59,187.4,423.81,187.66Z"/><path class="cls-102" d="M370.7,122.73a.79.79,0,0,1-.71-.59.77.77,0,0,1,.56-.91c.15,0,15.37-4,28.88-31.1a.76.76,0,1,1,1.36.68c-13.87,27.79-29.24,31.74-29.88,31.89Z"/><path class="cls-103" d="M418.61,78.28c-.86,3.26-2.57,9.78-9,13.77-.82.5-8.64,5.23-12.47,2.44-4.46-3.25-2.63-16.1,4.86-23,4.81-4.46,13.08-7.52,16.38-4.72C421,69,419.61,74.47,418.61,78.28Z"/><path class="cls-104" d="M383.18,118.14a11.84,11.84,0,0,1-2.57-.33.76.76,0,0,1,.43-1.46c.09,0,8.86,2.37,23.46-7.35a.76.76,0,1,1,.84,1.26C394.6,117.41,386.92,118.29,383.18,118.14Z"/><path class="cls-105" d="M417.86,108.82c-1.39,1.41-4.15,4.22-8.59,4.37-.56,0-5.91.14-7-2.39-1.32-3,3.35-8.94,9.17-10.29,3.74-.86,8.83,0,9.69,2.37C421.79,104.82,419.48,107.17,417.86,108.82Z"/><path class="cls-106" d="M396.8,96.85c.07.2,8.78-9.48-6.18-18.64C390.73,78.28,390.29,90.14,396.8,96.85Z"/><path class="cls-107" d="M396.8,96.56c-.2,0,3.41-12,18.5-4.27C415.18,92.24,405.61,98.56,396.8,96.56Z"/><path class="cls-108" d="M401.08,112c0,.1,6.5-1.74,2.45-9.93C403.56,102.08,400.08,107.18,401.08,112Z"/><path class="cls-109" d="M401.16,111.82c-.09,0,4.84-4.35,9.34,3.25C410.46,115,404.49,115.15,401.16,111.82Z"/><path class="cls-110" d="M399,133.85c-.71-.21,32.46-33.1,67.85,19C466.62,152.41,424.2,156,399,133.85Z"/><path class="cls-111" d="M459.06,149.33a.76.76,0,0,1-.35-.11c-49-28.72-98.46-8.72-98.95-8.52a.76.76,0,1,1-.58-1.4c.5-.21,50.6-20.5,100.3,8.61a.77.77,0,0,1,.27,1A.78.78,0,0,1,459.06,149.33Z"/><path class="cls-112" d="M387.72,145.13c-.23-.28,22.36-5,23.09,26.08C410.8,171,392.22,161.1,387.72,145.13Z"/><path class="cls-113" d="M408.68,168.12a.75.75,0,0,1-.65-.42c-12.57-24.92-38.26-29.84-38.52-29.88a.76.76,0,0,1,.28-1.5c.26.05,26.69,5.11,39.6,30.7a.77.77,0,0,1-.34,1A.71.71,0,0,1,408.68,168.12Z"/><path class="cls-114" d="M315.39,147.17a.77.77,0,0,1-.71-.57c-.13-.52-14-52-66.52-73.74a.76.76,0,1,1,.58-1.4c53.21,22,67.28,74.23,67.41,74.76a.75.75,0,0,1-.54.92Z"/><path class="cls-115" d="M294.27,127c.36,0-9.49-20.86-34.72-2.66C259.74,124.18,278.83,133,294.27,127Z"/><path class="cls-116" d="M311.58,137.28a.74.74,0,0,1-.48-.2c-.2-.18-19.65-17.68-47.08-12.66a.76.76,0,0,1-.28-1.5c28.2-5.15,48.18,12.86,48.38,13a.76.76,0,0,1,.05,1.07A.77.77,0,0,1,311.58,137.28Z"/><path class="cls-117" d="M261.1,94.13c.31-.18-19.35-12.28-30.53,16.76C230.65,110.68,251.48,107.64,261.1,94.13Z"/><path class="cls-118" d="M261.51,79c.35.11-4.46-22.47-33.2-10.53C228.53,68.33,245.1,81.32,261.51,79Z"/><path class="cls-119" d="M233.81,108.74a.79.79,0,0,1-.52-.24.76.76,0,0,1,0-1.07C254.1,87.69,280.69,91.84,281,91.89a.76.76,0,0,1-.24,1.5c-.26,0-26.12-4.06-46.34,15.14A.8.8,0,0,1,233.81,108.74Z"/><path class="cls-120" d="M357.72,171.62c-1.05,3.69-4.6,5.78-11.87,4.81-8.81-4-7,6.92-13.7,7.68,1.4-8.42-1.47-28.19-2.62-39.56a58.38,58.38,0,0,1-.43-7,4.26,4.26,0,0,1,.11-1l.14-.07c7.35-3.34,22.62,12.95,27.29,25.78C357.94,165.82,358.42,169.09,357.72,171.62Z"/><path class="cls-121" d="M357.72,171.62c-4-2.4-7.06-5.34-17.78-21.78-2.81-4.31-9.53-6.33-10.41-5.29a31.63,31.63,0,0,1-.43-7,3.66,3.66,0,0,1,.25-1.09c7.35-3.34,22.62,12.95,27.29,25.78A76.26,76.26,0,0,1,357.72,171.62Z"/><g class="cls-6"><path class="cls-122" d="M345.29,173.78a.57.57,0,0,1-.18,0,.76.76,0,0,1-.52-.93c0-.07,1.76-6.86-5.67-18.13a.76.76,0,1,1,1.27-.83c7.86,11.92,5.95,19.07,5.86,19.37A.75.75,0,0,1,345.29,173.78Z"/></g><path class="cls-123" d="M328.1,138c25.84,2.88,47.85,40.16,51.69,9.3,1.48-13.78,10-17.18-1-35.63C373.35,102.62,328.9,134.57,328.1,138Z"/><path class="cls-124" d="M348.64,122.07l-20.29,15.44a2.16,2.16,0,0,0-.21.37l27.52-13.49c20.65-7.38,25.18-3.82,27.52-2.39a37.2,37.2,0,0,0-4.42-10.35C375.82,106.74,361.37,113.93,348.64,122.07Z"/><path class="cls-125" d="M328.1,138c2-5.19,64.31-34.34,39.34-46.54a24.07,24.07,0,0,0-16.74-1.53c-2.86,1-2.53,6.1-4.55,4.81s.05-4.39-4-7-6-1.5-6.86-2.12c-11.51-8.33-18-5.77-24.2-1.8a2.89,2.89,0,0,0-.77,3.9C316.67,99.74,329.53,124.78,328.1,138Z"/><g class="cls-6"><path class="cls-126" d="M375.09,136.84a.76.76,0,0,1-.53-.25c-.08-.09-8.53-9-30.58-7.16a.76.76,0,1,1-.13-1.51c22.88-1.92,31.48,7.26,31.83,7.65a.75.75,0,0,1-.05,1.07A.79.79,0,0,1,375.09,136.84Z"/></g><g class="cls-6"><path class="cls-127" d="M371.37,154a.76.76,0,0,1-.72-.6c0-.08-1.91-7.56-18.64-13.68a.76.76,0,0,1-.45-1,.75.75,0,0,1,1-.45c17.65,6.46,19.54,14.45,19.61,14.78a.76.76,0,0,1-.59.9A.55.55,0,0,1,371.37,154Z"/></g><g class="cls-6"><path class="cls-128" d="M333.74,129.8a.69.69,0,0,1-.46-.18.76.76,0,0,1-.08-1.07c12.91-15,15.43-30.65,15.46-30.81a.76.76,0,0,1,1.5.23,70.63,70.63,0,0,1-15.81,31.57A.76.76,0,0,1,333.74,129.8Z"/></g><g class="cls-6"><path class="cls-129" d="M335.75,121.05a.57.57,0,0,1-.18,0,.75.75,0,0,1-.52-.94c3.72-12.76.47-25.39.43-25.51a.76.76,0,0,1,.54-.93.75.75,0,0,1,.93.54c.14.53,3.39,13.16-.44,26.32A.77.77,0,0,1,335.75,121.05Z"/></g><g class="cls-6"><path class="cls-130" d="M330.28,127.16l-.14,0a.76.76,0,0,1-.57-.91c4.34-18.79-6.54-42.08-6.65-42.31a.76.76,0,0,1,1.38-.65c.46,1,11.21,24,6.75,43.3A.75.75,0,0,1,330.28,127.16Z"/></g><path class="cls-131" d="M334.45,134C314.84,117,318,73.78,297.23,97c-9.05,10.49-18,8.42-19.42,29.88C277.12,137.37,331.86,136.39,334.45,134Z"/><path class="cls-132" d="M334.36,134.09a1,1,0,0,1-.38.18l-25.48,1.16c-15.08-.54-31.06-2.86-30.69-8.56a37.17,37.17,0,0,1,2.26-11c1.11,2.51,2.8,8,24,13.71l7.36,1.1,3.73.56Z"/><path class="cls-133" d="M334.45,134c-4.58,3.13-72.42-8.35-58.82,15.88a24,24,0,0,0,12.89,10.78c2.92.82,5.55-3.57,6.47-1.36s-2.53,3.58-.7,8,4.08,4.65,4.43,5.65c4.74,13.4,11.55,15,18.89,15.25a2.91,2.91,0,0,0,2.85-2.77C322.1,172,325.77,144.08,334.45,134Z"/><g class="cls-6"><path class="cls-134" d="M315.16,131.2l-3.73-.56C295.6,120,294,109.43,293.94,108.94a.76.76,0,1,1,1.51-.19C295.47,108.86,297.26,120.41,315.16,131.2Z"/></g><g class="cls-6"><path class="cls-135" d="M315.15,120.16a.79.79,0,0,1-.59-.32c-10.83-15.35-7.84-23-7.71-23.31a.76.76,0,1,1,1.4.58c0,.1-2.7,7.33,7.55,21.85a.75.75,0,0,1-.18,1.06A.74.74,0,0,1,315.15,120.16Z"/></g><g class="cls-6"><path class="cls-136" d="M294.08,155.67a.8.8,0,0,1-.5-.21.76.76,0,0,1,0-1.07c.11-.12,11.39-11.86,31-17a.77.77,0,0,1,.93.54.76.76,0,0,1-.54.93c-19.16,5-30.13,16.43-30.24,16.54A.74.74,0,0,1,294.08,155.67Z"/></g><g class="cls-6"><path class="cls-137" d="M302.94,166a1,1,0,0,1-.23,0,.75.75,0,0,1-.45-1,54.14,54.14,0,0,1,15.34-21.4.76.76,0,0,1,.95,1.18c-10.3,8.37-14.82,20.61-14.87,20.74A.77.77,0,0,1,302.94,166Z"/></g><g class="cls-6"><path class="cls-138" d="M307.18,182.07h-.1a.76.76,0,0,1-.62-.87c.17-1.06,4.42-26.1,19.08-39.45a.74.74,0,0,1,1.07,0,.76.76,0,0,1-.05,1.07c-14.27,13-18.57,38.32-18.61,38.58A.75.75,0,0,1,307.18,182.07Z"/></g><g class="cls-6"><path class="cls-139" d="M339.74,174.4a.71.71,0,0,1-.25-.06.76.76,0,0,1-.43-1c2.34-6,.25-10.19.23-10.23a.75.75,0,0,1,.33-1,.76.76,0,0,1,1,.32c.1.2,2.44,4.82-.17,11.48A.76.76,0,0,1,339.74,174.4Z"/></g><path class="cls-140" d="M311.11,83.81a2.89,2.89,0,0,0-.77,3.9l.52,1c4.52.77,14.17-9,18.55-5.59,1.19.94,1.36,2.37,3.35,3.42,2.68,1.42,4.11-.25,6.07,1,2.43,1.58,1.3,4.86,4.19,7.19a6.38,6.38,0,0,0,4.49,1.43c2.86-.31,3.15-3.14,5.49-4.58,4.44-2.75,14,.93,17.08,6.71a10.77,10.77,0,0,1,1,6.54c3.5-5.2,3.38-10-3.64-13.4a24.07,24.07,0,0,0-16.74-1.53c-2.86,1-2.53,6.1-4.55,4.81s.05-4.39-4-7-6-1.5-6.86-2.12C323.8,77.28,317.28,79.84,311.11,83.81Z"/><path class="cls-50" d="M331,132.62a2.16,2.16,0,0,0,.77,3,2.23,2.23,0,0,0,3.07-.57,2.16,2.16,0,0,0-.76-3A2.24,2.24,0,0,0,331,132.62Z"/><path class="cls-50" d="M325.33,137.39a2.16,2.16,0,0,0,.76,3,2.23,2.23,0,0,0,3.08-.57,2.16,2.16,0,0,0-.77-3A2.23,2.23,0,0,0,325.33,137.39Z"/><path class="cls-50" d="M335.61,126.22a2.17,2.17,0,0,0,.77,3,2.23,2.23,0,0,0,3.07-.57,2.16,2.16,0,0,0-.76-3A2.23,2.23,0,0,0,335.61,126.22Z"/><path class="cls-50" d="M333.52,139.09a2.16,2.16,0,0,0,.76,3,2.24,2.24,0,0,0,3.08-.57,2.16,2.16,0,0,0-.76-3A2.24,2.24,0,0,0,333.52,139.09Z"/><path class="cls-50" d="M339.28,133.51a2.17,2.17,0,0,0,.77,3,2.23,2.23,0,0,0,3.07-.57,2.16,2.16,0,0,0-.76-3A2.23,2.23,0,0,0,339.28,133.51Z"/><path class="cls-50" d="M343.44,127.4a2.17,2.17,0,0,0,.77,3,2.24,2.24,0,0,0,3.08-.57,2.17,2.17,0,0,0-.77-3A2.23,2.23,0,0,0,343.44,127.4Z"/><path class="cls-50" d="M326.75,126.35a2.16,2.16,0,0,0,.77,3,2.23,2.23,0,0,0,3.07-.57,2.16,2.16,0,0,0-.76-3A2.24,2.24,0,0,0,326.75,126.35Z"/><path class="cls-50" d="M330,120.62a2.17,2.17,0,0,0,.77,3,2.24,2.24,0,0,0,3.08-.57,2.18,2.18,0,0,0-.77-3A2.24,2.24,0,0,0,330,120.62Z"/><path class="cls-50" d="M341.34,141.23a2.16,2.16,0,0,0,.77,3,2.23,2.23,0,0,0,3.07-.57,2.16,2.16,0,0,0-.76-3A2.23,2.23,0,0,0,341.34,141.23Z"/></g></g></g></svg>